<?xml version="1.0" encoding="utf-8"?>
<!-- Generator: Adobe Illustrator 26.2.1, SVG Export Plug-In . SVG Version: 6.00 Build 0)  -->
<svg version="1.1" id="a" xmlns="http://www.w3.org/2000/svg" xmlns:xlink="http://www.w3.org/1999/xlink" x="0px" y="0px"
	 width="230px" height="230px" viewBox="0 0 230 230" enable-background="new 0 0 230 230" xml:space="preserve">
<rect id="b" x="62.752" y="103.389" fill="#231815" width="11.194" height="23.204"/>
<path id="c" fill="#231815" d="M58.81,116.478l-0.114,1.35l-0.22,1.248l-0.324,1.136l-0.431,1.05l-0.609,0.937l-0.75,0.863
	l-0.964,0.75l-0.543,0.333l-0.595,0.323l-1.366,0.581l-1.6,0.476l-1.847,0.39l-2.1,0.3l-2.4,0.217l-2.7,0.117l-3.027,0.042H26.605
	v-23.172h10.637l3.373,0.037l3.007,0.124l2.663,0.221l2.334,0.308l2.044,0.39l1.747,0.483l0.778,0.274l0.722,0.293l0.652,0.314
	l0.6,0.353l0.532,0.371l0.5,0.39l0.448,0.416l0.377,0.454l0.637,0.937l0.484,1.054l0.329,1.139l0.218,1.26l0.122,1.343l0.03,1.466
	C58.839,115.046,58.81,116.478,58.81,116.478z M47.208,114.891l-0.04-1.594l-0.046-0.7l-0.111-0.629l-0.131-0.57l-0.225-0.525
	l-0.279-0.469l-0.37-0.386l-0.452-0.375l-0.549-0.3l-0.667-0.259l-0.786-0.2l-0.9-0.177l-1.048-0.1l-2.575-0.09h-1.275v12.989h1.275
	l2.575-0.1l1.048-0.117l0.9-0.146l0.786-0.225l0.667-0.24l0.549-0.315l0.452-0.352l0.37-0.428l0.279-0.465l0.225-0.547l0.131-0.607
	l0.111-0.66l0.046-0.746L47.208,114.891z"/>
<path id="d" fill="#231815" d="M140.2,116.043l-0.769-0.653l-0.453-0.307l-0.484-0.277l-1.08-0.54l-1.218-0.492l-1.26-0.419
	l-1.307-0.349l-1.323-0.307l-1.361-0.27l-5.371-0.911l-1.4-0.319l-1.378-0.42l-0.6-0.274l-0.461-0.337l-0.3-0.383l-0.12-0.453
	l0.092-0.458l0.249-0.379l0.39-0.3l0.5-0.221l0.594-0.153l0.647-0.1l1.367-0.064l1.158,0.038l0.979,0.12l0.819,0.191l0.7,0.255
	l0.583,0.326l0.5,0.383l0.435,0.446l0.388,0.487h9.707l-0.043-0.435l-0.073-0.405l-0.09-0.412l-0.165-0.39l-0.171-0.379
	l-0.229-0.364l-0.538-0.693l-0.648-0.641l-0.771-0.581l-0.883-0.521l-0.984-0.476l-1.042-0.428l-1.146-0.371l-1.209-0.3l-1.28-0.243
	l-1.316-0.2l-1.393-0.142l-1.416-0.086l-1.451-0.03l-2.752,0.1l-2.684,0.278l-1.28,0.221l-1.23,0.286l-1.184,0.341l-1.1,0.427
	l-1.119,0.5l-1,0.544l-0.856,0.607l-0.72,0.645l-0.568,0.731l-0.21,0.405l-0.192,0.405l-0.144,0.431l-0.1,0.48l-0.053,0.488
	l-0.026,0.521l0.118,1.035l0.289,0.933l0.221,0.416l0.248,0.405l0.612,0.728l0.758,0.637l0.87,0.57l0.99,0.491l1.081,0.454
	l1.159,0.375l1.222,0.334l2.565,0.558l5.243,0.9l1.575,0.349l0.778,0.217l0.737,0.263l0.626,0.3l0.5,0.367l0.193,0.207l0.134,0.217
	l0.094,0.24l0.027,0.255l-0.027,0.214l-0.094,0.2l-0.121,0.184l-0.178,0.169l-0.462,0.3l-0.616,0.221l-0.707,0.165l-0.771,0.116
	l-0.791,0.068l-0.8,0.026l-1.295-0.056l-1.115-0.127l-0.968-0.218l-0.8-0.292l-0.675-0.4l-0.56-0.48l-0.46-0.562l-0.4-0.668H109.09
	l0.117,0.885l0.1,0.424l0.157,0.431l0.394,0.772l0.549,0.765l0.688,0.687l0.806,0.652l0.921,0.6l1.042,0.536l1.142,0.468
	l1.229,0.424l1.339,0.368l1.4,0.3l1.474,0.255l1.55,0.162l1.624,0.1l1.655,0.038l1.564-0.03l1.546-0.068l1.519-0.12l1.456-0.168
	l1.418-0.229l1.342-0.292l1.273-0.353l1.176-0.409l1.115-0.484l0.973-0.554l0.856-0.615l0.717-0.69l0.588-0.772l0.236-0.42
	l0.19-0.439l0.154-0.446l0.114-0.488l0.069-0.5l0.025-0.514l-0.094-1.05l-0.1-0.491l-0.167-0.435l-0.19-0.431l-0.251-0.4
	L140.2,116.043L140.2,116.043z"/>
<path id="e" fill="#231815" d="M103.472,112.128H90.258v-3.397h16.333v-5.34H79.377v23.2h27.214v-5.539H90.258v-3.761h13.214
	V112.128L103.472,112.128z"/>
<path id="f" fill="#231815" d="M170.01,112.128h-13.2v-3.397h16.32v-5.34h-27.217v23.2h27.217v-5.539h-16.323v-3.761h13.2
	L170.01,112.128L170.01,112.128z"/>
<path id="g" fill="#231815" d="M189.186,103.391h-11.209v23.2h25.417v-5.674h-14.208
	C189.186,120.917,189.186,103.391,189.186,103.391z"/>
</svg>
