<?xml version="1.0" encoding="utf-8"?>
<!-- Generator: Adobe Illustrator 26.2.1, SVG Export Plug-In . SVG Version: 6.00 Build 0)  -->
<svg version="1.1" id="a" xmlns="http://www.w3.org/2000/svg" xmlns:xlink="http://www.w3.org/1999/xlink" x="0px" y="0px"
	 width="230px" height="230px" viewBox="0 0 230 230" enable-background="new 0 0 230 230" xml:space="preserve">
<g id="b">
	<path id="c" fill="#231815" d="M154.128,107.773c0-1.191,1.289-2.158,2.876-2.158s2.876,0.967,2.876,2.158
		s-1.286,2.158-2.876,2.158S154.128,108.964,154.128,107.773"/>
	<path id="d" fill-rule="evenodd" clip-rule="evenodd" fill="#231815" d="M69.934,102.985c0.034-0.279,0.341-0.424,0.611-0.44
		c0.895-0.084,1.795-0.116,2.694-0.094c0.635-0.008,0.6,0.161,0.592,0.594c0,0,0,8.15,0.1,11.716c0.066,0.966,0.5,0.433,0.695,0.222
		c1.062-1.104,2.19-2.142,3.38-3.107c0.592-0.709,1.647-0.805,2.356-0.213c0.174,0.145,0.316,0.323,0.419,0.525
		c0.273,0.475,1.207,2.105,1.868,3.3c0.781,1.289,1.324,1,2,0.492c4.374-3.166,7.142-4.677,9.841-4.746
		c1.6,0.069,1.257,1.069,0.408,1.291c-1.47,0.375-2.619,1.521-3,2.989c-0.23,1.072,0.262,2.191,1.783,1.713
		c0.926-0.287,1.723-1.171,1.823-3.319c0.143-0.7,0.827-1.152,1.527-1.009c0.237,0.049,0.456,0.163,0.632,0.33
		c0.755,0.846,1.465,1.732,2.128,2.652c0.523,0.884,0.915,0.595,1.442,0.085c1.058-1.052,2.758-2.641,4.028-3.87
		c0.684-0.845,1.924-0.976,2.769-0.291c0.183,0.148,0.337,0.327,0.457,0.529c0.714,0.95,1.225,1.619,1.971,2.6
		c0.661,0.867,0.85,0.661,1.376,0c0.54-0.748,1.7-2.259,2.207-2.87c0.552-0.816,1.662-1.029,2.477-0.477
		c0.204,0.138,0.378,0.318,0.51,0.527c0.815,1.036,1.511,1.972,2.31,3.008c0.373,0.525,0.527,0.608,1-0.052
		c0.215-0.3,1.821-2.344,2.395-2.956c0.481-0.784,1.506-1.03,2.29-0.549c0.212,0.13,0.393,0.307,0.528,0.516
		c0.6,0.782,2.48,2.666,3.482,3.8c0.527,0.595,0.715,0.7,1.662,0.069c1.425-1.145,2.574-2.597,3.363-4.246
		c0.102-0.252,0.339-0.424,0.611-0.441c0.747-0.1,1.504-0.103,2.252-0.009c0.32-0.007,0.586,0.246,0.593,0.566
		c0,0.011,0,0.022,0,0.034l0.026,3.226c0,0-0.052,0.279,0.141,0.015c1.049-1.55,2.566-2.726,4.329-3.355
		c3.834-1.338,8.438,0.965,5.99,5.131c-0.51,0.85,0.032,0.681,0.3,0.681c2.341-0.1,5.059-2.243,6.019-3.738v-1.718
		c-0.008-0.383,0.421-0.724,0.993-0.8c1.021-0.118,2.05-0.135,3.074-0.052c1.3,0.086,1.289,0.187,1.268,0.95
		c0.005,0.8-0.019,3.313,0.021,4.407c-0.008,1.18,0.9,1.113,1.852,0.644c1.969-0.919,3.737-2.22,5.2-3.827
		c1.248-1.787,3.323-2.812,5.5-2.717c2.051-0.085,1.546,1.035,0.445,1.348c-0.599,0.187-1.116,0.576-1.461,1.1
		c-0.762,0.991-0.951,2.308-0.5,3.474c0.59,1.482,1.834,1.3,2.377,0.477c0.638-0.918,0.805-2.083,0.449-3.143
		c-0.918-1.671,0.162-1.537,1.307-1.561c2.502-0.221,4.983-0.636,7.42-1.241c1.834-0.254,1.918,0.257,2.175,0.7
		c0.415,0.721,0.728,1.561,1.069,2.257c0.373,0.849,0.712,0.645,1.241,0c0.54-0.611,1.543-1.6,2.085-2.157
		c0.761-0.875,2.088-0.967,2.963-0.206c0.069,0.06,0.134,0.124,0.194,0.193c0.765,0.883,2.027,2.528,2.784,3.481
		c0.469,0.764,1.451,1.033,2.244,0.613c0.71-0.332,1.381-0.742,2-1.224c1.273-0.934,2.564-0.56,1.9,0.7
		c-1.009,1.457-2.288,2.707-3.768,3.683c-2.342,1.427-4.109,2.005-5.382,0.289c-0.822-0.924-1.593-1.892-2.31-2.9
		c-0.357-0.644-0.85-0.578-1.342,0.034c-0.537,0.666-1.7,2.037-2.495,2.886c-1.069,1.375-2.569,1.6-3.532-0.221
		c-0.942-1.842-1.781-3.735-2.514-5.67l-2.361,0.374c3.549,8.065-10.475,9.065-11.237,3.161c0-0.19-0.019-0.276-0.228-0.069
		c-1.731,2.028-4.195,3.287-6.853,3.5c-4.1,0.3-4.594-1.359-4.631-3.4c0.011-0.163-0.005-0.246-0.206-0.03
		c-5.512,4.968-10.955,3.348-12.788,2.312c-0.8-0.44-1.122-1.288-0.035-1.2c3.734,0.918,4.467-6.706-0.646-2.631
		c-3.582,3.446-3.09,8.88-2.8,14.483c0.007,0.6-0.1,0.73-0.509,0.865c-0.81,0.288-1.679,0.37-2.529,0.24
		c-0.394-0.048-0.553-0.1-0.683-0.526c-0.593-2.9-0.524-10.317-0.5-14.026c-0.99,1.047-2.103,1.97-3.315,2.75
		c-2.114,1.2-3.837,1.784-5.271-0.058c0,0-1.265-1.487-1.81-2.182s-0.8-0.816-1.326-0.017c-0.508,0.729-1.169,1.459-1.9,2.393
		c-1.137,1.546-2.548,1.223-3.312,0.052c-0.527-0.63-1.339-1.716-1.988-2.632c-0.389-0.629-0.751-0.445-1.119,0.049
		c-0.577,0.782-1.341,1.615-2.043,2.41c-1.508,1.712-2.744,1.462-3.881-0.049c-0.715-0.966-1.088-1.444-2.022-2.8
		c-0.407-0.543-0.712-0.271-1.069,0.034c-0.175,0.148-2.244,1.9-3.294,2.734c-2.173,1.952-3.3,1.833-4.943-0.6
		c-0.27-0.509-0.484-0.174-0.643,0.017c-0.586,0.575-1.278,1.031-2.038,1.343c-4.5,1.765-6.842-0.924-6.607-2.6
		c0.061-0.492-0.346-0.091-0.5,0.06c-0.83,0.761-1.731,1.441-2.691,2.031c-2.76,1.527-4.093,0.873-4.781,0.007
		c-0.474-0.475-1.226-1.936-1.638-2.486c-0.434-0.579-0.67-0.579-1.162,0.075c-0.3,0.4-0.7,0.782-1.537,1.818
		c-1.979,2.52-4.292,1.716-4.715-1.4c-0.6-3.125-0.532-11.09-0.032-14.613 M42.833,118.939c0.358,0,0.5,0,0.487-0.324l-0.003-15.175
		c0.019-0.689,0.042-0.738-0.487-0.684c-12.839,1.331-15.239,14.378,0.008,16.166 M62.755,104.483
		c-2.028-0.678-4.109-1.189-6.221-1.528c-0.44-0.069-0.883-0.114-1.328-0.135c-0.532-0.02-0.505,0-0.49,0.683l-0.008,15.029
		c-0.007,0.322,0.074,0.336,0.649,0.281c3.96-0.465,7.839-1.459,11.534-2.958c0.455-0.248,0.965-0.408,0.407,0.264
		c-0.404,0.454-0.846,0.874-1.32,1.254c-9.833,7.916-22.976,5.966-29.628,3.182c-7.928-3.228-11.637-13.079-0.286-19.122
		c6.684-3.644,21.203-3.93,27.919,1.088c1.2,0.893,1.767,1.533,1.961,2.392c0.135,0.869-0.035,0.636-0.466,0.509
		c-0.273-0.088-0.91-0.309-1.143-0.4c-0.672-0.249-0.955-0.335-1.58-0.54"/>
	<path id="e" fill="#231815" d="M195.009,108.603c0.034-1.125,0.974-2.009,2.099-1.975c1.125,0.034,2.009,0.974,1.975,2.099
		c-0.033,1.097-0.93,1.971-2.028,1.976c-1.121,0.01-2.038-0.892-2.047-2.013C195.008,108.661,195.008,108.632,195.009,108.603
		 M197.055,111.118c1.386-0.022,2.491-1.162,2.47-2.548c-0.022-1.386-1.162-2.491-2.548-2.47c-1.368,0.021-2.467,1.134-2.47,2.502
		c-0.009,1.381,1.104,2.507,2.484,2.515C197.012,111.117,197.033,111.117,197.055,111.118 M196.523,108.802h0.505l0.762,1.254h0.493
		l-0.823-1.275c0.415-0.001,0.751-0.339,0.75-0.754c0-0.015,0-0.03-0.002-0.046c0-0.57-0.338-0.823-1.021-0.823h-1.1v2.895h0.437
		L196.523,108.802L196.523,108.802z M196.523,108.43v-0.9h0.6c0.3,0,0.63,0.068,0.63,0.425c0,0.444-0.331,0.472-0.7,0.472
		L196.523,108.43L196.523,108.43z"/>
</g>
</svg>
