<?xml version="1.0" encoding="utf-8"?>
<!-- Generator: Adobe Illustrator 26.2.1, SVG Export Plug-In . SVG Version: 6.00 Build 0)  -->
<svg version="1.1" id="a" xmlns="http://www.w3.org/2000/svg" xmlns:xlink="http://www.w3.org/1999/xlink" x="0px" y="0px"
	 width="230px" height="230px" viewBox="0 0 230 230" enable-background="new 0 0 230 230" xml:space="preserve">
<path id="b" fill="#221E1F" d="M68.123,126.838l3.5-8.268h10.458l3.519,8.268h2.008l-10.372-23.922h-0.763l-10.349,23.922H68.123z
	 M76.862,106.196l4.556,10.746h-9.13L76.862,106.196z"/>
<path id="c" fill="#221E1F" d="M85.188,127.47l-3.52-8.269h-9.624l-3.339,7.883l-0.163,0.386h-3.38l10.9-25.191h1.6l10.909,25.191
	C88.571,127.47,85.188,127.47,85.188,127.47z M68.126,126.838L68.126,126.838z M67.088,126.206h0.617l3.5-8.267h11.294l3.52,8.266
	h0.627l-9.793-22.589C76.853,103.616,67.088,126.206,67.088,126.206z M71.335,117.573l4.944-11.625l0.586-1.368l5.507,12.993
	C82.372,117.573,71.335,117.573,71.335,117.573z M73.245,116.311h7.221l-3.6-8.5L73.245,116.311z"/>
<path id="d" fill="#221E1F" d="M113.182,125.11c-1.353,0.687-2.774,1.233-4.239,1.629c-1.322,0.352-2.683,0.533-4.051,0.538
	c-1.316,0.007-2.626-0.173-3.891-0.535c-1.218-0.352-2.376-0.887-3.434-1.586c-1.705-1.091-3.1-2.604-4.051-4.391
	c-0.964-1.804-1.459-3.822-1.441-5.867c0-1.593,0.323-3.17,0.948-4.636c0.621-1.48,1.54-2.817,2.7-3.927
	c1.186-1.175,2.6-2.093,4.155-2.7c1.598-0.615,3.298-0.925,5.01-0.912c1.366,0.006,2.725,0.191,4.042,0.551
	c1.471,0.406,2.895,0.965,4.248,1.67v1.972c-1.416-0.776-2.906-1.41-4.447-1.892c-1.27-0.393-2.591-0.6-3.92-0.613
	c-2.138-0.012-4.232,0.603-6.023,1.77c-2.938,1.964-4.686,5.277-4.649,8.811c0.005,2.795,1.086,5.481,3.018,7.5
	c0.964,0.998,2.129,1.78,3.419,2.293c1.355,0.54,2.803,0.812,4.262,0.8c1.045-0.007,2.086-0.138,3.1-0.39
	c1.155-0.286,2.282-0.678,3.365-1.171v-6.393h-5v-1.692h6.882L113.182,125.11L113.182,125.11z"/>
<path id="e" fill="#221E1F" d="M100.826,127.348c-1.277-0.369-2.491-0.929-3.6-1.662c-1.796-1.15-3.266-2.742-4.269-4.623
	c-1.01-1.897-1.531-4.016-1.514-6.165c0.011-3.399,1.394-6.649,3.834-9.015c1.247-1.234,2.733-2.201,4.367-2.841
	c1.674-0.643,3.455-0.965,5.248-0.95c1.421,0.006,2.835,0.199,4.206,0.573c1.514,0.416,2.979,0.991,4.372,1.715l0.345,0.175v3.418
	l-0.93-0.5c-1.379-0.756-2.83-1.373-4.331-1.843c-1.211-0.376-2.471-0.574-3.739-0.587c-2.011-0.015-3.982,0.561-5.668,1.656
	c-2.764,1.847-4.409,4.965-4.372,8.289c0.005,2.632,1.022,5.161,2.84,7.064c0.902,0.934,1.993,1.665,3.2,2.145
	c1.281,0.51,2.649,0.765,4.028,0.751c0.993-0.007,1.982-0.132,2.946-0.371c0.986-0.244,1.951-0.568,2.884-0.97v-5.345h-5v-2.954
	h8.148V125.5l-0.351,0.176c-1.392,0.706-2.853,1.267-4.36,1.673c-1.374,0.367-2.79,0.554-4.212,0.559
	c-1.375,0.007-2.744-0.181-4.066-0.56 M100.104,104.216c-1.477,0.577-2.82,1.453-3.945,2.571c-2.2,2.124-3.445,5.049-3.451,8.107
	c-0.019,1.942,0.451,3.857,1.366,5.569c0.9,1.696,2.225,3.13,3.844,4.162c1.003,0.663,2.102,1.169,3.258,1.5
	c1.208,0.345,2.459,0.517,3.716,0.51c1.314-0.005,2.622-0.178,3.891-0.517c1.297-0.346,2.558-0.816,3.766-1.402v-8.146h-5.619v0.428
	h5v7.436l-0.374,0.166c-1.116,0.509-2.277,0.914-3.468,1.209c-1.061,0.263-2.15,0.4-3.243,0.407c-1.54,0.013-3.069-0.273-4.5-0.843
	c-1.371-0.546-2.611-1.377-3.636-2.439c-1.018-1.054-1.82-2.297-2.361-3.658c-0.552-1.361-0.836-2.816-0.835-4.284
	c-0.037-3.748,1.821-7.262,4.939-9.342c1.893-1.232,4.107-1.881,6.366-1.867c1.39,0.013,2.772,0.229,4.1,0.64
	c1.249,0.385,2.464,0.874,3.632,1.462v-0.553c-1.209-0.606-2.474-1.091-3.778-1.448c-1.266-0.345-2.572-0.522-3.884-0.528
	c-1.636-0.016-3.261,0.277-4.788,0.864"/>
<path id="f" fill="#221E1F" d="M128.859,126.837V104.79h-8.831v-1.691h19.729v1.691h-8.831v22.047
	C130.926,126.837,128.859,126.837,128.859,126.837z"/>
<path id="g" fill="#221E1F" d="M128.859,127.468v-0.631l0,0V127.468h-0.633v-22.046h-8.831v-2.954h20.993v2.954h-8.83v22.046
	H128.859z M130.293,126.206v-22.047h8.831v-0.428h-18.466v0.428h8.83v22.047L130.293,126.206L130.293,126.206z"/>
<path id="h" fill="#221E1F" d="M143.701,126.838l3.5-8.268h10.459l3.516,8.268h2.012l-10.374-23.922h-0.766l-10.346,23.922H143.701z
	 M152.44,106.196l4.556,10.746h-9.13L152.44,106.196z"/>
<path id="i" fill="#221E1F" d="M160.759,127.468l-3.516-8.267h-9.621l-3.339,7.883l-0.163,0.384h-3.38l10.9-25.189h1.595
	l10.919,25.189H160.759L160.759,127.468z M143.701,126.837L143.701,126.837z M142.662,126.206h0.62l3.5-8.268h11.293l3.52,8.266
	h0.627l-9.791-22.588L142.662,126.206z M146.912,117.573l4.946-11.626l0.582-1.368l5.51,12.994
	C157.95,117.573,146.912,117.573,146.912,117.573z M148.822,116.309h7.221l-3.6-8.5L148.822,116.309L148.822,116.309z"/>
<path id="j" fill="#221E1F" d="M187.768,125.11c-1.354,0.687-2.775,1.233-4.241,1.629c-1.322,0.352-2.684,0.533-4.052,0.538
	c-1.315,0.007-2.624-0.173-3.888-0.535c-1.219-0.352-2.378-0.886-3.436-1.586c-1.706-1.091-3.101-2.603-4.052-4.391
	c-0.962-1.805-1.457-3.822-1.441-5.867c0.011-3.229,1.326-6.317,3.645-8.563c1.187-1.174,2.601-2.092,4.155-2.7
	c1.601-0.615,3.303-0.923,5.017-0.908c1.367,0.006,2.727,0.191,4.045,0.551c1.471,0.406,2.894,0.966,4.248,1.67v1.968
	c-1.417-0.775-2.906-1.408-4.446-1.892c-1.27-0.393-2.591-0.599-3.921-0.613c-2.139-0.014-4.234,0.6-6.027,1.766
	c-2.938,1.964-4.686,5.278-4.648,8.811c0.007,2.794,1.088,5.479,3.018,7.5c0.964,0.998,2.129,1.78,3.418,2.293
	c1.356,0.54,2.805,0.812,4.265,0.8c1.045-0.007,2.086-0.138,3.1-0.39c1.155-0.286,2.282-0.678,3.365-1.171v-6.389h-5v-1.692h6.885
	L187.768,125.11L187.768,125.11z"/>
<path id="k" fill="#221E1F" d="M175.409,127.348c-1.277-0.368-2.491-0.929-3.6-1.662c-1.795-1.15-3.265-2.742-4.268-4.623
	c-1.011-1.897-1.531-4.016-1.515-6.165c0.011-3.399,1.394-6.649,3.834-9.015c1.247-1.234,2.733-2.201,4.367-2.841
	c1.674-0.643,3.455-0.965,5.248-0.95c1.421,0.006,2.835,0.197,4.206,0.571c1.514,0.417,2.979,0.992,4.372,1.717l0.345,0.175v3.418
	l-0.93-0.495c-1.378-0.757-2.828-1.374-4.328-1.844c-1.211-0.377-2.471-0.574-3.739-0.587c-2.011-0.015-3.983,0.561-5.67,1.656
	c-2.765,1.846-4.41,4.965-4.372,8.289c0.004,2.632,1.021,5.161,2.839,7.064c0.902,0.934,1.993,1.666,3.2,2.145
	c1.281,0.51,2.649,0.765,4.028,0.751c0.993-0.007,1.982-0.132,2.946-0.371c0.985-0.244,1.949-0.568,2.881-0.97v-5.349h-5v-2.956
	h8.145V125.5l-0.351,0.176c-1.392,0.707-2.853,1.267-4.36,1.673c-1.374,0.367-2.79,0.554-4.212,0.559
	C178.1,127.915,176.731,127.727,175.409,127.348 M174.688,104.216c-1.477,0.578-2.819,1.453-3.944,2.571
	c-2.198,2.125-3.443,5.049-3.452,8.107c-0.018,1.941,0.452,3.856,1.366,5.568c0.901,1.696,2.225,3.13,3.844,4.163
	c1.005,0.662,2.104,1.168,3.261,1.5c1.207,0.346,2.457,0.517,3.713,0.51c1.314-0.005,2.622-0.179,3.891-0.517
	c1.299-0.348,2.561-0.821,3.769-1.411v-8.146h-5.616v0.428h5.005v7.436l-0.375,0.166c-1.12,0.509-2.284,0.914-3.478,1.209
	c-1.06,0.263-2.148,0.4-3.24,0.407c-1.54,0.012-3.069-0.274-4.5-0.843c-1.371-0.546-2.61-1.378-3.636-2.439
	c-2.047-2.138-3.193-4.982-3.2-7.942c-0.037-3.749,1.821-7.263,4.94-9.343c1.895-1.23,4.109-1.878,6.368-1.866
	c1.39,0.013,2.772,0.229,4.1,0.64c1.249,0.385,2.464,0.875,3.632,1.462v-0.544c-1.21-0.605-2.476-1.09-3.78-1.448
	c-1.265-0.345-2.569-0.522-3.88-0.528C177.84,103.339,176.216,103.631,174.688,104.216"/>
<path id="l" fill="#221E1F" d="M53.381,114.916c0.22-0.034,0.422-0.07,0.422-0.07l0.012-0.027c0.007,0.005,0.013,0.011,0.018,0.017
	c1.314-0.366,2.486-1.12,3.365-2.163c0.779-1.047,1.178-2.328,1.129-3.632c0.091-1.71-0.665-3.356-2.023-4.4
	c-1.717-1.13-3.756-1.67-5.807-1.537h-8.266v23.734h1.88v-22.172h6.49c1.483-0.094,2.956,0.307,4.187,1.14
	c0.985,0.77,1.535,1.97,1.473,3.219c0.032,0.902-0.196,1.794-0.656,2.571c-0.478,0.726-1.165,1.29-1.97,1.617
	c-0.221,0.099-0.449,0.181-0.683,0.244l0,0l-0.027,0.007c-0.164,0.045-0.336,0.085-0.517,0.119
	c-0.262,0.044-0.826,0.059-0.826,0.059h-1.278l0.844,1.274l0,0l7.211,11.926h2.243L53.381,114.916L53.381,114.916z"/>
<path id="m" fill="#221E1F" d="M58.001,127.476l-7.468-12.347l-1.4-2.12h2.436c0,0,0.134,0,0.3-0.011s0.363-0.024,0.425-0.037
	c0.166-0.031,0.324-0.067,0.451-0.1h0.009l0.036-0.011h0.018c0.199-0.054,0.394-0.123,0.582-0.207
	c0.688-0.278,1.277-0.757,1.687-1.376c0.395-0.677,0.589-1.452,0.558-2.235c0.064-1.057-0.399-2.078-1.237-2.726
	c-1.12-0.747-2.457-1.102-3.8-1.009h-5.854v22.172h-3.142v-25h8.9c2.188-0.133,4.36,0.451,6.186,1.664
	c1.513,1.166,2.361,2.999,2.269,4.907c0.05,1.444-0.394,2.862-1.259,4.019c-0.873,1.054-2.03,1.838-3.333,2.257l7.354,12.16
	C61.719,127.476,58.001,127.476,58.001,127.476z M58.714,126.212h0.766l-6.639-10.97l0.541-0.327l0.053,0.335l-0.053-0.335
	l-0.541,0.327l-0.487-0.806l0.93-0.146c0.028-0.003,0.056-0.007,0.083-0.013l0.152-0.337c-0.131,0.045-0.262,0.086-0.4,0.125h-0.035
	c-0.178,0.049-0.368,0.092-0.573,0.13c-0.31,0.04-0.621,0.063-0.933,0.069h-0.1l0.564,0.852l-0.026,0.016
	C52.016,115.132,58.714,126.212,58.714,126.212z M42.864,126.212h0.615v-22.177h7.123c1.623-0.095,3.231,0.353,4.571,1.273
	c1.139,0.889,1.778,2.273,1.715,3.716c0.033,1.022-0.23,2.032-0.755,2.909c-0.541,0.831-1.322,1.479-2.239,1.857l-0.2,0.083
	l0.276,0.244c1.064-0.342,2.009-0.978,2.727-1.834c0.691-0.936,1.041-2.08,0.992-3.243c0.095-1.514-0.569-2.975-1.771-3.9
	c-1.606-1.044-3.508-1.539-5.42-1.409h-7.634L42.864,126.212L42.864,126.212z M53.48,115.539l-0.033-0.2L53.48,115.539z"/>
</svg>
