<?xml version="1.0" encoding="utf-8"?>
<!-- Generator: Adobe Illustrator 26.2.1, SVG Export Plug-In . SVG Version: 6.00 Build 0)  -->
<svg version="1.1" id="a" xmlns="http://www.w3.org/2000/svg" xmlns:xlink="http://www.w3.org/1999/xlink" x="0px" y="0px"
	 width="230px" height="230px" viewBox="0 0 230 230" enable-background="new 0 0 230 230" xml:space="preserve">
<g id="b">
	<path id="c" fill="#221714" d="M49.158,117.99c-0.084,0.983,0.324,1.945,1.09,2.567c1.151,0.634,2.452,0.943,3.765,0.893v0.989
		c-1.148-0.075-2.3-0.112-3.462-0.16c-1.153-0.03-2.309-0.045-3.466-0.046c-1.16,0-2.312,0.016-3.472,0.046
		c-1.16,0.048-2.319,0.085-3.474,0.16v-0.989c0.928-0.011,1.828-0.325,2.562-0.893c0.661-0.683,0.994-1.62,0.912-2.567v-9.822
		c0.086-0.951-0.247-1.891-0.912-2.576c-0.732-0.574-1.632-0.892-2.562-0.906v-0.984c0.659-0.009,1.317-0.052,1.972-0.13
		c0.833-0.066,1.719-0.163,2.612-0.256s1.774-0.219,2.579-0.335s1.436-0.2,1.856-0.264v3.473c0.568-0.462,1.129-0.927,1.683-1.394
		c0.559-0.457,1.144-0.88,1.752-1.268c0.586-0.379,1.21-0.694,1.862-0.942c0.687-0.239,1.409-0.363,2.137-0.368
		c0.998-0.111,1.978,0.329,2.557,1.15c0.543,1.038,0.788,2.205,0.71,3.374c-0.39,0.185-0.865,0.4-1.406,0.663
		c-0.545,0.241-1.093,0.5-1.641,0.74s-1.054,0.494-1.521,0.734c-0.491,0.247-0.86,0.459-1.175,0.625l-0.587-0.4
		c0.291-0.217,0.566-0.455,0.823-0.711c0.275-0.248,0.442-0.593,0.466-0.963c0.034-0.499-0.156-0.987-0.52-1.33
		c-0.4-0.282-0.88-0.427-1.369-0.413c-0.3,0.019-0.594,0.098-0.863,0.233c-0.369,0.152-0.726,0.331-1.069,0.536
		c-0.371,0.218-0.719,0.471-1.041,0.756c-0.295,0.241-0.564,0.513-0.8,0.812L49.158,117.99L49.158,117.99z"/>
	<path id="d" fill="#221714" d="M74.725,111.038c0.461,0.045,0.925-0.041,1.339-0.248c0.239-0.16,0.35-0.537,0.35-1.13
		c0.058-1.231-0.251-2.452-0.886-3.508c-0.721-0.959-1.889-1.472-3.082-1.355c-0.688-0.024-1.363,0.195-1.906,0.618
		c-0.517,0.431-0.939,0.964-1.239,1.567c-0.318,0.641-0.541,1.325-0.662,2.03c-0.126,0.668-0.19,1.346-0.194,2.026
		C68.445,111.038,74.725,111.038,74.725,111.038z M68.445,112.92c-0.082,1.869,0.542,3.7,1.749,5.13
		c1.276,1.381,3.103,2.117,4.979,2.007c1.175-0.001,2.335-0.259,3.4-0.754c1.087-0.482,2.047-1.209,2.806-2.124l1.186,1.295
		c-1.264,1.42-2.801,2.571-4.519,3.386c-3.075,1.386-6.563,1.552-9.756,0.465c-1.228-0.456-2.354-1.149-3.316-2.038
		c-0.937-0.885-1.664-1.969-2.126-3.172c-0.515-1.316-0.769-2.72-0.749-4.133c-0.023-1.415,0.231-2.822,0.749-4.139
		c0.456-1.209,1.183-2.297,2.126-3.181c0.958-0.889,2.084-1.578,3.312-2.027c1.397-0.499,2.873-0.743,4.357-0.72
		c1.435-0.027,2.86,0.234,4.192,0.767c1.16,0.49,2.205,1.216,3.068,2.134c0.856,0.927,1.519,2.015,1.952,3.2
		c0.469,1.257,0.768,2.571,0.887,3.908L68.445,112.92L68.445,112.92z"/>
	<path id="e" fill="#221714" d="M94.764,118.529c-0.125,0.927,0.303,1.842,1.096,2.339c0.782,0.398,1.65,0.596,2.527,0.576v0.992
		c-0.426-0.03-0.862-0.072-1.3-0.075c-0.424-0.024-0.875-0.036-1.38-0.039c-0.491-0.024-1.053-0.046-1.687-0.074
		c-0.612-0.011-1.362-0.018-2.221-0.018c-1.625,0-2.9,0.018-3.865,0.046c-0.962,0.049-1.82,0.085-2.579,0.16v-0.992
		c0.859,0.012,1.708-0.186,2.474-0.576c0.786-0.503,1.21-1.417,1.085-2.342V92.122c0.108-0.889-0.193-1.779-0.817-2.421
		c-0.786-0.506-1.718-0.735-2.649-0.652v-1c1.723-0.06,3.4-0.173,5.027-0.345c1.448-0.13,2.882-0.379,4.289-0.746V118.529z"/>
	<path id="f" fill="#221714" d="M122.086,118.774c-0.056,0.729,0.257,1.438,0.833,1.888c0.835,0.452,1.783,0.654,2.73,0.582v0.989
		c-1.771,0.068-3.5,0.133-5.128,0.227c-1.444,0.06-2.88,0.252-4.289,0.573v-2.924c-1.072,0.778-2.213,1.455-3.409,2.022
		c-1.256,0.61-2.638,0.918-4.034,0.9c-1.6,0.062-3.157-0.531-4.31-1.643c-1.179-1.348-1.765-3.114-1.626-4.9v-9.32
		c0-1.642-1.1-2.479-3.263-2.479v-0.985c1.607-0.067,3.23-0.127,4.854-0.222c1.434-0.051,2.859-0.24,4.256-0.565v13.23
		c-0.067,0.972,0.253,1.931,0.891,2.667c0.636,0.65,1.521,0.995,2.429,0.945c0.813,0.027,1.622-0.128,2.367-0.456
		c0.682-0.295,1.307-0.709,1.845-1.222v-10.913c0.059-0.731-0.258-1.442-0.842-1.886c-0.833-0.455-1.779-0.661-2.725-0.593v-0.985
		c1.771-0.067,3.5-0.127,5.132-0.222c1.444-0.051,2.881-0.24,4.289-0.565L122.086,118.774L122.086,118.774z"/>
	<path id="g" fill="#221714" d="M137.594,106.036c0.975-0.885,2.069-1.628,3.25-2.208c1.153-0.597,2.432-0.91,3.73-0.915
		c1.218-0.03,2.431,0.18,3.569,0.616c1.108,0.546,1.962,1.5,2.381,2.662c0.621-0.508,1.219-0.953,1.756-1.355
		c0.53-0.415,1.105-0.77,1.715-1.056c0.6-0.279,1.227-0.494,1.872-0.641c0.736-0.16,1.488-0.235,2.241-0.226
		c1.025-0.028,2.043,0.176,2.978,0.595c0.747,0.363,1.398,0.898,1.9,1.56c0.474,0.651,0.826,1.382,1.039,2.159
		c0.217,0.777,0.326,1.581,0.323,2.388v8.913c-0.015,0.499,0.085,0.995,0.293,1.449c0.183,0.354,0.447,0.66,0.77,0.893
		c0.307,0.223,0.659,0.377,1.031,0.451c0.373,0.079,0.753,0.121,1.135,0.125v0.989c-0.344-0.03-0.687-0.07-1.039-0.073
		c-0.359-0.023-0.795-0.035-1.273-0.038c-0.484-0.023-1.033-0.044-1.664-0.074c-0.618-0.011-1.356-0.018-2.231-0.018
		c-1.619,0-2.87,0.018-3.76,0.048s-1.574,0.082-2.037,0.155v-0.989c0.329-0.007,0.656-0.049,0.976-0.125
		c0.344-0.074,0.665-0.23,0.937-0.453c0.298-0.243,0.541-0.548,0.711-0.893c0.216-0.451,0.319-0.949,0.3-1.449v-8.381
		c0.1-1.104-0.267-2.2-1.01-3.022c-0.778-0.661-1.781-0.995-2.8-0.932c-0.668-0.005-1.331,0.125-1.948,0.382
		c-0.628,0.281-1.223,0.63-1.774,1.041v10.915c-0.024,0.501,0.08,0.999,0.3,1.449c0.169,0.351,0.419,0.656,0.728,0.893
		c0.259,0.221,0.568,0.376,0.9,0.451c0.309,0.077,0.626,0.119,0.944,0.125v0.989c-0.5-0.073-1.155-0.111-2.016-0.157
		c-0.833-0.028-2.1-0.046-3.823-0.046c-1.619,0-2.882,0.018-3.805,0.046c-0.9,0.046-1.6,0.084-2.1,0.157v-0.989
		c0.342-0.004,0.683-0.046,1.016-0.125c0.35-0.074,0.678-0.229,0.958-0.451c0.32-0.23,0.577-0.537,0.747-0.893
		c0.215-0.452,0.318-0.949,0.3-1.449v-8.831c-0.011-0.879-0.326-1.726-0.89-2.4c-0.631-0.765-1.592-1.179-2.581-1.112
		c-0.76,0.006-1.507,0.201-2.174,0.567c-0.686,0.345-1.32,0.785-1.882,1.308v10.468c-0.02,0.499,0.08,0.996,0.29,1.449
		c0.177,0.343,0.422,0.647,0.719,0.893c0.265,0.22,0.579,0.375,0.915,0.451c0.295,0.074,0.596,0.116,0.9,0.125v0.989
		c-0.463-0.073-1.12-0.111-1.956-0.157c-0.845-0.028-2.118-0.046-3.832-0.046c-1.631,0-2.9,0.018-3.82,0.046
		c-0.932,0.046-1.726,0.084-2.387,0.157v-0.989c0.4-0.003,0.8-0.045,1.192-0.125c0.389-0.068,0.758-0.223,1.078-0.454
		c0.325-0.229,0.587-0.536,0.762-0.893c0.218-0.451,0.321-0.949,0.3-1.449v-11.358c0-1.642-1.1-2.479-3.289-2.479v-0.984
		c1.622-0.068,3.247-0.128,4.869-0.223c1.437-0.05,2.865-0.24,4.265-0.567v3.121L137.594,106.036z"/>
	<path id="h" fill="#221714" d="M181.586,111.038c0.459,0.046,0.921-0.04,1.333-0.248c0.241-0.16,0.355-0.537,0.355-1.13
		c0.056-1.233-0.258-2.454-0.9-3.508c-0.713-0.963-1.882-1.479-3.074-1.355c-0.684-0.02-1.353,0.198-1.893,0.618
		c-0.525,0.424-0.949,0.959-1.243,1.567c-0.315,0.644-0.543,1.326-0.678,2.03c-0.121,0.669-0.184,1.347-0.188,2.026L181.586,111.038
		L181.586,111.038z M175.299,112.92c-0.076,1.867,0.545,3.696,1.742,5.13c1.28,1.378,3.109,2.114,4.987,2.007
		c1.175,0,2.335-0.257,3.4-0.754c1.085-0.482,2.044-1.209,2.8-2.124l1.18,1.295c-1.257,1.424-2.792,2.576-4.51,3.386
		c-3.077,1.386-6.566,1.552-9.761,0.465c-1.225-0.457-2.35-1.15-3.31-2.038c-0.935-0.889-1.665-1.971-2.138-3.171
		c-0.996-2.668-0.996-5.605,0-8.273c0.467-1.206,1.197-2.293,2.138-3.181c0.957-0.889,2.083-1.577,3.31-2.025
		c1.395-0.499,2.869-0.743,4.351-0.722c1.434-0.028,2.86,0.232,4.191,0.767c1.165,0.488,2.214,1.215,3.08,2.134
		c0.862,0.923,1.528,2.012,1.956,3.2c0.479,1.255,0.782,2.57,0.9,3.908L175.299,112.92L175.299,112.92z"/>
	<path id="i" fill="#221714" d="M44.162,134.192v0.363c-0.083,0.028-0.17,0.043-0.258,0.046c-0.334,0.029-0.661,0.111-0.97,0.242
		c-0.106,0.111-0.162,0.261-0.155,0.414c-0.033,0.209-0.033,1.366-0.033,3.5c0,1.134-0.012,1.806-0.021,2.036
		c-0.031,0.416-0.151,0.82-0.351,1.186c-0.201,0.32-0.484,0.581-0.82,0.755c-0.354,0.198-0.753,0.302-1.158,0.3
		c-0.426-0.021-0.848-0.088-1.259-0.2c0.068-0.72,0.099-1.443,0.092-2.166h0.478c-0.01,0.487,0.113,0.968,0.358,1.389
		c0.178,0.219,0.448,0.344,0.731,0.338c0.341,0.013,0.641-0.222,0.711-0.556c0.099-1.13,0.132-2.266,0.1-3.4
		c0-2.022-0.013-3.091-0.019-3.258c-0.002-0.111-0.036-0.22-0.1-0.311c-0.301-0.139-0.623-0.224-0.953-0.252
		c-0.094-0.023-0.2-0.03-0.327-0.069v-0.363c0.894,0.043,1.574,0.073,2.041,0.073c0.532,0,1.167-0.03,1.915-0.073"/>
	<path id="j" fill="#221714" d="M47.038,138.396c-0.076,1.082,0.239,2.155,0.889,3.024c0.554,0.654,1.372,1.025,2.229,1.012
		c0.562,0.01,1.113-0.155,1.577-0.472c0.481-0.344,0.845-0.828,1.043-1.385c0.244-0.634,0.366-1.309,0.36-1.989
		c0.023-0.788-0.132-1.572-0.454-2.292c-0.238-0.537-0.632-0.99-1.131-1.3c-0.449-0.268-0.964-0.405-1.487-0.394
		c-0.574-0.008-1.137,0.159-1.613,0.48c-0.498,0.327-0.869,0.814-1.053,1.38c-0.237,0.617-0.359,1.273-0.36,1.934 M45.715,138.584
		c-0.085-2.44,1.823-4.487,4.263-4.572c0.112-0.004,0.225-0.004,0.337,0.001c1.112-0.053,2.197,0.355,3,1.126
		c0.774,0.853,1.175,1.979,1.114,3.129c0.06,1.281-0.393,2.534-1.259,3.48c-0.871,0.872-2.068,1.339-3.3,1.286
		c-1.131,0.06-2.235-0.361-3.039-1.16c-0.792-0.906-1.194-2.088-1.12-3.289"/>
	<path id="k" fill="#221714" d="M55.808,134.555v-0.36c0.753,0.04,1.4,0.07,1.956,0.07c0.575,0,1.229-0.03,1.978-0.07v0.36
		c-0.121,0.039-0.226,0.043-0.283,0.064c-0.333,0.023-0.66,0.098-0.969,0.224c-0.094,0.117-0.139,0.265-0.127,0.414
		c-0.024,0.549-0.036,1.593-0.036,3.123c-0.011,0.697,0.018,1.394,0.087,2.087c0.048,0.341,0.186,0.662,0.4,0.932
		c0.241,0.265,0.54,0.47,0.874,0.6c0.388,0.136,0.796,0.203,1.207,0.2c0.542,0.029,1.08-0.105,1.545-0.384
		c0.38-0.246,0.657-0.621,0.78-1.056c0.17-0.849,0.235-1.715,0.195-2.58c0-1.712-0.02-2.708-0.031-3.008
		c-0.002-0.109-0.045-0.214-0.121-0.293c-0.298-0.12-0.609-0.205-0.927-0.254c-0.044-0.021-0.145-0.025-0.256-0.064v-0.36
		c0.807,0.04,1.415,0.07,1.825,0.07c0.457,0,1-0.03,1.58-0.07v0.36c-0.107,0.039-0.186,0.043-0.24,0.07
		c-0.317,0.034-0.626,0.118-0.916,0.248c-0.086,0.082-0.135,0.195-0.137,0.314c-0.077,0.95-0.106,1.902-0.087,2.855
		c0,1.208-0.021,1.978-0.061,2.316c-0.031,0.381-0.128,0.753-0.288,1.1c-0.161,0.297-0.376,0.563-0.632,0.783
		c-0.286,0.255-0.623,0.447-0.988,0.563c-0.499,0.153-1.017,0.232-1.539,0.233c-0.533,0.003-1.064-0.075-1.574-0.23
		c-0.402-0.112-0.774-0.315-1.085-0.594c-0.249-0.247-0.443-0.543-0.57-0.869c-0.149-0.478-0.215-0.978-0.195-1.479l0.031-2.781
		c0-1.024,0-1.606-0.006-1.727c-0.003-0.145-0.035-0.288-0.095-0.42c-0.038-0.056-0.092-0.101-0.154-0.129
		c-0.046-0.009-0.327-0.073-0.847-0.179c-0.099-0.016-0.196-0.039-0.291-0.07"/>
	<path id="l" fill="#221714" d="M69.42,138.284c0.328,0.049,0.659,0.071,0.99,0.066c0.592,0.05,1.179-0.131,1.64-0.506
		c0.371-0.35,0.568-0.847,0.538-1.357c0.021-0.451-0.154-0.888-0.48-1.2c-0.376-0.327-0.868-0.491-1.365-0.454
		c-0.23,0-0.642,0.015-1.278,0.051L69.42,138.284z M66.886,134.555v-0.36c1.069,0.04,1.937,0.07,2.582,0.07
		c0.373,0,0.721,0,1.042-0.025c0.435-0.005,0.728-0.025,0.9-0.025c0.653-0.049,1.299,0.159,1.8,0.58
		c0.406,0.405,0.619,0.964,0.585,1.536c0.01,0.391-0.079,0.778-0.26,1.124c-0.19,0.339-0.46,0.626-0.788,0.835
		c-0.329,0.203-0.688,0.352-1.064,0.442l2.031,2.642c0.142,0.21,0.304,0.407,0.483,0.587c0.122,0.09,0.257,0.163,0.4,0.215
		c0.378,0.125,0.762,0.228,1.152,0.308v0.356c-0.647-0.037-1.108-0.073-1.394-0.073c-0.35,0.006-0.7,0.03-1.048,0.073
		c-0.182-0.306-0.419-0.689-0.732-1.152c-0.324-0.444-0.512-0.725-0.6-0.819c-0.038-0.043-0.071-0.089-0.1-0.139l-1.357-1.842
		c-0.36-0.016-0.732-0.036-1.1-0.086l0.051,3.075c0.005,0.099,0.04,0.195,0.1,0.274c0.292,0.136,0.605,0.22,0.925,0.249
		c0.074,0.03,0.184,0.043,0.331,0.084v0.356c-0.731-0.037-1.367-0.073-1.949-0.073s-1.27,0.036-2,0.073v-0.356l0.254-0.054
		c0.341-0.037,0.675-0.129,0.987-0.271c0.096-0.103,0.149-0.239,0.146-0.38c0-0.132,0.008-1.165,0.018-3.129l-0.018-2.857
		c0.016-0.257,0.005-0.515-0.033-0.769c-0.02-0.061-0.06-0.114-0.113-0.151c-0.303-0.137-0.626-0.223-0.957-0.254
		c-0.068-0.021-0.165-0.025-0.284-0.064"/>
	<path id="m" fill="#221714" d="M76.729,134.555v-0.36c0.529,0.04,0.924,0.07,1.211,0.07c0.25,0,0.675-0.03,1.291-0.07l1.727,2.157
		c0.169,0.2,1.383,1.69,3.665,4.452c0.006-0.579,0.006-0.994,0.006-1.239c0-0.607-0.01-1.721-0.048-3.327
		c0.001-0.413-0.02-0.825-0.065-1.235c-0.023-0.067-0.069-0.124-0.13-0.16c-0.273-0.107-0.559-0.18-0.85-0.218
		c-0.066-0.027-0.161-0.031-0.293-0.07v-0.36c0.734,0.04,1.295,0.07,1.725,0.07s0.986-0.03,1.719-0.07v0.36
		c-0.079,0.03-0.163,0.045-0.248,0.043c-0.306,0.058-0.607,0.14-0.9,0.245c-0.047,0.026-0.094,0.036-0.107,0.09
		c-0.055,0.119-0.089,0.247-0.1,0.378c0,0.073-0.012,0.637-0.028,1.656v2.994c0,1.135,0,2.105,0.043,2.879l-0.388,0.193
		l-2.539-3.165l-3.343-4.005l0.035,3.6c0.026,1.567,0.048,2.415,0.066,2.529c0.018,0.072,0.058,0.137,0.115,0.185
		c0.284,0.143,0.593,0.229,0.91,0.254c0.092,0.008,0.182,0.026,0.27,0.054v0.356c-0.626-0.037-1.147-0.073-1.575-0.073
		c-0.359,0-0.977,0.036-1.863,0.073v-0.356c0.143-0.041,0.245-0.054,0.321-0.084c0.297-0.017,0.587-0.093,0.854-0.224
		c0.049-0.051,0.082-0.115,0.093-0.185c0.042-0.2,0.063-0.9,0.088-2.124c0.008-1.738,0.033-2.77,0.033-3.1
		c0.019-0.563,0-1.127-0.058-1.687c-0.015-0.09-0.073-0.168-0.156-0.208c-0.375-0.122-0.761-0.205-1.153-0.248
		C76.973,134.598,76.883,134.594,76.729,134.555"/>
	<path id="n" fill="#221714" d="M90.033,139.494c0.564,0.024,0.963,0.028,1.217,0.028c0.071,0,0.684,0,1.841-0.028l-1.526-3.647
		C91.565,135.847,90.033,139.494,90.033,139.494z M91.633,134.058h0.391c0.55,1.392,1.228,3,2.012,4.791l1.423,3.091
		c0.049,0.102,0.125,0.188,0.221,0.248c0.285,0.128,0.582,0.228,0.886,0.3v0.355c-0.732-0.033-1.28-0.071-1.628-0.071
		s-0.968,0.038-1.843,0.071v-0.355c0.304-0.03,0.6-0.114,0.875-0.248c0.076-0.041,0.124-0.12,0.126-0.206
		c-0.018-0.148-0.061-0.293-0.126-0.427l-0.632-1.488c-0.845-0.015-1.478-0.021-1.871-0.021l-1.68,0.021l-0.636,1.53
		c-0.068,0.148-0.124,0.301-0.165,0.459c-0.007,0.056,0.026,0.109,0.079,0.128c0.227,0.095,0.465,0.162,0.708,0.2
		c0.07,0.014,0.138,0.031,0.206,0.052v0.355c-0.708-0.033-1.2-0.071-1.479-0.071c-0.373,0-0.833,0.038-1.39,0.071v-0.355
		c0.265-0.047,0.52-0.14,0.753-0.275c0.132-0.113,0.244-0.248,0.328-0.4c0.236-0.39,0.817-1.675,1.761-3.866L91.633,134.058
		L91.633,134.058z"/>
	<path id="o" fill="#221714" d="M98.149,134.555v-0.36c0.992,0.04,1.665,0.07,2.018,0.07c0.218,0,0.933-0.03,2.11-0.07v0.36
		c-0.734,0.124-1.158,0.2-1.294,0.249c-0.074,0.024-0.139,0.069-0.188,0.129c-0.087,0.164-0.124,0.349-0.109,0.533
		c0,0.267-0.009,1.773-0.009,4.518c0,0.54,0.006,1.26,0.018,2.149h2.685c0.263,0.017,0.527-0.002,0.784-0.057
		c0.151-0.075,0.28-0.188,0.375-0.327c0.27-0.404,0.514-0.824,0.731-1.259h0.524l-0.5,1.354c-0.079,0.241-0.179,0.586-0.288,1
		c-1.7-0.037-3.157-0.073-4.4-0.073c-0.872,0-1.69,0.036-2.455,0.073v-0.356c0.369-0.05,0.734-0.128,1.092-0.233
		c0.09-0.037,0.168-0.098,0.227-0.175c0.048-0.213,0.065-0.433,0.05-0.651l0.032-3.729l-0.017-2.4
		c0.016-0.133-0.01-0.267-0.074-0.385c-0.285-0.143-0.596-0.228-0.914-0.251l-0.4-0.1"/>
	<path id="p" fill="#221714" d="M117.529,136.525h-0.469c-0.063-0.396-0.18-0.782-0.347-1.147c-0.147-0.247-0.362-0.446-0.62-0.573
		c-0.291-0.135-0.609-0.204-0.93-0.2c-0.418-0.022-0.828,0.122-1.141,0.4c-0.28,0.252-0.439,0.612-0.435,0.989
		c-0.003,0.326,0.12,0.641,0.344,0.879c0.511,0.409,1.087,0.728,1.705,0.943c0.696,0.262,1.327,0.672,1.851,1.2
		c0.303,0.401,0.467,0.89,0.466,1.392c0.008,0.464-0.12,0.919-0.37,1.31c-0.258,0.421-0.635,0.756-1.084,0.963
		c-0.488,0.237-1.024,0.359-1.566,0.357c-0.384-0.009-0.766-0.049-1.143-0.12c-0.467-0.094-0.926-0.222-1.374-0.383
		c0.061-0.571,0.078-1.33,0.078-2.272h0.473c0.076,0.448,0.218,0.882,0.421,1.289c0.159,0.251,0.384,0.454,0.649,0.588
		c0.296,0.161,0.627,0.244,0.964,0.242c0.455,0.005,0.898-0.142,1.259-0.418c0.357-0.256,0.562-0.675,0.546-1.114
		c0.003-0.387-0.136-0.762-0.391-1.053c-0.499-0.444-1.075-0.793-1.7-1.029c-0.669-0.224-1.28-0.592-1.791-1.078
		c-0.279-0.353-0.433-0.79-0.438-1.24c0.002-0.428,0.13-0.845,0.369-1.2c0.253-0.397,0.619-0.711,1.05-0.9
		c0.45-0.218,0.943-0.333,1.443-0.336c0.746,0.034,1.482,0.182,2.184,0.437c-0.009,0.587-0.039,0.939-0.039,1.06
		c0,0.257,0.03,0.586,0.039,1.013"/>
	<path id="q" fill="#221714" d="M120.402,136.568h-0.481c0.081-0.695,0.156-1.489,0.212-2.378c1.8,0.045,3.08,0.074,3.841,0.074
		c0.645,0,1.795-0.029,3.492-0.074c0.048,0.925,0.116,1.715,0.176,2.378h-0.456c-0.098-0.436-0.222-0.866-0.373-1.287
		c-0.036-0.128-0.127-0.233-0.248-0.287c-0.263-0.082-0.539-0.11-0.813-0.084h-1.339c-0.041,1.08-0.053,2.414-0.053,4
		c0,1.481,0.012,2.495,0.053,3.005c-0.009,0.095,0.021,0.19,0.084,0.262c0.326,0.119,0.663,0.204,1.007,0.254
		c0.088,0.009,0.175,0.028,0.259,0.057v0.354c-0.812-0.037-1.523-0.073-2.147-0.073s-1.21,0.036-1.846,0.073v-0.354
		c0.146-0.042,0.251-0.057,0.322-0.072c0.331-0.038,0.657-0.119,0.968-0.239c0.04-0.037,0.066-0.086,0.075-0.14
		c0.042-0.451,0.06-0.903,0.054-1.356c0.015-1.288,0.024-2.263,0.024-2.879c0-1.085-0.009-2.055-0.024-2.889h-1.703
		c-0.159-0.015-0.32,0.008-0.469,0.066c-0.143,0.118-0.248,0.275-0.3,0.453c-0.126,0.374-0.23,0.754-0.314,1.139"/>
	<path id="r" fill="#221714" d="M131.186,139.494c0.564,0.024,0.969,0.028,1.213,0.028c0.068,0,0.7,0,1.868-0.028l-1.54-3.645
		L131.186,139.494z M132.799,134.058h0.387c0.544,1.392,1.214,3,2.019,4.791l1.425,3.091c0.04,0.107,0.119,0.196,0.221,0.248
		c0.285,0.129,0.582,0.23,0.887,0.3v0.351c-0.74-0.033-1.283-0.071-1.634-0.071s-0.967,0.038-1.829,0.071v-0.351
		c0.297-0.032,0.586-0.117,0.853-0.251c0.072-0.045,0.116-0.122,0.119-0.207c-0.015-0.148-0.056-0.292-0.119-0.427l-0.631-1.488
		c-0.845-0.015-1.478-0.021-1.86-0.021l-1.669,0.021l-0.652,1.53c-0.063,0.15-0.113,0.305-0.149,0.463
		c-0.005,0.054,0.024,0.106,0.074,0.129c0.225,0.097,0.462,0.162,0.705,0.195c0.062,0.013,0.123,0.032,0.182,0.056v0.351
		c-0.672-0.033-1.173-0.071-1.463-0.071c-0.353,0-0.819,0.038-1.386,0.071v-0.351c0.269-0.051,0.529-0.145,0.768-0.279
		c0.123-0.115,0.224-0.25,0.3-0.4c0.242-0.39,0.822-1.675,1.771-3.866L132.799,134.058z"/>
	<path id="s" fill="#221714" d="M138.977,134.555v-0.36c0.508,0.04,0.911,0.07,1.219,0.07c0.227,0,0.651-0.03,1.278-0.07
		l1.729,2.157c0.153,0.2,1.371,1.69,3.659,4.452c0.006-0.579,0.006-0.992,0.006-1.239c0-0.607-0.021-1.721-0.06-3.327
		c-0.011-0.759-0.029-1.147-0.047-1.235c-0.03-0.065-0.078-0.121-0.138-0.16c-0.277-0.11-0.567-0.183-0.863-0.218
		c-0.051-0.027-0.152-0.031-0.275-0.07v-0.36c0.714,0.04,1.294,0.07,1.721,0.07c0.409,0,0.988-0.03,1.714-0.07v0.36
		c-0.078,0.028-0.159,0.043-0.242,0.043c-0.309,0.055-0.613,0.137-0.908,0.245c-0.053,0.026-0.089,0.036-0.107,0.09
		c-0.056,0.118-0.085,0.247-0.084,0.378c0,0.073-0.015,0.637-0.027,1.656c-0.012,1.036-0.012,2.025-0.012,2.994
		c0,1.135,0.012,2.105,0.042,2.879l-0.385,0.193l-2.545-3.165l-3.327-4.005l0.032,3.6c0.009,1.567,0.039,2.415,0.057,2.529
		c0.021,0.07,0.059,0.134,0.111,0.185c0.286,0.14,0.594,0.226,0.911,0.254c0.094,0.009,0.188,0.029,0.278,0.058v0.352
		c-0.631-0.037-1.141-0.073-1.575-0.073c-0.355,0-0.982,0.036-1.875,0.073v-0.353c0.146-0.045,0.254-0.058,0.322-0.088
		c0.296-0.02,0.585-0.096,0.852-0.224c0.048-0.051,0.08-0.116,0.092-0.185c0.067-0.706,0.097-1.415,0.09-2.124
		c0.018-1.738,0.032-2.77,0.032-3.1c0.015-0.563,0.002-1.126-0.041-1.687c-0.028-0.089-0.09-0.164-0.173-0.208
		c-0.372-0.121-0.755-0.204-1.144-0.248C139.225,134.597,139.108,134.593,138.977,134.555"/>
	<path id="t" fill="#221714" d="M153.132,142.122c0.547,0.067,1.097,0.106,1.648,0.115c0.591,0.022,1.179-0.09,1.721-0.328
		c0.629-0.32,1.147-0.822,1.485-1.441c0.352-0.722,0.52-1.519,0.49-2.322c0.005-0.442-0.046-0.883-0.152-1.312
		c-0.091-0.343-0.245-0.665-0.454-0.952c-0.286-0.35-0.653-0.625-1.069-0.8c-0.606-0.229-1.253-0.327-1.9-0.287
		c-0.511,0-1.093,0.039-1.765,0.075c-0.024,1.095-0.042,2.3-0.042,3.653c0,1.429,0.018,2.618,0.042,3.59 M150.536,134.546v-0.36
		c0.786,0.04,1.676,0.07,2.62,0.07l2.712-0.05c0.753-0.028,1.503,0.112,2.195,0.41c0.571,0.261,1.031,0.715,1.3,1.282
		c0.321,0.625,0.479,1.321,0.46,2.023c0.036,1.329-0.495,2.61-1.46,3.524c-1.06,0.962-2.46,1.461-3.889,1.386
		c-0.087,0-0.457-0.007-1.114-0.037s-1.025-0.036-1.144-0.036c-0.389,0-0.962,0.033-1.679,0.073v-0.343
		c0.639-0.133,1.028-0.216,1.093-0.225c0.058-0.021,0.112-0.051,0.162-0.087c0.035-0.036,0.056-0.083,0.062-0.133
		c0.044-0.342,0.059-0.687,0.045-1.032c0.03-1.344,0.054-2.294,0.054-2.882l-0.054-2.678l0.018-0.208
		c0.02-0.152-0.047-0.303-0.173-0.391c-0.394-0.129-0.798-0.23-1.207-0.3"/>
	<path id="u" fill="#221714" d="M163.469,139.494c0.556,0.024,0.971,0.028,1.213,0.028c0.075,0,0.69,0,1.87-0.028l-1.545-3.645
		L163.469,139.494z M165.086,134.058h0.385c0.541,1.392,1.216,3,2.005,4.791l1.421,3.091c0.048,0.1,0.123,0.186,0.215,0.248
		c0.292,0.123,0.593,0.223,0.9,0.3v0.351c-0.752-0.033-1.3-0.071-1.645-0.071c-0.368,0-0.962,0.038-1.819,0.071v-0.351
		c0.298-0.034,0.588-0.119,0.857-0.251c0.076-0.042,0.124-0.12,0.128-0.207c-0.019-0.148-0.062-0.293-0.128-0.427l-0.621-1.488
		c-0.867-0.015-1.5-0.021-1.882-0.021l-1.673,0.021l-0.639,1.53c-0.073,0.147-0.126,0.302-0.158,0.463
		c-0.006,0.053,0.021,0.104,0.068,0.129c0.232,0.094,0.475,0.159,0.723,0.195c0.042,0.013,0.09,0.022,0.183,0.056v0.351
		c-0.7-0.033-1.18-0.071-1.464-0.071c-0.373,0-0.827,0.038-1.383,0.071v-0.351c0.262-0.051,0.513-0.145,0.744-0.279
		c0.132-0.112,0.242-0.248,0.325-0.4c0.236-0.39,0.822-1.675,1.763-3.866L165.086,134.058L165.086,134.058z"/>
	<path id="v" fill="#221714" d="M174.043,138.284c0.321,0.049,0.645,0.071,0.97,0.066c0.593,0.056,1.184-0.126,1.643-0.506
		c0.367-0.352,0.56-0.849,0.526-1.357c0.029-0.447-0.136-0.884-0.454-1.2c-0.382-0.325-0.877-0.487-1.377-0.452
		c-0.215,0-0.651,0.013-1.281,0.049L174.043,138.284L174.043,138.284z M171.477,134.555v-0.36c1.081,0.042,1.938,0.07,2.593,0.07
		c0.385,0,0.728,0,1.054-0.025c0.421,0,0.726-0.025,0.887-0.025c0.653-0.05,1.299,0.158,1.8,0.58c0.412,0.402,0.631,0.962,0.6,1.537
		c0.009,0.392-0.087,0.78-0.277,1.123c-0.181,0.346-0.454,0.635-0.789,0.835c-0.325,0.203-0.681,0.352-1.054,0.442l2.031,2.642
		c0.144,0.209,0.306,0.405,0.484,0.587c0.12,0.087,0.25,0.159,0.388,0.215c0.376,0.125,0.759,0.229,1.147,0.312v0.352
		c-0.642-0.037-1.111-0.073-1.392-0.073c-0.351,0.007-0.702,0.031-1.051,0.073c-0.18-0.306-0.419-0.689-0.738-1.152
		c-0.311-0.444-0.5-0.725-0.576-0.819c-0.027-0.037-0.069-0.088-0.108-0.139l-1.34-1.842c-0.368-0.016-0.732-0.036-1.093-0.086
		l0.041,3.075c-0.003,0.102,0.036,0.201,0.108,0.274c0.286,0.138,0.595,0.222,0.911,0.249c0.078,0.03,0.185,0.043,0.352,0.088v0.352
		c-0.74-0.037-1.391-0.073-1.956-0.073c-0.606,0-1.281,0.036-2.022,0.073v-0.352l0.269-0.058c0.341-0.035,0.675-0.127,0.986-0.271
		c0.094-0.104,0.146-0.24,0.146-0.38c0-0.132,0.015-1.165,0.015-3.129l-0.012-2.857c0.011-0.257-0.001-0.514-0.036-0.769
		c-0.012-0.069-0.06-0.126-0.125-0.151c-0.295-0.136-0.611-0.222-0.935-0.254C171.725,134.598,171.614,134.594,171.477,134.555"/>
	<path id="w" fill="#221714" d="M184.171,142.122c0.553,0.067,1.11,0.106,1.667,0.115c0.586,0.02,1.169-0.092,1.706-0.328
		c0.626-0.319,1.14-0.82,1.475-1.437c0.357-0.721,0.531-1.518,0.508-2.322c0.01-0.444-0.048-0.886-0.173-1.312
		c-0.088-0.344-0.244-0.668-0.457-0.952c-0.272-0.359-0.639-0.636-1.058-0.8c-0.606-0.23-1.253-0.328-1.9-0.287
		c-0.484,0-1.076,0.039-1.766,0.075c-0.024,1.095-0.029,2.3-0.029,3.653c0,1.429,0,2.618,0.029,3.59 M181.581,134.55v-0.36
		c0.8,0.042,1.666,0.07,2.616,0.07l2.721-0.05c0.757-0.026,1.511,0.114,2.208,0.41c0.565,0.264,1.019,0.717,1.284,1.282
		c0.313,0.628,0.467,1.322,0.451,2.023c0.044,1.327-0.481,2.609-1.443,3.524c-1.062,0.959-2.462,1.458-3.891,1.386
		c-0.093,0-0.475-0.007-1.126-0.037s-1.031-0.036-1.13-0.036c-0.406,0-0.958,0.033-1.69,0.073v-0.347
		c0.66-0.133,1.03-0.216,1.111-0.225c0.054-0.03,0.12-0.069,0.149-0.087c0.034-0.038,0.059-0.084,0.072-0.133
		c0.009-0.082,0.024-0.436,0.039-1.032c0.021-1.344,0.033-2.294,0.033-2.882l-0.033-2.678v-0.208c0-0.2-0.054-0.331-0.173-0.391
		c-0.391-0.132-0.793-0.232-1.2-0.3"/>
</g>
</svg>
