<?xml version="1.0" encoding="utf-8"?>
<!-- Generator: Adobe Illustrator 26.2.1, SVG Export Plug-In . SVG Version: 6.00 Build 0)  -->
<svg version="1.1" id="a" xmlns="http://www.w3.org/2000/svg" xmlns:xlink="http://www.w3.org/1999/xlink" x="0px" y="0px"
	 width="230px" height="230px" viewBox="0 0 230 230" enable-background="new 0 0 230 230" xml:space="preserve">
<g>
	<path d="M44.092,102.77v0.291c1.925,0,3.488,1.558,3.494,3.483v16.659L36.203,102.77h-8.711v0.291
		c1.931,0.003,3.495,1.569,3.495,3.5v16.884c0,1.931-1.564,3.497-3.495,3.5v0.291h8.445v-0.291c-1.93,0-3.494-1.564-3.494-3.494
		v-16.66l11.386,20.44h5.213v-20.674c0-1.931,1.564-3.497,3.495-3.5v-0.287h-0.293H44.092z"/>
	<path d="M198.722,104.228c1.928,0,3.491,1.561,3.494,3.489h0.292v-4.947h-20.969v0.291c1.928,0,3.492,1.562,3.494,3.49v20.681
		h17.473v-4.951h-0.29c0.003,1.93-1.558,3.497-3.488,3.5h-8.451v-11.118h4.948c1.931,0.003,3.495,1.569,3.495,3.5h0.291v-8.446
		h-0.295c0,1.93-1.564,3.494-3.494,3.494h-4.949v-8.983H198.722z"/>
	<path d="M162.031,125.775h-8.451v-19.221c0.004-1.928,1.567-3.49,3.495-3.493v-0.291h-12.228v0.291c1.933,0,3.5,1.567,3.5,3.5
		v20.67h17.469v-4.95h-0.291C165.525,124.211,163.961,125.775,162.031,125.775z"/>
	<path d="M80.2,102.418v-0.001c-6.851,0.098-12.326,5.729-12.231,12.58c-0.193,6.755,5.126,12.388,11.881,12.581
		s12.388-5.126,12.581-11.881c0.007-0.233,0.007-0.466,0-0.699C92.526,108.147,87.051,102.516,80.2,102.418z M80.2,126.157v-0.007
		c-4.792,0-6.989-4.987-6.989-11.139c0-6.152,2.2-11.138,6.989-11.138s6.989,4.991,6.989,11.145S84.989,126.157,80.2,126.157z"/>
	<path d="M123.13,113.655c2.691-0.678,4.21-2.144,4.21-5.188c0-4.922-3.96-5.693-10.448-5.7h-8.736v0.291
		c1.927,0,3.49,1.559,3.494,3.486v20.688h6.989c7.628,0,10.483-2.008,10.483-6.954C129.122,116.462,127.411,114.401,123.13,113.655z
		 M116.892,104.223c3.4,0.009,6.115,0.69,6.115,4.246c0,3.556-2.719,4.556-6.115,4.565V104.223z M118.639,125.778v-0.002h-1.747
		v-11.288h1.747c3.786,0,6.15,2.211,6.15,5.79C124.789,123.857,122.425,125.778,118.639,125.778z"/>
</g>
</svg>
