<?xml version="1.0" encoding="utf-8"?>
<!-- Generator: Adobe Illustrator 26.2.1, SVG Export Plug-In . SVG Version: 6.00 Build 0)  -->
<svg version="1.1" id="a" xmlns="http://www.w3.org/2000/svg" xmlns:xlink="http://www.w3.org/1999/xlink" x="0px" y="0px"
	 width="230px" height="230px" viewBox="0 0 230 230" enable-background="new 0 0 230 230" xml:space="preserve">
<path id="b" fill="#231815" d="M26.117,105.155c-0.986,0-2.072-0.022-3.52-0.07c-0.053,0.091-0.078,0.195-0.072,0.3
	c-0.007,0.108,0.021,0.215,0.079,0.306l0.806,0.137c1.114,0.177,1.24,0.446,1.24,2.618v8.748c0.01,1.527-0.057,3.054-0.2,4.575
	v0.039c-0.1,0.875-0.217,1.962-0.814,1.962c-0.265,0-0.6-0.249-1.037-0.6c-0.292-0.287-0.663-0.481-1.065-0.559
	c-0.212,0.008-0.41,0.106-0.544,0.27c-0.318,0.353-0.509,0.801-0.544,1.274v0.239c0,0.281,0,0.47,0.057,0.531
	c0.046,0.05,0.17,0.063,0.375,0.056c2.826-0.115,5.5-1.687,6.224-3.654c0.403-1.449,0.572-2.953,0.5-4.455v-8.426
	c0-2.166,0.118-2.412,1.237-2.643l0.548-0.11c0.056-0.093,0.083-0.2,0.076-0.308c0.005-0.104-0.019-0.208-0.069-0.3
	C28.262,105.132,27.16,105.155,26.117,105.155"/>
<path id="c" fill="#231815" d="M35.135,107.068c-2.982-0.022-5.417,2.378-5.439,5.361c0,0.1,0.001,0.2,0.006,0.299
	c-0.213,2.819,1.9,5.276,4.718,5.489c0.187,0.014,0.375,0.018,0.563,0.011c3.271,0,5.493-2.114,5.493-5.63
	c0.194-2.858-1.966-5.331-4.823-5.525c-0.172-0.012-0.345-0.015-0.518-0.009 M35.273,117.485c-2.482,0-3.135-3.162-3.135-5.131
	c0-2.695,1-4.548,2.876-4.548s3.028,2.244,3.028,5c0,2.615-0.776,4.68-2.769,4.68"/>
<path id="d" fill="#231815" d="M50.081,107.324c-0.624,0-1.218-0.014-2.038-0.047c-0.107,0.167-0.107,0.38,0,0.547l0.411,0.082
	c0.409,0.079,0.744,0.177,0.88,0.515c0.2,0.971,0.277,1.964,0.229,2.954v1.95c0,2.212-0.592,4.018-2.538,4.018
	c-2.315,0-2.513-2.08-2.513-3.969v-3.725c0-1.5,0.091-1.629,0.777-1.757l0.363-0.068c0.123-0.162,0.123-0.385,0-0.547
	c-0.73,0.033-1.475,0.047-2.222,0.047c-0.727,0-1.49-0.014-2.22-0.047c-0.153,0.146-0.165,0.386-0.029,0.547l0.38,0.082
	c0.683,0.146,0.776,0.244,0.776,1.743v4.031c0,1.759,0.333,2.954,1.126,3.647c0.859,0.661,1.931,0.981,3.012,0.9
	c1.124,0.056,2.219-0.368,3.013-1.166c0.773-1.139,1.118-2.514,0.974-3.883v-1.803c-0.047-0.99,0.029-1.982,0.226-2.954
	c0.138-0.338,0.427-0.436,0.823-0.529l0.271-0.068c0.109-0.166,0.109-0.381,0-0.547c-0.575,0.033-1.137,0.047-1.7,0.047"/>
<path id="e" fill="#231815" d="M61.658,117.055c-0.731-0.664-1.353-1.872-2.356-4.034c-0.078-0.178-0.078-0.275,0.074-0.355
	c0.982-0.4,1.621-1.359,1.613-2.42c0.028-0.982-0.486-1.9-1.337-2.391c-0.93-0.442-1.957-0.641-2.985-0.58
	c-1.443,0-2.632,0.062-3.773,0.144c-0.163,0.132-0.188,0.372-0.056,0.535c0.008,0.01,0.017,0.019,0.026,0.028l0.41,0.065
	c0.639,0.1,0.671,0.277,0.671,1.889v5.71c0,1.485-0.092,1.6-0.776,1.728l-0.411,0.081c-0.121,0.168-0.121,0.395,0,0.563
	c0.789-0.031,1.459-0.048,2.223-0.048c0.727,0,1.428,0.017,2.236,0.048c0.105-0.173,0.105-0.39,0-0.563l-0.412-0.081
	c-0.683-0.129-0.776-0.243-0.776-1.728v-1.979c0-0.324,0.03-0.356,0.562-0.356c0.369-0.032,0.709,0.206,0.805,0.564
	c0.34,0.859,0.737,1.694,1.189,2.5c0.552,1.107,1.715,1.775,2.95,1.694c0.405,0.02,0.811-0.028,1.2-0.144
	c0.088-0.136,0.062-0.316-0.062-0.42c-0.379-0.039-0.736-0.197-1.019-0.451 M58.122,112.148c-0.293,0.322-0.718,0.489-1.152,0.453
	c-0.9,0-0.945-0.05-0.945-0.614v-3.143c0-0.777,0.03-0.823,0.653-0.823c1.189,0,2,0.935,2,2.385
	c0.051,0.631-0.147,1.257-0.552,1.743"/>
<path id="f" fill="#231815" d="M74.236,107.841c0.106-0.173,0.106-0.39,0-0.563c-0.592,0.032-1.138,0.046-1.7,0.046
	c-0.622,0-1.214-0.014-2.037-0.046c-0.109,0.172-0.109,0.391,0,0.563l0.41,0.065c0.413,0.065,0.745,0.177,0.883,0.515
	c0.197,0.972,0.273,1.964,0.226,2.954v2.225c0.016,0.244-0.004,0.488-0.059,0.726c-0.35-0.37-0.791-0.935-1.46-1.773l-1.28-1.6
	c-1.367-1.724-2.358-2.952-2.509-3.676c-0.321,0.032-0.762,0.046-1.279,0.046c-0.623,0-1.384-0.014-2.1-0.046
	c-0.153,0.046-0.17,0.437-0.062,0.563l0.425,0.065c0.535,0.08,0.747,0.276,0.868,0.55c0.116,0.447,0.152,0.911,0.106,1.37v4.1
	c0.05,0.989-0.022,1.98-0.213,2.951c-0.12,0.339-0.425,0.452-0.836,0.532l-0.257,0.051c-0.11,0.17-0.11,0.389,0,0.559
	c0.577-0.028,1.137-0.045,1.7-0.045c0.607,0,1.216,0.017,2.041,0.045c0.104-0.172,0.104-0.387,0-0.559l-0.428-0.065
	c-0.4-0.066-0.746-0.179-0.881-0.518c-0.2-0.97-0.277-1.962-0.23-2.951v-3.131c-0.034-0.346-0.009-0.695,0.075-1.032
	c0.594,0.655,1.149,1.345,1.662,2.065l3.516,4.612c0.715,0.938,1.216,1.76,1.232,1.76c0.339,0.011,0.667-0.125,0.9-0.372
	c-0.035-0.531-0.035-1.546-0.035-2.6v-3.852c-0.045-0.99,0.031-1.982,0.228-2.954c0.152-0.319,0.471-0.524,0.824-0.529
	L74.236,107.841L74.236,107.841z"/>
<path id="g" fill="#231815" d="M83.474,117.355c-0.561-0.1-0.7-0.466-1.02-1.435l-2.069-6.324c-0.379-1.144-0.559-1.742-0.683-2.21
	c-0.062-0.239-0.152-0.321-0.349-0.321c-0.346,0.435-0.803,0.769-1.323,0.966c-0.068,0.711-0.26,1.404-0.566,2.049l-1.382,3.937
	c-0.413,1.162-0.7,1.937-0.96,2.581c-0.259,0.628-0.563,0.757-0.928,0.806l-0.412,0.05c-0.107,0.13-0.121,0.468,0.047,0.563
	c0.7,0,1.048-0.048,1.567-0.048c0.639,0.017,1.185,0.017,1.719,0.048c0.152-0.078,0.122-0.451,0.032-0.563l-0.459-0.081
	c-0.424-0.079-0.625-0.178-0.625-0.274c0.008-0.198,0.044-0.394,0.107-0.582l0.6-1.873c0.09-0.306,0.134-0.322,0.5-0.322h1.811
	c0.533,0,0.655,0.034,0.731,0.292l0.409,1.389c0.127,0.358,0.225,0.726,0.292,1.1c0,0.1-0.064,0.21-0.413,0.274l-0.486,0.081
	c-0.148,0.146-0.15,0.385-0.004,0.533c0.01,0.011,0.021,0.021,0.033,0.03c0.7-0.031,1.295-0.048,2.053-0.048
	c0.794,0,1.616,0.017,2.344,0.048c0.137-0.1,0.107-0.484,0.017-0.563C84.057,117.458,83.474,117.355,83.474,117.355z
	 M79.001,113.472H77.57c-0.38,0-0.455-0.049-0.318-0.484l0.381-1.209c0.227-0.743,0.531-1.612,0.653-1.984
	c0.138,0.338,0.412,1.209,0.624,1.9l0.4,1.305c0.122,0.419,0.048,0.468-0.3,0.468"/>
<path id="h" fill="#231815" d="M92.768,115.309c-0.9,1.875-1.324,1.92-2.707,1.92c-1.113,0-1.385-0.126-1.582-0.4
	c-0.231-0.476-0.321-1.008-0.26-1.534v-5.646c0-1.5,0.091-1.628,0.775-1.743l0.4-0.065c0.122-0.168,0.122-0.395,0-0.563
	c-0.762,0.032-1.519,0.046-2.252,0.046s-1.489-0.014-2.282-0.046c-0.163,0.134-0.186,0.375-0.052,0.538l0.023,0.025l0.437,0.065
	c0.687,0.1,0.778,0.245,0.778,1.743v6c0,1.5-0.091,1.629-0.778,1.727l-0.575,0.081c-0.114,0.176-0.096,0.407,0.045,0.563
	c0.944-0.031,1.7-0.048,2.4-0.048h2.04c1.247,0,2.708,0.017,3.515,0.048c0.33-0.839,0.55-1.717,0.653-2.612
	C93.239,115.214,92.89,115.147,92.768,115.309"/>
<path id="i" fill="#231815" d="M111.201,115.929c0.011-0.071-0.032-0.139-0.1-0.16c-0.178-0.075-0.349-0.168-0.529-0.238
	c-1.167-0.45-2.333-0.898-3.5-1.345l-0.437-0.163c0,0.053-0.01,0.084-0.01,0.112v9.231c0.014,1.045-0.097,2.087-0.329,3.106
	c-0.21,0.977-0.587,1.91-1.114,2.759c-0.567,0.922-1.406,1.647-2.4,2.075c-0.762,0.285-1.569,0.432-2.382,0.434
	c-0.455,0.018-0.555,0.062-0.7,0.5c-0.208,0.649-0.389,1.309-0.575,1.966c-0.084,0.306-0.154,0.617-0.218,0.925
	c-0.05,0.228,0.069,0.357,0.3,0.354c0.039,0,0.077-0.004,0.115-0.014c0.707-0.184,1.423-0.34,2.117-0.564
	c1.816-0.597,3.534-1.462,5.095-2.566c1.794-1.241,3.331-2.818,4.525-4.644c0.091-0.136,0.14-0.295,0.142-0.458
	c-0.004-2.31-0.004-4.62,0-6.93v-4.376"/>
<path id="j" fill="#231815" d="M102.133,124.7c0.412,0.059,0.821,0.121,1.233,0.176c0.443,0.062,0.884,0.118,1.33,0.164
	c0.417,0.044,0.841,0.074,1.264,0.112h0.061c0.091-0.654,0.124-1.315,0.1-1.975c-0.032-0.009-0.057-0.017-0.083-0.026
	c-0.152-0.049-0.31-0.091-0.461-0.142c-0.656-0.22-1.254-0.583-1.753-1.063c-0.473-0.462-0.851-1.013-1.113-1.621
	c-0.208-0.474-0.366-0.968-0.471-1.474c-0.074-0.33-0.144-0.656-0.211-0.986c-0.007-0.027-0.019-0.052-0.027-0.082
	c-0.035-0.004-0.071-0.006-0.106-0.006c-0.182,0-0.363,0.006-0.543,0.01c-0.074,0-0.15,0.007-0.223,0.007
	c-0.1,0-0.108,0.024-0.119,0.1c-0.026,0.232-0.057,0.462-0.086,0.692c-0.033,0.284-0.068,0.568-0.1,0.849s-0.071,0.57-0.108,0.851
	s-0.068,0.578-0.1,0.864c-0.045,0.346-0.091,0.692-0.134,1.038s-0.083,0.7-0.126,1.047s-0.086,0.7-0.133,1.05
	c-0.002,0.036-0.002,0.071,0,0.107c0.02,0.007,0.04,0.013,0.06,0.018c0.177,0.03,0.354,0.064,0.53,0.09
	c0.442,0.064,0.884,0.131,1.326,0.2"/>
<path id="k" fill="#231815" d="M117.43,116.987c-0.158-0.88-0.536-1.706-1.1-2.4c-0.41-0.502-0.884-0.947-1.41-1.324
	c-0.486-0.346-0.995-0.657-1.525-0.931c-0.691-0.36-1.4-0.682-2.125-0.966c-0.878-0.349-1.763-0.69-2.643-1.037
	c-0.5-0.2-1.01-0.389-1.5-0.611c-0.618-0.269-1.208-0.597-1.762-0.98c-0.303-0.21-0.584-0.449-0.841-0.713
	c-0.503-0.527-0.805-1.214-0.851-1.941c-0.033-0.431,0.005-0.864,0.114-1.282c0.304-1.167,1.119-2.135,2.218-2.633
	c0.036-0.014,0.073-0.031,0.1-0.047c0.013-0.122,0.009-1.818,0-1.913c-0.015-0.001-0.029-0.001-0.044,0
	c-0.332,0.072-0.66,0.162-0.982,0.269c-0.9,0.293-1.733,0.761-2.451,1.377c-0.579,0.496-1.073,1.083-1.462,1.739
	c-0.478,0.792-0.75,1.69-0.791,2.614c-0.016,0.422,0.004,0.845,0.062,1.264c0.084,0.558,0.238,1.103,0.459,1.622
	c0.289,0.693,0.725,1.315,1.279,1.822c0.302,0.281,0.623,0.54,0.961,0.777c0.538,0.37,1.103,0.7,1.69,0.987
	c0.687,0.344,1.391,0.651,2.111,0.919c0.922,0.355,1.851,0.7,2.778,1.053c0.45,0.176,0.9,0.344,1.348,0.548
	c0.564,0.254,1.103,0.56,1.61,0.913c0.298,0.209,0.567,0.457,0.8,0.738c0.371,0.447,0.592,0.999,0.631,1.579
	c0.023,0.363,0.003,0.728-0.061,1.087c-0.15,0.905-0.609,1.731-1.3,2.335c-0.284,0.248-0.595,0.463-0.928,0.64
	c-0.04,0.021-0.08,0.046-0.122,0.069v2.131c0.002,0.021,0.007,0.041,0.015,0.06l0.1-0.017c0.465-0.112,0.922-0.253,1.37-0.421
	c0.823-0.309,1.586-0.757,2.257-1.324c1.007-0.845,1.693-2.01,1.943-3.3c0.067-0.314,0.111-0.633,0.133-0.953
	c0.014-0.177,0.023-0.351,0.025-0.527c0-0.122-0.013-0.242-0.015-0.364c-0.009-0.29-0.039-0.579-0.091-0.864"/>
<path id="l" fill="#231815" d="M111.714,102.247l0.007,0.007c0.035,0.016,0.068,0.036,0.1,0.051c0.788,0.385,1.441,1,1.872,1.764
	c0.249,0.439,0.436,0.91,0.556,1.4c0.109,0.444,0.206,0.891,0.308,1.339c0.007,0.047,0.02,0.092,0.041,0.134
	c0.019,0.007,0.04,0.01,0.06,0.009c0.3-0.01,0.592-0.014,0.9-0.039c0.009-0.035,0.016-0.056,0.022-0.082
	c0.305-2.028,0.612-4.056,0.921-6.083v-0.011l-0.014-0.017c-0.032-0.008-0.073-0.018-0.116-0.025c-0.26-0.052-0.52-0.1-0.783-0.149
	c-0.64-0.124-1.278-0.237-1.921-0.328c-0.518-0.074-1.032-0.143-1.549-0.2c-0.115-0.013-0.228-0.02-0.343-0.029
	c-0.02,0-0.04,0.002-0.059,0.006c-0.007,0.009-0.011,0.02-0.012,0.031v2.211l0.011,0.011"/>
<path id="m" fill="#231815" d="M119.193,94.528c-0.05-0.009-0.1-0.013-0.151-0.012H98.661c-0.17,0-0.308,0.139-0.307,0.309
	c0,0.021,0.002,0.043,0.007,0.064c0.047,0.3,0.087,0.595,0.142,0.891c0.026,0.218,0.195,0.391,0.412,0.421
	c0.277,0.051,0.561,0.065,0.841,0.093c0.217,0.019,0.43,0.038,0.644,0.054l0.7,0.064l0.607,0.055
	c0.209,0.022,0.411,0.042,0.619,0.061s0.4,0.039,0.6,0.057c0.215,0.02,0.431,0.042,0.64,0.06c0.242,0.021,0.479,0.035,0.717,0.056
	c0.359,0.027,0.72,0.055,1.079,0.087c0.188,0.009,0.373,0.055,0.544,0.135c0.428,0.19,0.704,0.614,0.706,1.082
	c0.011,0.379,0,0.76,0,1.139c0,1.619,0,3.237,0,4.854c0,1.267,0,2.533,0,3.8v1.12c0.038,0.023,0.075,0.046,0.114,0.065
	c0.269,0.138,0.548,0.27,0.828,0.386c0.52,0.212,1.04,0.416,1.562,0.622c0.649,0.256,1.3,0.506,1.946,0.761
	c0.03,0.013,0.063,0.02,0.117,0.038V98.559c0-0.21,0-0.423,0.019-0.633c0.007-0.102,0.027-0.203,0.06-0.3
	c0.146-0.45,0.547-0.769,1.018-0.809c0.188-0.025,0.373-0.037,0.561-0.055c0.135-0.012,0.266-0.019,0.4-0.028
	c0.289-0.025,0.577-0.055,0.865-0.082s0.584-0.051,0.876-0.077c0.254-0.024,0.509-0.046,0.763-0.071
	c0.192-0.014,0.389-0.033,0.584-0.051l0.632-0.062l0.619-0.054c0.243-0.023,0.485-0.043,0.727-0.067
	c0.166-0.011,0.334-0.026,0.5-0.046c0.27-0.009,0.484-0.23,0.484-0.5c0.002-0.031,0.007-0.062,0.015-0.092
	c0.037-0.251,0.076-0.5,0.111-0.755c0.033-0.157-0.068-0.312-0.225-0.344l-0.014-0.003"/>
<path id="n" fill="#231815" d="M131.291,111.489l-1.459-0.814c-1.131-0.483-1.919-1.533-2.066-2.754
	c-0.033-1.226,0.933-2.246,2.159-2.28c0.068-0.002,0.136,0,0.203,0.004c1.527,0,2.553,1.517,3.011,2.946
	c0.092,0.072,0.207,0.107,0.323,0.1c0.13,0.013,0.258-0.042,0.338-0.146c0.019-1.085-0.106-2.167-0.373-3.219
	c-0.237-0.041-0.471-0.101-0.7-0.177c-0.805-0.248-1.643-0.372-2.486-0.369c-1.428-0.079-2.828,0.42-3.884,1.384
	c-0.765,0.793-1.176,1.863-1.137,2.964c0,1.808,1.105,3.307,3.283,4.454c1.314,0.7,3.061,1.842,3.061,3.8
	c0.05,1.31-0.972,2.412-2.281,2.461c-0.071,0.003-0.141,0.002-0.212-0.001c-1.936,0-3.439-2.169-3.9-3.72
	c-0.074-0.08-0.18-0.124-0.289-0.119c-0.137-0.005-0.267,0.058-0.348,0.168c-0.069,1.259,0.161,2.516,0.671,3.669
	c1.131,0.61,2.404,0.908,3.688,0.863c3.319,0,5.463-1.818,5.463-4.627c0-1.935-1-3.44-3.062-4.6"/>
<path id="o" fill="#231815" d="M141.09,108.068h0.914c1.143,0,1.354,0.758,1.61,1.791c0.078,0.129,0.49,0.1,0.567-0.048
	c-0.031-0.93,0.045-1.86,0.224-2.773c-0.054-0.069-0.136-0.111-0.224-0.115c-0.07-0.004-0.139,0.013-0.2,0.047
	c-0.138,0.34-0.369,0.355-1.371,0.355h-5.66c-1.155,0-1.2-0.064-1.277-0.337c-0.062-0.046-0.137-0.068-0.214-0.065
	c-0.078,0.002-0.154,0.03-0.215,0.079c-0.102,0.925-0.269,1.842-0.5,2.744c0.117,0.195,0.369,0.259,0.565,0.145
	c0.454-1.177,0.775-1.823,1.886-1.823h0.944c0.364,0,0.364,0.083,0.364,0.469v7.118c0,1.5-0.09,1.647-0.774,1.726l-0.686,0.082
	c-0.123,0.168-0.123,0.395,0,0.563c1.066-0.031,1.857-0.047,2.587-0.047c0.683,0,1.446,0.016,2.434,0.047
	c0.108-0.172,0.108-0.391,0-0.563l-0.608-0.082c-0.684-0.1-0.777-0.225-0.777-1.726v-7.118
	C140.679,108.116,140.724,108.068,141.09,108.068"/>
<path id="p" fill="#231815" d="M153.083,117.355c-0.563-0.1-0.7-0.466-1.021-1.435l-2.067-6.324
	c-0.381-1.144-0.565-1.742-0.687-2.21c-0.057-0.239-0.149-0.321-0.348-0.321c-0.347,0.436-0.805,0.769-1.326,0.966
	c-0.065,0.711-0.255,1.405-0.562,2.049l-1.384,3.937c-0.411,1.162-0.7,1.937-0.959,2.581c-0.257,0.628-0.563,0.757-0.927,0.806
	l-0.411,0.05c-0.107,0.13-0.121,0.468,0.045,0.563c0.7,0,1.05-0.048,1.568-0.048c0.64,0.017,1.185,0.017,1.718,0.048
	c0.153-0.078,0.121-0.451,0.031-0.563l-0.456-0.081c-0.427-0.079-0.625-0.178-0.625-0.274c0.007-0.198,0.043-0.394,0.107-0.582
	l0.594-1.873c0.091-0.306,0.138-0.322,0.5-0.322h1.81c0.531,0,0.654,0.034,0.732,0.292l0.409,1.389
	c0.126,0.358,0.222,0.726,0.288,1.1c0,0.1-0.058,0.21-0.409,0.274l-0.489,0.081c-0.147,0.149-0.145,0.389,0.004,0.536
	c0.01,0.01,0.02,0.019,0.031,0.027c0.7-0.031,1.293-0.048,2.052-0.048c0.789,0,1.611,0.017,2.343,0.048
	c0.137-0.1,0.1-0.484,0.014-0.563L153.083,117.355L153.083,117.355z M148.608,113.468h-1.429c-0.38,0-0.457-0.049-0.319-0.484
	l0.38-1.209c0.229-0.743,0.532-1.612,0.653-1.984c0.138,0.338,0.414,1.209,0.625,1.9l0.4,1.305c0.121,0.419,0.045,0.468-0.307,0.468
	"/>
<path id="q" fill="#231815" d="M163.472,107.324c-0.623,0-1.217-0.014-2.041-0.047c-0.107,0.173-0.107,0.391,0,0.564l0.412,0.065
	c0.412,0.065,0.745,0.177,0.883,0.515c0.2,0.971,0.277,1.964,0.23,2.954v2.224c0.016,0.244-0.004,0.488-0.061,0.726
	c-0.353-0.369-0.793-0.934-1.464-1.773l-1.277-1.6c-1.369-1.723-2.358-2.951-2.511-3.676c-0.32,0.033-0.759,0.047-1.278,0.047
	c-0.623,0-1.384-0.014-2.1-0.047c-0.152,0.047-0.167,0.437-0.059,0.564l0.425,0.065c0.533,0.079,0.748,0.275,0.866,0.55
	c0.116,0.446,0.152,0.91,0.107,1.369v4.1c0.048,0.989-0.023,1.98-0.212,2.952c-0.124,0.339-0.426,0.451-0.839,0.532l-0.259,0.051
	c-0.105,0.171-0.105,0.388,0,0.559c0.579-0.029,1.141-0.045,1.707-0.045c0.607,0,1.218,0.016,2.039,0.045
	c0.105-0.171,0.105-0.388,0-0.559l-0.429-0.065c-0.392-0.067-0.745-0.179-0.882-0.518c-0.198-0.971-0.275-1.962-0.23-2.952v-3.13
	c-0.036-0.346-0.009-0.696,0.079-1.032c0.592,0.655,1.146,1.344,1.657,2.064l3.516,4.613c0.716,0.938,1.218,1.76,1.234,1.76
	c0.34,0.012,0.668-0.123,0.9-0.372c-0.032-0.531-0.032-1.546-0.032-2.6v-3.852c-0.046-0.99,0.031-1.982,0.228-2.954
	c0.152-0.319,0.472-0.524,0.825-0.529l0.273-0.051c0.105-0.173,0.105-0.391,0-0.564c-0.594,0.033-1.142,0.047-1.7,0.047"/>
<path id="r" fill="#231815" d="M173.914,107.81c-1.141-0.388-2.342-0.568-3.547-0.532c-1.614,0-2.8,0.062-4.078,0.144
	c-0.185,0.016-0.185,0.485-0.031,0.564l0.29,0.035c0.7,0.079,0.729,0.385,0.729,1.918v5.716c0,1.484-0.09,1.613-0.777,1.727
	l-0.471,0.081c-0.122,0.168-0.122,0.395,0,0.563c0.869-0.031,1.644-0.047,2.377-0.047c0.546,0,1.307,0.1,2.022,0.1
	c1.326,0.067,2.649-0.193,3.851-0.757c1.761-0.951,2.82-2.829,2.723-4.828c0.056-2.053-1.178-3.921-3.088-4.676 M171.02,117.336
	c-0.47,0.04-0.933-0.132-1.263-0.468c-0.282-0.557-0.387-1.187-0.3-1.806v-5.899c-0.039-0.315-0.005-0.634,0.1-0.934
	c0.092-0.129,0.38-0.208,0.788-0.208c2.757,0,4.2,1.725,4.2,4.627c0,2.2-0.9,4.68-3.53,4.68"/>
<path id="s" fill="#231815" d="M186.316,117.355c-0.562-0.1-0.7-0.466-1.02-1.435l-2.068-6.324c-0.382-1.144-0.564-1.742-0.685-2.21
	c-0.063-0.239-0.153-0.321-0.352-0.321c-0.345,0.435-0.801,0.769-1.321,0.966c-0.071,0.71-0.262,1.403-0.566,2.049l-1.384,3.937
	c-0.411,1.162-0.7,1.937-0.959,2.581c-0.257,0.628-0.56,0.757-0.926,0.806l-0.412,0.05c-0.1,0.13-0.119,0.468,0.045,0.563
	c0.7,0,1.049-0.048,1.569-0.048c0.637,0.017,1.185,0.017,1.717,0.048c0.152-0.078,0.122-0.451,0.031-0.563l-0.453-0.081
	c-0.429-0.079-0.626-0.178-0.626-0.274c0.006-0.198,0.041-0.394,0.106-0.582l0.593-1.873c0.091-0.306,0.136-0.322,0.5-0.322h1.814
	c0.53,0,0.651,0.034,0.728,0.292l0.412,1.389c0.126,0.358,0.222,0.726,0.288,1.1c0,0.1-0.06,0.21-0.411,0.274l-0.487,0.081
	c-0.148,0.15-0.147,0.391,0.003,0.539c0.009,0.008,0.018,0.017,0.027,0.024c0.7-0.031,1.293-0.048,2.055-0.048
	c0.791,0,1.614,0.017,2.342,0.048c0.136-0.1,0.108-0.484,0.017-0.563L186.316,117.355L186.316,117.355z M181.844,113.468h-1.432
	c-0.378,0-0.458-0.049-0.321-0.484l0.38-1.209c0.23-0.743,0.535-1.612,0.655-1.984c0.137,0.338,0.411,1.209,0.626,1.9l0.394,1.305
	c0.124,0.419,0.045,0.468-0.3,0.468"/>
<path id="t" fill="#231815" d="M196.817,117.055c-0.73-0.664-1.355-1.872-2.361-4.034c-0.074-0.178-0.074-0.275,0.079-0.355
	c0.982-0.401,1.621-1.359,1.613-2.42c0.026-0.982-0.488-1.898-1.339-2.388c-0.93-0.442-1.956-0.642-2.984-0.58
	c-1.443,0-2.632,0.062-3.772,0.144c-0.163,0.133-0.187,0.373-0.053,0.536c0.008,0.009,0.016,0.018,0.024,0.027l0.411,0.065
	c0.638,0.1,0.668,0.277,0.668,1.889v5.71c0,1.485-0.092,1.6-0.775,1.728l-0.415,0.081c-0.118,0.169-0.118,0.394,0,0.563
	c0.795-0.031,1.462-0.048,2.222-0.048c0.732,0,1.432,0.017,2.239,0.048c0.108-0.172,0.108-0.391,0-0.563l-0.412-0.081
	c-0.683-0.129-0.774-0.243-0.774-1.728v-1.982c0-0.324,0.03-0.356,0.563-0.356c0.367-0.027,0.702,0.209,0.8,0.564
	c0.339,0.859,0.735,1.694,1.185,2.5c0.555,1.108,1.72,1.775,2.956,1.694c0.405,0.02,0.811-0.028,1.2-0.144
	c0.087-0.136,0.061-0.315-0.062-0.42c-0.379-0.039-0.736-0.197-1.019-0.451 M193.282,112.148c-0.296,0.322-0.723,0.489-1.159,0.453
	c-0.9,0-0.941-0.05-0.941-0.614v-3.143c0-0.777,0.03-0.823,0.653-0.823c1.186,0,2,0.935,2,2.385c0.05,0.63-0.147,1.255-0.548,1.743"
	/>
<path id="u" fill="#231815" d="M206.46,107.81c-1.14-0.388-2.341-0.568-3.545-0.532c-1.613,0-2.8,0.062-4.078,0.144
	c-0.181,0.016-0.181,0.485-0.029,0.564l0.288,0.035c0.7,0.079,0.728,0.385,0.728,1.918v5.716c0,1.484-0.091,1.613-0.775,1.727
	l-0.471,0.081c-0.121,0.168-0.121,0.395,0,0.563c0.866-0.031,1.646-0.047,2.373-0.047c0.548,0,1.309,0.1,2.027,0.1
	c1.325,0.067,2.646-0.193,3.846-0.757c1.762-0.951,2.821-2.828,2.724-4.828c0.057-2.053-1.177-3.923-3.088-4.676 M203.568,117.336
	c-0.473,0.038-0.938-0.139-1.267-0.481c-0.282-0.557-0.387-1.187-0.3-1.806v-5.886c-0.038-0.315-0.004-0.634,0.1-0.934
	c0.094-0.129,0.382-0.208,0.791-0.208c2.753,0,4.2,1.725,4.2,4.627c0,2.2-0.9,4.68-3.53,4.68"/>
</svg>
