<?xml version="1.0" encoding="utf-8"?>
<!-- Generator: Adobe Illustrator 26.2.1, SVG Export Plug-In . SVG Version: 6.00 Build 0)  -->
<svg version="1.1" id="a" xmlns="http://www.w3.org/2000/svg" xmlns:xlink="http://www.w3.org/1999/xlink" x="0px" y="0px"
	 width="230px" height="230px" viewBox="0 0 230 230" enable-background="new 0 0 230 230" xml:space="preserve">
<path id="b" fill="#221E1F" d="M39.216,117.17c0,3.5,1.076,5.659,4.141,5.659c1.382-0.015,2.743-0.346,3.977-0.968l0.162,0.323
	c-1.324,1.401-3.132,2.247-5.056,2.366c-3.55,0-5.971-2.527-5.971-6.266c-0.187-3.427,2.439-6.356,5.866-6.544
	c0.062-0.003,0.124-0.006,0.186-0.007c3.442,0,5.137,2.345,5.109,5.437L39.216,117.17L39.216,117.17z M44.864,116.338
	c-0.184-2.737-0.894-3.96-2.53-3.96s-2.93,1.7-3.092,4.174C39.242,116.552,44.864,116.338,44.864,116.338z"/>
<path id="c" fill="#221E1F" d="M70.474,123.205l-4.68-6.291l3.792-3.847l1.748-0.673v-0.377H66.17v0.3l1.426,0.941l-3.388,4.167
	h-1.157v-11.923l-0.107-0.054l-4.384,1.156v0.268l1.91,1.186v15.159l0,0c-0.308,0.12-0.63,0.199-0.958,0.235
	c-0.845,0.078-1.594-0.544-1.672-1.39c-0.004-0.048-0.007-0.096-0.006-0.143v-6.549c0-2.421-0.971-3.805-3.5-3.805
	c-2.556,0-5.743,1.076-5.743,2.932c-0.007,0.765,0.607,1.391,1.372,1.398c0.765,0.007,1.391-0.607,1.398-1.372
	c-0.01-0.627-0.317-1.211-0.827-1.575c0.54-0.276,1.136-0.427,1.742-0.441c1.775,0,3.059,0.789,3.059,2.986v1.913
	c-4.088,0.4-7.2,1.465-7.2,4.2c-0.053,1.517,1.135,2.79,2.652,2.843c0.111,0.004,0.222,0,0.333-0.009
	c1.452,0,3.032-1.109,4.215-2.292l0.107,0.053c0.081,1.4,0.891,1.924,2.834,1.924l6.2-0.006v-0.35l-1.425-0.536v-5.063h0.88
	l3.5,5.035l-1.05,0.565v0.35h5.541v-0.35L70.474,123.205L70.474,123.205z M55.334,121.744c-0.794,0.529-1.689,0.889-2.628,1.057
	c-1.015,0.028-1.86-0.773-1.887-1.787c-0.002-0.062,0-0.125,0.004-0.187c0-1.452,1.31-2.7,4.511-2.728
	C55.334,118.099,55.334,121.744,55.334,121.744z"/>
<path id="d" fill="#221E1F" d="M195.88,117.17c0,3.5,1.077,5.659,4.143,5.659c1.383-0.015,2.744-0.346,3.979-0.968l0.161,0.323
	c-1.323,1.402-3.131,2.248-5.055,2.366c-3.55,0-5.971-2.527-5.971-6.266c-0.188-3.426,2.438-6.356,5.864-6.544
	c0.062-0.003,0.125-0.006,0.187-0.007c3.442,0,5.139,2.345,5.11,5.437L195.88,117.17L195.88,117.17z M201.529,116.338
	c-0.182-2.737-0.894-3.959-2.529-3.959s-2.931,1.7-3.092,4.174L201.529,116.338z"/>
<path id="e" fill="#221E1F" d="M88.384,117.17c0,3.5,1.075,5.659,4.141,5.659c1.383-0.015,2.744-0.346,3.979-0.968l0.163,0.323
	c-1.324,1.401-3.132,2.247-5.056,2.366c-3.55,0-5.972-2.527-5.972-6.266c-0.187-3.427,2.441-6.357,5.868-6.544
	c0.061-0.003,0.123-0.006,0.184-0.007c3.442,0,5.137,2.345,5.109,5.437L88.384,117.17L88.384,117.17z M94.034,116.338
	c-0.183-2.737-0.894-3.959-2.528-3.959s-2.931,1.7-3.093,4.174L94.034,116.338z"/>
<path id="f" fill="#221E1F" d="M105.159,114.868c-0.844-0.029-1.529-0.692-1.586-1.534c-0.967,0.109-1.816,0.695-2.261,1.561v8.338
	l1.855,0.536v0.35h-6.184v-0.35l1.747-0.536v-9.256l-1.72-1.157v-0.243l4.033-1.022l0.109,0.082l-0.053,2.607l0.106,0.054
	c0.941-1.7,2.368-2.716,3.6-2.716c0.922-0.084,1.738,0.596,1.822,1.518c0.005,0.059,0.008,0.118,0.007,0.177
	c0.064,0.81-0.542,1.518-1.351,1.582c-0.042,0.003-0.085,0.005-0.128,0.004"/>
<path id="g" fill="#221E1F" d="M114.534,105.507c0.655-0.024,1.286,0.249,1.716,0.744c0.513,0.594,0.447,1.491-0.147,2.004
	s-1.491,0.447-2.004-0.147c-0.014-0.016-0.027-0.032-0.04-0.049c-0.402-0.519-0.524-1.203-0.325-1.829
	c-0.167,0.012-0.331,0.053-0.484,0.123c-1.345,0.5-1.907,1.76-1.907,4.395v1.4h3.337v1.211h-3.338v9.87l2.126,0.536v0.35h-6.455
	v-0.35l1.749-0.536v-9.87h-1.767V112.9l1.767-0.773v-0.279c0-2.477,0.636-4.028,2.119-5.169c1.058-0.778,2.34-1.19,3.653-1.173"/>
<path id="h" fill="#221E1F" d="M120.057,124.483c-3.926,0-5.971-2.79-5.971-6.423c-0.149-3.382,2.472-6.244,5.854-6.392
	c0.156-0.007,0.312-0.008,0.468-0.003c3.978,0,5.968,2.713,5.968,6.343c0.167,3.406-2.459,6.303-5.866,6.469
	C120.359,124.484,120.208,124.486,120.057,124.483 M120.165,112.371c-1.884,0-3.2,1.9-3.2,5.745c0,3.792,1.424,5.636,3.334,5.636
	c1.963,0,3.172-1.871,3.172-5.744C123.471,114.216,122.155,112.371,120.165,112.371"/>
<path id="i" fill="#221E1F" d="M134.576,114.868c-0.844-0.029-1.53-0.691-1.587-1.534c-0.967,0.11-1.815,0.696-2.259,1.561v8.338
	l1.855,0.536v0.35H126.4v-0.35l1.747-0.536v-9.256l-1.72-1.157v-0.243l4.034-1.022l0.107,0.082l-0.053,2.607l0.107,0.054
	c0.94-1.7,2.367-2.716,3.6-2.716c0.921-0.085,1.737,0.594,1.821,1.515c0.006,0.06,0.008,0.12,0.007,0.18
	c0.065,0.809-0.539,1.517-1.347,1.581c-0.043,0.003-0.086,0.005-0.13,0.005"/>
<path id="j" fill="#221E1F" d="M150.824,113.551c-0.973,0.048-1.913,0.365-2.717,0.914v8.768l1.668,0.536v0.35h-5.841v-0.35
	l1.589-0.536v-6.885c0-1.938-0.565-2.8-2.314-2.8c-0.942-0.011-1.866,0.25-2.663,0.752v8.93l1.588,0.536v0.35h-5.916v-0.35
	l1.747-0.536v-9.248l-1.722-1.158v-0.247l4.036-1.022l0.106,0.082l-0.051,2.154l0.108,0.055c1.586-1.506,2.931-2.259,4.382-2.259
	c1.45-0.07,2.737,0.92,3.04,2.34l0.135,0.055c1.584-1.508,3.011-2.422,4.463-2.422c2.421,0,3.253,1.856,3.253,3.765v7.908
	l1.749,0.536v0.35h-5.915v-0.35l1.612-0.536v-6.778c0-1.882-0.591-2.9-2.339-2.9"/>
<path id="k" fill="#221E1F" d="M180.562,123.233v-7.908c0-1.91-0.886-3.711-3.307-3.711c-1.762,0.131-3.407,0.929-4.6,2.232
	l-0.108-0.055l0.054-2.149l-0.108-0.082l-4.031,1.017v0.242l1.721,1.157v9.189l-0.012,0.006l0,0c-0.389,0.134-0.791,0.228-1.2,0.28
	c-0.846,0.077-1.594-0.547-1.671-1.393c-0.004-0.047-0.006-0.094-0.006-0.141v-6.548c0-2.421-0.972-3.805-3.495-3.805
	c-2.556,0-5.744,1.076-5.744,2.932c-0.026,0.764,0.572,1.406,1.336,1.432c0.764,0.026,1.406-0.572,1.432-1.336
	c0-0.023,0.001-0.047,0-0.07c-0.009-0.627-0.316-1.211-0.827-1.575c0.54-0.276,1.136-0.427,1.742-0.441
	c1.775,0,3.059,0.789,3.059,2.986v1.913c-4.087,0.4-7.2,1.465-7.2,4.2c-0.053,1.517,1.135,2.79,2.652,2.843
	c0.111,0.004,0.222,0,0.332-0.009c1.453,0,3.032-1.109,4.215-2.292l0.108,0.053c0.081,1.4,0.89,1.921,2.833,1.921h6.607v-0.35
	l-1.586-0.536v-8.93c0.875-0.5,1.87-0.751,2.878-0.725c1.72,0,2.367,0.995,2.367,2.9v6.752l-1.614,0.536v0.35h5.888v-0.35
	l-1.716-0.535H180.562z M164.803,121.743c-0.794,0.53-1.689,0.889-2.629,1.057c-1.014,0.027-1.858-0.773-1.885-1.787
	c-0.002-0.062,0-0.125,0.005-0.187c0-1.452,1.31-2.7,4.51-2.728v3.645H164.803z"/>
<path id="l" fill="#221E1F" d="M191.159,115.864c-0.894,0-1.617-0.726-1.617-1.619c0-0.025,0-0.05,0.002-0.075
	c0.002-0.614,0.21-1.21,0.59-1.692c-0.347-0.058-0.698-0.085-1.049-0.081c-2.232,0-4.275,1.561-4.275,5.325
	c0,2.932,1.586,5.109,4.2,5.109c1.308-0.041,2.591-0.362,3.765-0.94l0.134,0.349c-1.236,1.393-2.982,2.227-4.842,2.313
	c-3.469,0-5.969-2.5-5.969-6.239c-0.097-3.603,2.745-6.602,6.348-6.699c0.107-0.003,0.214-0.003,0.321,0
	c2.394,0,3.953,1.129,3.953,2.527c0.068,0.881-0.592,1.65-1.473,1.718c-0.029,0.002-0.057,0.004-0.086,0.004"/>
<path id="m" fill="#221E1F" d="M205.242,109.094c0.944,0.008,1.703,0.781,1.695,1.725s-0.781,1.703-1.725,1.695
	c-0.942-0.008-1.7-0.777-1.695-1.72c0-0.939,0.761-1.7,1.7-1.7C205.225,109.094,205.234,109.094,205.242,109.094 M205.242,112.262
	c0.805,0.025,1.479-0.607,1.504-1.412s-0.607-1.479-1.412-1.504c-0.805-0.025-1.479,0.607-1.504,1.412v0.038
	c-0.032,0.778,0.574,1.434,1.352,1.465C205.202,112.261,205.222,112.262,205.242,112.262 M204.574,109.803h0.771
	c0.476,0,0.7,0.188,0.7,0.572c0.016,0.284-0.201,0.527-0.485,0.543c-0.014,0-0.027,0.001-0.041,0l0.57,0.882h-0.334l-0.544-0.86
	h-0.33v0.86h-0.309L204.574,109.803L204.574,109.803z M204.883,110.691h0.325c0.273,0,0.527-0.014,0.527-0.33
	c0-0.266-0.23-0.307-0.44-0.307h-0.412L204.883,110.691L204.883,110.691z"/>
<path id="n" fill="#221E1F" d="M31.077,106.678H23.07v0.513l2.672,0.543v15.365l-2.678,0.543v0.514h8.234v-0.514l-2.643-0.543
	v-15.495c0.604-0.14,1.223-0.208,1.843-0.2c2.466,0,3.821,1.658,3.821,4.652c0,3.139-1.33,4.576-3.879,4.576h-0.741v0.518
	l2.844,0.448c0.105,0.015,0.212,0.015,0.317,0c2.699-0.498,4.634-2.886,4.563-5.63C37.422,109.002,35.316,106.678,31.077,106.678"/>
<path id="o" fill="#221E1F" d="M80.294,106.678h-8.007v0.513l2.672,0.543v15.365l-2.678,0.543v0.514h8.233v-0.514l-2.642-0.543
	v-15.495c0.604-0.14,1.223-0.208,1.843-0.2c2.466,0,3.821,1.658,3.821,4.652c0,3.139-1.33,4.576-3.88,4.576h-0.74v0.518l2.844,0.448
	c0.105,0.015,0.212,0.015,0.317,0c2.699-0.498,4.635-2.886,4.563-5.63C86.64,109.002,84.534,106.678,80.294,106.678"/>
</svg>
