<?xml version="1.0" encoding="utf-8"?>
<!-- Generator: Adobe Illustrator 26.2.1, SVG Export Plug-In . SVG Version: 6.00 Build 0)  -->
<svg version="1.1" id="a" xmlns="http://www.w3.org/2000/svg" xmlns:xlink="http://www.w3.org/1999/xlink" x="0px" y="0px"
	 width="230px" height="230px" viewBox="0 0 230 230" enable-background="new 0 0 230 230" xml:space="preserve">
<path id="b" fill="#231815" d="M103.194,122.118v-0.608h-1.345l-7.485-9.049l4.094-3.456h2.466v-0.607h-6.27v0.607h2.878v0.033
	c0,0-0.384,0.286-0.768,0.607l-5.278,4.512h-1.6V98.604h-6.654v0.608h2.623v22.3h-2.623v0.608h8.732v-0.608h-2.078v-6.72h1.6
	l5.533,6.718h-2.4v0.608H103.194z"/>
<path id="c" fill="#231815" d="M56.903,115.272c0,2.367-0.352,6.494-3.1,6.494c-2.336,0-3.646-2.751-3.646-6.494
	c0-3.775,1.215-6.526,3.615-6.526c2.781,0,3.133,4.158,3.133,6.526 M43.528,109.001h2.623v21.787h-2.623v0.608h9.725v-0.608h-3.071
	v-8.287c0-1.886-0.031-2.943-0.031-2.943h0.094c0.58,1.867,2.371,3.087,4.321,2.943c3.325,0,6.685-2.27,6.685-7.134
	c0-3.678-2.847-7.357-6.751-7.357c-1.826-0.049-3.488,1.051-4.157,2.751h-0.1c0,0,0.032-0.607,0.032-1.472v-0.9h-6.747"/>
<path id="d" fill="#231815" d="M67.817,99.861c-0.442-0.472-1.062-0.737-1.709-0.73c-0.67-0.013-1.315,0.251-1.783,0.73
	c-0.483,0.478-0.747,1.135-0.728,1.815c-0.011,0.66,0.253,1.295,0.728,1.754c0.468,0.478,1.114,0.742,1.783,0.729
	c0.647,0.007,1.266-0.258,1.709-0.729c0.467-0.463,0.725-1.097,0.714-1.754C68.549,100.999,68.292,100.344,67.817,99.861"/>
<path id="e" fill="#231815" d="M70.683,122.118v-0.608H68.06v-13.116h-6.657v0.607h2.623v12.509h-2.623v0.608
	C61.403,122.118,70.683,122.118,70.683,122.118z"/>
<path id="f" fill="#231815" d="M160.948,115.272c0,2.367-0.352,6.494-3.1,6.494c-2.336,0-3.646-2.751-3.646-6.494
	c0-3.775,1.215-6.526,3.615-6.526c2.784,0,3.136,4.158,3.136,6.526 M147.574,109.001h2.623v21.787h-2.623v0.608h9.729v-0.608h-3.071
	v-8.287c0-1.886-0.031-2.943-0.031-2.943h0.1c0.58,1.866,2.369,3.086,4.318,2.943c3.325,0,6.685-2.27,6.685-7.134
	c0-3.678-2.847-7.357-6.748-7.357c-1.827-0.049-3.49,1.051-4.16,2.751h-0.095c0,0,0.032-0.607,0.032-1.472v-0.9h-6.752"/>
<path id="g" fill="#231815" d="M140.693,122.533c1.086-0.02,2.15-0.306,3.1-0.833c0.838-0.466,1.577-1.09,2.176-1.839
	c0.582-0.726,1.032-1.549,1.327-2.431c0.293-0.849,0.445-1.741,0.45-2.639c0.022-0.861-0.136-1.716-0.464-2.512
	c-0.31-0.694-0.762-1.315-1.328-1.823c-0.625-0.555-1.326-1.018-2.081-1.376c-0.808-0.394-1.714-0.783-2.718-1.167
	c-0.98-0.363-1.823-0.715-2.528-1.056c-0.62-0.29-1.205-0.65-1.743-1.073c-0.421-0.326-0.765-0.741-1.007-1.215
	c-0.223-0.475-0.333-0.995-0.321-1.52c-0.006-0.908,0.367-1.778,1.029-2.4c0.336-0.331,0.728-0.599,1.159-0.791
	c0.647-0.292,1.355-0.427,2.064-0.394v-0.665c-0.935-0.03-1.862,0.172-2.7,0.588c-0.714,0.358-1.345,0.86-1.856,1.474
	c-0.559,0.687-0.997,1.465-1.294,2.3c-0.326,0.909-0.488,1.868-0.478,2.833c-0.019,0.843,0.117,1.683,0.4,2.478
	c0.252,0.665,0.633,1.273,1.123,1.789c0.487,0.508,1.047,0.939,1.663,1.279c0.662,0.368,1.352,0.684,2.064,0.944
	c1.216,0.447,2.245,0.837,3.088,1.168c0.728,0.272,1.42,0.632,2.061,1.071c0.494,0.339,0.896,0.796,1.17,1.329
	c0.266,0.609,0.391,1.271,0.367,1.935c0.007,0.988-0.39,1.936-1.1,2.624c-0.972,0.861-2.237,1.319-3.535,1.28
	c-1.385,0.004-2.74-0.397-3.9-1.153c-0.708-0.534-1.329-1.175-1.84-1.9c-0.488-0.685-0.88-1.433-1.167-2.224
	c-0.255-0.654-0.396-1.346-0.416-2.048c0-0.042-0.109-0.063-0.321-0.063s-0.321,0.021-0.321,0.063v7.871
	c0,0.043,0.1,0.063,0.307,0.063s0.312-0.02,0.335-0.063c0.053-0.322,0.217-0.616,0.462-0.832c0.302-0.268,0.697-0.406,1.1-0.384
	c0.294,0.006,0.585,0.054,0.865,0.144c0.319,0.096,0.661,0.213,1.024,0.352s0.747,0.277,1.152,0.416
	c0.847,0.294,1.742,0.43,2.638,0.4"/>
<path id="h" fill="#231815" d="M145.037,99.861c-0.441-0.472-1.06-0.737-1.706-0.73c-0.67-0.013-1.315,0.251-1.783,0.73
	c-0.484,0.478-0.748,1.135-0.731,1.815c-0.009,0.661,0.255,1.296,0.731,1.754c0.468,0.479,1.113,0.743,1.783,0.729
	c0.646,0.007,1.265-0.257,1.706-0.729c0.468-0.463,0.727-1.096,0.717-1.754C145.771,100.999,145.512,100.344,145.037,99.861"/>
<path id="i" fill="#231815" d="M36.685,122.533c1.088-0.019,2.154-0.305,3.105-0.833c0.837-0.467,1.576-1.092,2.176-1.839
	c0.58-0.727,1.029-1.55,1.327-2.431c0.292-0.849,0.443-1.741,0.447-2.639c0.023-0.861-0.135-1.716-0.464-2.512
	c-0.31-0.692-0.763-1.312-1.328-1.818c-0.625-0.554-1.324-1.017-2.078-1.376c-0.811-0.394-1.718-0.783-2.721-1.167
	c-0.98-0.363-1.822-0.715-2.525-1.056c-0.621-0.288-1.206-0.649-1.743-1.073c-0.422-0.325-0.767-0.74-1.01-1.215
	c-0.221-0.476-0.331-0.995-0.321-1.52c-0.006-0.908,0.367-1.778,1.029-2.4c0.336-0.332,0.728-0.601,1.159-0.793
	c0.647-0.294,1.355-0.431,2.065-0.4v-0.662c-0.935-0.037-1.865,0.165-2.7,0.588c-0.708,0.367-1.339,0.868-1.857,1.474
	c-0.561,0.686-0.998,1.464-1.293,2.3c-0.328,0.908-0.491,1.868-0.481,2.833c-0.021,0.844,0.115,1.684,0.4,2.478
	c0.249,0.665,0.63,1.274,1.119,1.789c0.488,0.506,1.048,0.937,1.663,1.279c0.663,0.367,1.353,0.682,2.064,0.944
	c1.216,0.447,2.245,0.837,3.088,1.168c0.729,0.271,1.422,0.631,2.064,1.071c0.493,0.339,0.894,0.796,1.167,1.329
	c0.266,0.609,0.391,1.271,0.367,1.935c0.006,0.988-0.391,1.936-1.1,2.624c-0.974,0.861-2.239,1.318-3.538,1.28
	c-1.385,0.004-2.74-0.397-3.9-1.153c-0.707-0.535-1.328-1.176-1.84-1.9c-0.486-0.686-0.879-1.434-1.167-2.224
	c-0.255-0.654-0.396-1.346-0.416-2.048c0-0.042-0.106-0.063-0.321-0.063s-0.318,0.021-0.318,0.063v7.871
	c0,0.043,0.1,0.063,0.3,0.063s0.315-0.02,0.335-0.063c0.056-0.322,0.219-0.615,0.464-0.832c0.301-0.269,0.697-0.407,1.1-0.384
	c0.293,0.006,0.583,0.055,0.862,0.144c0.321,0.1,0.66,0.213,1.024,0.352s0.745,0.277,1.152,0.416c0.847,0.294,1.742,0.43,2.638,0.4"
	/>
<path id="j" fill="#231815" d="M41.031,99.861c-0.441-0.471-1.06-0.736-1.706-0.73c-0.671-0.013-1.317,0.251-1.786,0.73
	c-0.482,0.479-0.745,1.136-0.728,1.815c-0.009,0.66,0.254,1.294,0.728,1.754c0.469,0.479,1.116,0.743,1.786,0.729
	c0.646,0.006,1.264-0.258,1.706-0.729c0.467-0.463,0.725-1.097,0.714-1.754C41.763,100.999,41.506,100.344,41.031,99.861"/>
<path id="k" fill="#231815" d="M172.78,108.736c-0.442-0.471-1.06-0.736-1.706-0.73c-0.671-0.013-1.317,0.251-1.786,0.73
	c-0.482,0.479-0.745,1.136-0.728,1.815c-0.009,0.66,0.255,1.294,0.728,1.753c0.469,0.479,1.115,0.743,1.786,0.729
	c0.646,0.007,1.265-0.257,1.706-0.729c0.467-0.463,0.725-1.096,0.714-1.753C173.513,109.874,173.255,109.219,172.78,108.736"/>
<path id="l" fill="#231815" d="M175.05,118.437c0,1.6-1.023,3.2-2.526,3.2c-1.407,0-2.081-1.248-2.081-3.135
	c-0.11-0.987,0.178-1.976,0.8-2.75c0.611-0.615,1.479-0.901,2.336-0.769h0.479c0.331,0.008,0.662-0.003,0.992-0.033L175.05,118.437
	L175.05,118.437z M175.05,113.318c0.038,0.33-0.053,0.663-0.255,0.927c-0.256,0.218-0.591,0.322-0.926,0.288h-0.961
	c-2.528,0-4.257,0.512-5.312,1.538c-0.686,0.673-1.067,1.597-1.055,2.558c0,2.719,2.463,3.87,4.862,3.87
	c1.68,0.105,3.234-0.892,3.839-2.462h0.063c0.034,1.343,0.768,2.4,3.168,2.4c1.102,0.039,2.198-0.181,3.2-0.641l-0.193-0.511
	c-0.489,0.244-1.022,0.386-1.568,0.417c-0.246,0.031-0.493-0.052-0.671-0.225c-0.223-0.224-0.255-0.608-0.255-1.183v-7.807
	c0.119-1.108-0.242-2.214-0.992-3.039c-0.859-0.676-1.895-1.09-2.984-1.193L175.05,113.318L175.05,113.318z"/>
<path id="m" fill="#231815" d="M201.196,122.116v-0.607h-2.623v-7.71c0-2.176-0.29-3.615-1.281-4.607
	c-1-0.86-2.301-1.286-3.616-1.184c-2.25-0.116-4.271,1.369-4.831,3.552h-0.063c0,0,0.032-1.216,0.032-2.048v-1.12h-6.4v0.609h2.62
	v12.508h-2.62v0.607h9.089v-0.607h-2.431v-7.934c0-1.664,1.15-4.83,3.549-4.83c2.113,0,1.921,2.815,1.921,4.286v8.478h-1.952v0.607
	L201.196,122.116L201.196,122.116z"/>
<path id="n" fill="#231815" d="M82.486,108.736c-0.442-0.472-1.062-0.737-1.709-0.73c-0.67-0.013-1.315,0.251-1.783,0.73
	c-0.483,0.478-0.747,1.135-0.728,1.815c-0.011,0.66,0.253,1.295,0.728,1.753c0.468,0.479,1.113,0.743,1.783,0.729
	c0.647,0.008,1.267-0.256,1.709-0.729c0.468-0.462,0.727-1.095,0.717-1.753c0.019-0.677-0.239-1.332-0.714-1.815"/>
<path id="o" fill="#231815" d="M76.939,108.091c-3.617,0.527-6.304,3.621-6.319,7.276c0.076,3.997,3.363,7.184,7.36,7.135
	c2.718,0.082,5.099-1.812,5.63-4.479l-0.671-0.16c-0.469,2.336-2.517,4.021-4.9,4.031c-2.942,0-3.36-3.039-3.36-6.653
	c0-2.392-0.023-5.748,2.256-6.524C76.935,108.717,76.939,108.091,76.939,108.091z"/>
<path id="p" fill="#231815" d="M115.763,106.294c0.329,1.001,0.714,1.983,1.152,2.942c0.447,0.98,0.942,1.95,1.485,2.911
	c0.543,0.961,1.114,1.909,1.712,2.845c0.6,0.939,1.208,1.867,1.823,2.783c0.451-0.798,0.79-1.653,1.009-2.543
	c0.231-0.952,0.396-1.919,0.493-2.894c0.175-0.661,0-1.366-0.461-1.871c-0.564-0.395-1.248-0.581-1.935-0.527h-1.25
	c-0.04,0-0.063-0.085-0.063-0.256s0.023-0.256,0.063-0.256h8.061c0.043,0,0.063,0.084,0.063,0.256s-0.02,0.256-0.063,0.256h-1.344
	c-0.646-0.051-1.289,0.137-1.806,0.527c-0.465,0.514-0.732,1.178-0.752,1.871c-0.205,2.068-0.778,4.083-1.694,5.949
	c0.083,0.127,0.161,0.235,0.224,0.319s0.117,0.167,0.161,0.24s0.088,0.16,0.143,0.256c0.063,0.115,0.132,0.228,0.206,0.336
	c0.323,0.455,0.681,0.883,1.072,1.28c0.313,0.299,0.734,0.46,1.167,0.447c0.176-0.002,0.35-0.036,0.513-0.1
	c0.673-0.223,1.197-0.759,1.405-1.437c0.023-0.042,0.092-0.016,0.209,0.08s0.164,0.165,0.144,0.208
	c-0.171,0.428-0.439,0.811-0.783,1.119c-0.355,0.321-0.754,0.591-1.184,0.8c-0.444,0.214-0.91,0.38-1.39,0.495
	c-0.471,0.115-0.955,0.174-1.44,0.176c-1.353-0.047-2.64-0.594-3.612-1.535c-1.671,1.035-3.599,1.578-5.564,1.567
	c-1.002,0.01-1.998-0.152-2.945-0.479c-0.85-0.295-1.632-0.757-2.3-1.359c-0.64-0.589-1.15-1.304-1.5-2.1
	c-0.369-0.836-0.555-1.741-0.545-2.654c-0.024-1.586,0.446-3.14,1.345-4.446c1.073-1.465,2.434-2.695,4-3.614
	c-0.172-0.554-0.309-1.092-0.416-1.614c-0.103-0.487-0.158-0.983-0.163-1.481c-0.011-0.846,0.108-1.69,0.353-2.5
	c0.213-0.685,0.542-1.328,0.974-1.9c1.158-1.284,2.899-1.877,4.6-1.565v0.635c-0.601-0.127-1.22,0.105-1.591,0.594
	c-0.325,0.642-0.464,1.362-0.4,2.079c0,0.586,0.054,1.17,0.164,1.745c0.129,0.643,0.296,1.277,0.5,1.9L115.763,106.294
	L115.763,106.294z M118.707,120.594c-0.3-0.296-0.573-0.617-0.817-0.96c-0.224-0.32-0.496-0.736-0.817-1.247
	c-0.49-0.769-0.99-1.569-1.5-2.4s-1.005-1.678-1.485-2.542c-0.479-0.867-0.927-1.73-1.345-2.591
	c-0.405-0.834-0.753-1.695-1.04-2.577c-0.694,0.541-1.23,1.259-1.551,2.078c-0.346,0.909-0.516,1.875-0.5,2.847
	c0.004,0.923,0.15,1.84,0.433,2.719c0.28,0.904,0.724,1.749,1.31,2.493c0.605,0.763,1.369,1.385,2.239,1.823
	c0.988,0.487,2.079,0.728,3.18,0.7c0.316,0.003,0.632-0.012,0.946-0.047c0.328-0.051,0.646-0.152,0.943-0.3"/>
<path id="q" fill="#231815" d="M122.629,99.861c-0.442-0.472-1.062-0.737-1.709-0.73c-0.67-0.013-1.315,0.251-1.783,0.73
	c-0.486,0.478-0.752,1.136-0.734,1.818c-0.01,0.66,0.255,1.295,0.731,1.753c0.468,0.479,1.113,0.743,1.783,0.729
	c0.647,0.007,1.267-0.257,1.709-0.729c0.466-0.463,0.723-1.096,0.711-1.753C123.358,101.002,123.103,100.345,122.629,99.861"/>
</svg>
