<?xml version="1.0" encoding="utf-8"?>
<!-- Generator: Adobe Illustrator 26.2.1, SVG Export Plug-In . SVG Version: 6.00 Build 0)  -->
<svg version="1.1" id="a" xmlns="http://www.w3.org/2000/svg" xmlns:xlink="http://www.w3.org/1999/xlink" x="0px" y="0px"
	 width="230px" height="230px" viewBox="0 0 230 230" enable-background="new 0 0 230 230" xml:space="preserve">
<path id="b" fill="#004399" d="M47.177,125.935h2.316v6.69c-0.035,0.558,0.054,1.117,0.261,1.636
	c0.344,0.651,1.059,1.017,1.789,0.916c0.728,0.102,1.443-0.264,1.784-0.916c0.209-0.52,0.3-1.079,0.266-1.638v-6.69h2.316v6.69
	c0.046,0.93-0.139,1.858-0.537,2.7c-0.669,1.183-1.946,1.775-3.829,1.776c-1.883,0-3.154-0.592-3.829-1.772
	c-0.401-0.841-0.585-1.769-0.537-2.7C47.177,132.627,47.177,125.935,47.177,125.935z"/>
<path id="c" fill="#004399" d="M64.542,126.216c0.395,0.168,0.744,0.43,1.015,0.763c0.231,0.275,0.418,0.584,0.552,0.917
	c0.139,0.366,0.207,0.755,0.2,1.146c-0.004,0.533-0.137,1.056-0.39,1.525c-0.273,0.511-0.737,0.893-1.291,1.062
	c0.445,0.153,0.822,0.458,1.064,0.862c0.245,0.532,0.353,1.116,0.316,1.7v0.732c-0.013,0.339,0.009,0.678,0.064,1.012
	c0.043,0.257,0.196,0.483,0.419,0.619v0.271H63.98c-0.068-0.242-0.118-0.434-0.147-0.582c-0.064-0.308-0.097-0.621-0.1-0.936
	l-0.015-1.01c0.048-0.491-0.079-0.982-0.359-1.388c-0.374-0.275-0.838-0.399-1.3-0.347h-2.223v4.263h-2.222v-10.89h5.208
	C63.408,125.921,63.991,126.017,64.542,126.216 M59.836,127.827v2.934h2.449c0.375,0.021,0.751-0.041,1.1-0.18
	c0.448-0.237,0.704-0.724,0.646-1.227c0.067-0.527-0.177-1.046-0.626-1.331c-0.331-0.148-0.693-0.214-1.055-0.192L59.836,127.827
	L59.836,127.827z"/>
<path id="d" fill="#004399" d="M76.142,127.095c0.342,0.486,0.517,1.069,0.5,1.663c0.029,0.576-0.148,1.143-0.5,1.6
	c-0.233,0.261-0.516,0.472-0.833,0.621c0.515,0.17,0.958,0.508,1.258,0.961c0.295,0.478,0.444,1.032,0.427,1.594
	c0.01,0.614-0.16,1.218-0.487,1.738c-0.199,0.333-0.46,0.624-0.769,0.857c-0.363,0.274-0.784,0.46-1.231,0.544
	c-0.505,0.102-1.019,0.152-1.534,0.148h-4.905v-10.887h5.253c1.072-0.091,2.122,0.342,2.819,1.161 M70.24,127.827v2.4h2.638
	c0.4,0.017,0.797-0.077,1.147-0.271c0.312-0.214,0.482-0.581,0.444-0.957c0.046-0.426-0.192-0.833-0.587-1
	c-0.415-0.125-0.848-0.183-1.281-0.17C72.601,127.829,70.24,127.827,70.24,127.827z M70.24,132.027v2.9h2.638
	c0.376,0.017,0.752-0.049,1.1-0.192c0.491-0.265,0.772-0.802,0.71-1.357c0.043-0.497-0.234-0.967-0.691-1.168
	c-0.345-0.134-0.713-0.197-1.083-0.185C72.914,132.025,70.24,132.027,70.24,132.027z"/>
<path id="e" fill="#004399" d="M81.016,125.935h2.572l3.849,10.888h-2.469l-0.72-2.24h-4.006l-0.739,2.24h-2.375L81.016,125.935z
	 M80.863,132.713h2.789l-1.375-4.29L80.863,132.713z"/>
<path id="f" fill="#004399" d="M88.324,125.935h2.385l4.326,7.6v-7.6h2.115v10.888h-2.267l-4.44-7.729v7.729h-2.119V125.935z"/>
<path id="g" fill="#004399" d="M110.46,126.216c0.396,0.169,0.746,0.431,1.02,0.763c0.227,0.277,0.412,0.586,0.547,0.917
	c0.139,0.366,0.207,0.755,0.2,1.146c-0.005,0.533-0.14,1.056-0.394,1.525c-0.272,0.51-0.735,0.892-1.287,1.062
	c0.443,0.156,0.82,0.461,1.065,0.862c0.24,0.533,0.346,1.117,0.31,1.7v0.732c-0.013,0.339,0.009,0.678,0.064,1.012
	c0.043,0.257,0.196,0.483,0.419,0.619v0.271h-2.506c-0.069-0.242-0.118-0.434-0.148-0.582c-0.061-0.308-0.094-0.622-0.1-0.936
	l-0.015-1.01c0.051-0.491-0.077-0.984-0.36-1.388c-0.374-0.275-0.838-0.399-1.3-0.347h-2.221v4.263h-2.223v-10.89h5.209
	C109.326,125.922,109.909,126.017,110.46,126.216 M105.754,127.827v2.934h2.454c0.373,0.021,0.747-0.041,1.094-0.18
	c0.448-0.236,0.705-0.724,0.645-1.227c0.066-0.526-0.175-1.043-0.62-1.331c-0.332-0.147-0.693-0.212-1.055-0.192L105.754,127.827
	L105.754,127.827z"/>
<path id="h" fill="#004399" d="M121.882,127.854h-5.642v2.323h5.169v1.893h-5.169v2.8h5.908v1.956h-8.131v-10.892h7.865
	C121.882,125.934,121.882,127.854,121.882,127.854z"/>
<path id="i" fill="#004399" d="M125.228,133.461c0.035,0.402,0.178,0.787,0.414,1.114c0.513,0.501,1.223,0.748,1.936,0.672
	c0.45,0.013,0.9-0.046,1.331-0.177c0.58-0.14,0.984-0.665,0.971-1.261c0.009-0.345-0.175-0.667-0.478-0.833
	c-0.473-0.249-0.982-0.421-1.508-0.51l-1.173-0.259c-0.837-0.136-1.645-0.418-2.385-0.833c-0.752-0.539-1.169-1.431-1.1-2.353
	c-0.019-0.929,0.374-1.819,1.075-2.429c0.897-0.702,2.022-1.046,3.158-0.966c1.064-0.031,2.108,0.289,2.972,0.911
	c0.828,0.628,1.306,1.613,1.286,2.652h-2.187c-0.002-0.595-0.342-1.138-0.877-1.4c-0.423-0.194-0.885-0.288-1.35-0.273
	c-0.503-0.026-1.002,0.098-1.435,0.355c-0.344,0.21-0.548,0.588-0.536,0.99c-0.012,0.369,0.195,0.711,0.527,0.872
	c0.462,0.206,0.947,0.357,1.444,0.451l1.9,0.449c0.676,0.126,1.318,0.395,1.882,0.788c0.664,0.539,1.028,1.366,0.976,2.22
	c0.017,0.958-0.409,1.87-1.153,2.474c-0.932,0.709-2.089,1.059-3.258,0.985c-1.203,0.068-2.392-0.274-3.375-0.971
	c-0.817-0.638-1.276-1.632-1.23-2.668L125.228,133.461L125.228,133.461z"/>
<path id="j" fill="#004399" d="M141.145,127.854h-5.642v2.323h5.165v1.893h-5.165v2.8h5.908v1.956h-8.126v-10.892h7.86
	C141.145,125.934,141.145,127.854,141.145,127.854z"/>
<path id="k" fill="#004399" d="M146.196,125.935h2.572l3.849,10.888h-2.464l-0.72-2.24h-4.011l-0.734,2.24h-2.38L146.196,125.935z
	 M146.043,132.713h2.79l-1.375-4.29L146.043,132.713z"/>
<path id="l" fill="#004399" d="M160.368,126.216c0.395,0.168,0.743,0.43,1.015,0.763c0.231,0.274,0.416,0.584,0.547,0.917
	c0.141,0.365,0.209,0.755,0.2,1.146c-0.003,0.532-0.137,1.056-0.389,1.525c-0.273,0.511-0.737,0.893-1.291,1.062
	c0.445,0.155,0.823,0.46,1.069,0.862c0.24,0.533,0.346,1.117,0.31,1.7v0.732c-0.011,0.338,0.009,0.677,0.06,1.012
	c0.047,0.257,0.201,0.482,0.423,0.619v0.271h-2.508c-0.069-0.242-0.118-0.434-0.147-0.582c-0.064-0.308-0.097-0.621-0.1-0.936
	l-0.015-1.01c0.051-0.491-0.077-0.984-0.36-1.388c-0.374-0.275-0.838-0.399-1.3-0.347h-2.224v4.263h-2.218v-10.89h5.209
	C159.235,125.922,159.818,126.017,160.368,126.216 M155.658,127.827v2.934h2.454c0.375,0.021,0.751-0.041,1.1-0.18
	c0.447-0.237,0.703-0.724,0.645-1.227c0.067-0.527-0.177-1.046-0.625-1.331c-0.331-0.148-0.693-0.213-1.055-0.192L155.658,127.827
	L155.658,127.827z"/>
<path id="m" fill="#004399" d="M164.75,127.08c2.061-1.9,5.272-1.77,7.173,0.291c0.05,0.054,0.098,0.109,0.145,0.165
	c0.43,0.594,0.688,1.296,0.744,2.028h-2.282c-0.097-0.43-0.287-0.833-0.557-1.181c-0.461-0.498-1.123-0.758-1.8-0.709
	c-0.768-0.022-1.492,0.357-1.912,1c-0.516,0.85-0.76,1.837-0.7,2.83c-0.072,0.972,0.188,1.939,0.739,2.743
	c0.447,0.586,1.145,0.924,1.882,0.911c0.686,0.042,1.35-0.249,1.784-0.781c0.272-0.376,0.463-0.805,0.562-1.259h2.262
	c-0.156,1.106-0.682,2.126-1.493,2.893c-0.842,0.758-1.947,1.158-3.08,1.114c-1.382,0.071-2.722-0.482-3.652-1.506
	c-0.942-1.17-1.416-2.649-1.33-4.149c-0.105-1.607,0.44-3.189,1.513-4.391"/>
<path id="n" fill="#004399" d="M174.078,136.823v-10.888h2.262v4.149h4.233v-4.149h2.257v10.888h-2.257v-4.862h-4.233v4.866
	L174.078,136.823z"/>
<path id="o" fill="#004399" d="M92.719,150.909c0.062,0.543,0.263,1.062,0.582,1.506c0.751,0.74,1.794,1.107,2.843,1
	c0.651,0.019,1.3-0.067,1.924-0.254c0.882-0.218,1.495-1.02,1.473-1.929c0.013-0.541-0.273-1.046-0.744-1.313
	c-0.676-0.361-1.407-0.61-2.163-0.737l-1.651-0.362c-1.155-0.189-2.268-0.576-3.292-1.143c-1.017-0.72-1.578-1.922-1.478-3.164
	c-0.025-1.255,0.508-2.457,1.455-3.282c1.228-0.958,2.768-1.427,4.321-1.316c1.454-0.039,2.881,0.399,4.063,1.246
	c1.066,0.814,1.699,2.072,1.716,3.413h-2.72c-0.053-0.834-0.549-1.576-1.3-1.944c-0.621-0.283-1.299-0.42-1.981-0.4
	c-0.74-0.034-1.475,0.148-2.113,0.525c-0.531,0.324-0.848,0.907-0.833,1.529c-0.017,0.582,0.309,1.12,0.833,1.373
	c0.662,0.295,1.357,0.513,2.069,0.648l2.681,0.628c0.921,0.174,1.795,0.541,2.564,1.076c0.885,0.728,1.369,1.835,1.3,2.979
	c0.02,1.293-0.552,2.524-1.552,3.343c-1.278,0.964-2.858,1.439-4.455,1.339c-1.649,0.092-3.281-0.374-4.632-1.323
	c-1.051-0.83-1.658-2.099-1.645-3.438L92.719,150.909L92.719,150.909z"/>
<path id="p" fill="#004399" d="M109.026,155.396c-0.281,0.032-1.232,0.054-1.232,0.054c-0.961,0.151-1.941-0.093-2.72-0.675
	c-0.332-0.407-0.493-0.926-0.449-1.449v-7.187h-1.562v-1.75h1.562V141.3h2.573v3.089h1.828v1.75h-1.828v6.212
	c-0.047,0.346,0.033,0.697,0.226,0.988c0.1,0.1,0.335,0.221,1.193,0.221l0.295-0.012c0,0,0.055,0,0.114-0.013
	C109.026,153.535,109.026,155.396,109.026,155.396z"/>
<path id="q" fill="#004399" d="M119.813,145.715c-1.049-1.206-2.606-1.845-4.2-1.725c-1.594-0.12-3.151,0.519-4.2,1.725
	c-1.853,2.44-1.853,5.816,0,8.256c1.058,1.192,2.611,1.82,4.2,1.7c1.589,0.12,3.142-0.508,4.2-1.7
	C121.666,151.531,121.666,148.155,119.813,145.715 M117.743,152.567c-0.982,1.174-2.731,1.33-3.905,0.347
	c-0.126-0.105-0.242-0.221-0.347-0.347c-0.98-1.682-0.98-3.761,0-5.443c0.999-1.174,2.76-1.316,3.934-0.318
	c0.114,0.097,0.221,0.203,0.318,0.318C118.716,148.808,118.716,150.883,117.743,152.567"/>
<path id="r" fill="#004399" d="M122.701,155.277v-10.888h2.449v2.272c0.379-0.715,0.874-1.362,1.463-1.917
	c0.58-0.458,1.307-0.691,2.045-0.656h0.224v2.686c-0.152-0.012-0.32-0.029-0.32-0.029l-0.36-0.013
	c-1.019-0.117-2.011,0.375-2.534,1.257c-0.279,0.657-0.402,1.37-0.36,2.082v5.206L122.701,155.277L122.701,155.277z"/>
<path id="s" fill="#004399" d="M140.022,150.207c0.008-0.596-0.025-1.192-0.1-1.784c-0.115-0.81-0.413-1.584-0.871-2.262
	c-0.462-0.702-1.113-1.26-1.878-1.61c-0.815-0.352-1.695-0.527-2.582-0.514c-1.455-0.053-2.868,0.493-3.908,1.512
	c-1.07,1.198-1.613,2.776-1.508,4.379c-0.15,1.637,0.461,3.252,1.656,4.381c1.09,0.888,2.457,1.367,3.863,1.352
	c1.539,0.089,3.041-0.495,4.115-1.6c0.491-0.481,0.84-1.09,1.006-1.757h-2.69c-0.152,0.282-0.352,0.535-0.592,0.747
	c-0.498,0.386-1.116,0.583-1.745,0.557c-0.603,0.018-1.198-0.137-1.715-0.447c-0.832-0.561-1.311-1.516-1.262-2.518v-0.178h8.21
	c0-0.086,0.006-0.174,0.006-0.258 M131.868,148.837l0.024-0.192c0.079-0.675,0.371-1.308,0.833-1.806
	c0.506-0.48,1.187-0.728,1.883-0.686c0.674-0.021,1.333,0.205,1.852,0.636c0.528,0.48,0.834,1.155,0.848,1.868l0.01,0.18
	L131.868,148.837L131.868,148.837z"/>
<path id="t" fill="#004399" d="M102.876,115.571c-3.666-3.842-5.935-8.805-6.44-14.091c-0.045-0.27-0.055-0.423-0.089-0.693V74.315
	h-8.079v27.246c0.241,5.583,2.26,10.944,5.761,15.3c0.094,0.133,0.158,0.212,0.251,0.346h17.288V74.315h-8.692V115.571z"/>
<path id="u" fill="#004399" d="M136.76,99.068c6.743-6.901,6.615-17.961-0.285-24.705l-0.05-0.048h-16.857v42.725l8.692-0.092V99.41
	l4.455,17.538h8.861l-5.062-17.619C136.607,99.229,136.666,99.166,136.76,99.068 M132.103,90.885
	c-0.735,2.045-2.162,3.769-4.035,4.871V78.351c0.834,0.659,1.588,1.413,2.247,2.247c1.49,1.766,2.383,3.958,2.553,6.263
	c0.05,1.382-0.212,2.758-0.769,4.024"/>
</svg>
