<?xml version="1.0" encoding="utf-8"?>
<!-- Generator: Adobe Illustrator 26.2.1, SVG Export Plug-In . SVG Version: 6.00 Build 0)  -->
<svg version="1.1" id="a" xmlns="http://www.w3.org/2000/svg" xmlns:xlink="http://www.w3.org/1999/xlink" x="0px" y="0px"
	 width="230px" height="230px" viewBox="0 0 230 230" enable-background="new 0 0 230 230" xml:space="preserve">
<path id="b" fill="#231815" d="M113.122,100.743c-0.1-3.909-1.97-7.562-5.084-9.928c-4.005-3.211-9.255-4.815-15.75-4.812
	c-0.841,0-1.7,0.032-2.586,0.086l-1.644,0.1c-0.338,0-1.843,0.186-1.851,0.186c-4.256,0.482-8.422,1.562-12.376,3.209
	c-4.988,2.095-8.582,4.759-10.781,7.992c-1.226,1.706-1.89,3.751-1.9,5.852c0,0.127,0,0.257,0.008,0.384
	c0.125,3.128,1.486,6.078,3.784,8.203c2.264,2.23,4.479,3.365,6.637,3.365c0.124,0,0.248-0.006,0.364-0.01l0.12-0.009
	c0.027,0.008,0.055,0.01,0.083,0.008c0.137,0.006,0.273-0.036,0.382-0.12c0.102-0.094,0.158-0.227,0.155-0.366v-0.013
	c-0.034-0.258-0.227-0.466-0.481-0.52c-0.911-0.14-1.798-0.412-2.631-0.806c-3.237-1.433-5.296-4.672-5.218-8.211
	c0-0.142-0.008-0.279-0.011-0.413c0.009-2.263,0.727-4.466,2.053-6.3c2.319-3.264,5.447-5.869,9.077-7.559
	c3.365-1.631,6.984-2.674,10.7-3.084l0,0c0.206,0,1.914-0.188,1.918-0.188c0.649-0.039,1.3-0.06,1.937-0.06
	c2.461-0.015,4.912,0.313,7.282,0.974c3.041,0.855,5.831,2.429,8.134,4.591c2.654,2.428,4.212,5.828,4.317,9.424
	c0,0.137,0.008,0.283,0.008,0.427c-0.029,3.384-1.191,6.661-3.3,9.308c-2.053,2.311-4.576,4.156-7.4,5.411
	c-3.535,1.604-7.312,2.61-11.176,2.976l-0.728,0.045c2.384-7.288,4.872-16.222,5.766-23.2c0.154-1.023,0.25-2.053,0.289-3.087
	v-0.152c0.058-0.615-0.393-1.16-1.008-1.218c-0.063-0.006-0.126-0.007-0.189-0.002c-0.041,0.008-0.086,0.008-0.138,0.013
	c-1.348,0.068-2.2,0.991-2.444,2.586c-0.278,2-0.458,3.4-0.541,4.2c-0.338,2.438-0.762,4.962-1.287,7.567
	c-2.17,10.634-5.882,22.16-9.365,29.281c-4.134,8.507-8.609,12.842-13.372,13.124c-0.154,0.013-0.3,0.018-0.447,0.018
	c-2.182,0.009-4.197-1.166-5.262-3.07c-1.369-2.374-2.081-5.07-2.065-7.81c-0.015-0.337-0.023-0.685-0.023-1.022
	c-0.029-3.317,0.646-6.603,1.979-9.64c1.67-3.742,3.859-5.64,6.584-5.805c0.1-0.006,0.2-0.01,0.289-0.01
	c0.853-0.104,1.682,0.332,2.079,1.095c0.3,0.621,0.5,1.1,0.623,1.434l0.071,0.178l0.173-0.084c0.214-0.117,0.248-0.344,0.256-0.614
	v-0.066c0.004-1.102-0.527-2.137-1.423-2.778c-0.734-0.557-1.627-0.865-2.549-0.878c-0.082,0-0.161,0-0.251,0.006
	c-3.277,0.2-5.924,2.141-7.9,5.758c-1.717,3.184-2.585,6.756-2.522,10.373c0,0.328,0,0.67,0.015,1.014
	c0.15,4.031,1.16,7.28,3.04,9.722c1.596,2.201,4.17,3.48,6.888,3.425h0.019c0.221,0,0.443-0.008,0.672-0.019
	c8.877-0.559,15.525-10.84,21.565-28.766c4.462-0.119,8.857-1.124,12.927-2.956c3.466-1.643,6.578-3.948,9.16-6.785
	c2.749-3.196,4.292-7.255,4.361-11.47c0-0.174,0-0.345-0.011-0.5 M175.28,113.626c-0.39,0.02-0.7,0.364-1.1,0.961
	c-1.17,1.906-2.658,3.597-4.4,5c-1.653,1.479-3.761,2.351-5.976,2.471c-2.428-0.011-3.607-1.593-3.63-5.075
	c-0.003-0.931,0.151-1.856,0.455-2.736c2.768-0.321,5.393-1.401,7.586-3.121c1.238-0.851,2.326-1.901,3.22-3.108
	c0.164-0.217,0.302-0.452,0.413-0.7c0.07-0.16,0.118-0.328,0.143-0.5c0.098-0.402,0.147-0.815,0.146-1.229
	c0.03-1.975-0.761-3.176-2.852-3.268c-0.305-0.004-0.609,0.023-0.909,0.079c-0.413,0.124-0.863,0.27-1.366,0.475
	c-0.494,0.171-0.969,0.391-1.419,0.657c-1.321,0.662-2.517,1.55-3.532,2.624c-1.845,1.721-3.192,3.907-3.9,6.328
	c-0.462-0.178-0.819-0.324-1.078-0.431l-0.435-0.19l0.214,0.43c0.231,0.519,0.563,0.988,0.976,1.378
	c-0.266,1.347-0.409,2.716-0.428,4.089c-0.114,1.574,0.295,3.142,1.163,4.461c0.855,1.039,2.157,1.604,3.5,1.519h0.016
	c2.244,0,4.688-0.965,7.327-2.868c2.196-1.543,4.084-3.483,5.566-5.721c0.273-0.36,0.457-0.779,0.537-1.223
	c0-0.093-0.041-0.293-0.24-0.3 M163.963,107.856c1.185-1.538,2.618-2.868,4.239-3.937c0.272-0.204,0.576-0.362,0.9-0.466
	c0.024-0.009,0.049-0.015,0.075-0.019c0.108-0.009,0.341,0.188,0.51,0.571c0.187,0.437,0.285,0.906,0.289,1.381
	c-0.004,0.702-0.18,1.392-0.514,2.009c-0.623,1.033-1.406,1.96-2.32,2.747c-2.132,1.888-4.193,2.827-6.182,2.846
	c0.722-1.86,1.736-3.593,3.006-5.132 M161.695,125.174c-2.556-0.395-5.139-0.586-7.725-0.571c-1.452-2.708-2.582-4.75-3.37-6.126
	c1.855-1.725,3.341-3.809,4.369-6.124c1.188-2.244,1.983-4.675,2.35-7.188c3.194-1.532,4.842-3.772,4.838-6.65
	c-0.026-1.469-0.139-2.312-0.807-2.395c-0.244,0.023-0.315,0.228-0.364,0.422c-0.052,0.294-0.074,0.593-0.067,0.892
	c0,2-1.115,3.724-3.424,5.19c0.008-0.119,0.008-0.237,0.008-0.359c-0.015-0.959-0.204-1.908-0.556-2.8
	c-0.524-1.621-2.079-2.682-3.78-2.579c-2.391-0.015-4.242,1.233-5.488,3.637c-1.03,2.095-1.535,4.409-1.471,6.742v2.089
	c-1.228,1.354-2.316,2.828-3.247,4.4c-0.266,0.039-0.454,0.255-0.661,0.585c-3.644,5.31-6.25,7.947-7.462,7.9
	c-0.458,0-0.777-0.233-1.029-0.8c-0.299-0.848-0.427-1.747-0.379-2.645c-0.016-3.179,0.596-6.329,1.8-9.271
	c2.361-1.783,3.585-3.592,3.588-5.437c0.043-0.655-0.205-1.295-0.679-1.749c-0.564-0.427-1.264-0.634-1.97-0.584
	c-3.623,0-7.17,1.983-10.631,5.89s-5.216,7.703-5.216,11.348c0,0.075,0,0.143,0.011,0.22c-1.096,1.096-2.532,1.787-4.072,1.961
	c-0.819-0.019-1.209-0.548-1.231-1.92c0-3.474,2.98-11.056,8.971-22.623c1.528-2.919,2.443-4.676,2.744-5.269
	c0.461-0.726,2.9-5.332,2.9-5.335l3.077-6.269c0.04-0.128,0.063-0.26,0.067-0.394c-0.015-0.546-0.552-0.751-1.317-0.753
	c-1.382,0-2.324,0.372-2.752,1.171c-1.182,2.117-2.245,4.146-3.172,6.1c-2.244,4.606-4.213,8.88-5.908,12.823
	c-0.889,2.112-1.618,3.928-2.218,5.456c-0.543,0.863-1.15,1.684-1.816,2.456c-0.548,0.691-0.961,1.222-1.235,1.586
	c-0.282,0.4-0.409,0.5-0.451,0.716c-0.005,0.099,0.031,0.196,0.1,0.268c0.071,0.066,0.166,0.098,0.262,0.09
	c0.44-0.03,0.95-0.494,1.7-1.4c-1.918,5.316-2.883,9.075-2.886,11.308c-0.068,0.927,0.235,1.844,0.844,2.547
	c0.679,0.62,1.583,0.931,2.5,0.862c1.568-0.07,3.044-0.763,4.1-1.924c0.098,0.343,0.257,0.666,0.469,0.953
	c0.508,0.624,1.288,0.963,2.091,0.909c2.736-0.013,5.3-2.594,7.778-7.648c-0.212,1.084-0.327,2.184-0.342,3.288
	c-0.022,1.195,0.248,2.378,0.786,3.445c0.486,1.118,1.581,1.849,2.8,1.869h0.015c1.9-0.028,4.295-2.128,7.332-6.268
	c-0.222,0.807-0.338,1.638-0.346,2.475c-0.052,0.713,0.17,1.418,0.62,1.973c0.488,0.479,1.157,0.725,1.839,0.677
	c1.7,0,3.551-0.857,5.57-2.547l1.911,4.809c-12.551,0.381-22.085,4.352-28.603,11.912c-2.038,2.386-3.2,4.339-3.465,5.922
	c-0.088,0.576-0.13,1.158-0.127,1.74c0.007,4.83,4.073,7.211,11.907,7.214c5.796-0.127,11.453-1.797,16.388-4.84
	c6.374-3.69,9.6-8.1,9.6-13.219c-0.135-2.557-0.835-5.052-2.049-7.306c0.788,0.015,1.892,0.088,3.318,0.219
	c1.614,0.15,2.819,0.224,3.633,0.224c0.669,0,1.164-0.139,1.191-0.622c-0.057-0.422-0.481-0.531-1.161-0.677 M131.953,109.493
	c-0.008,0.012-0.014,0.025-0.019,0.039c-0.049,0.12-0.27,0.674-0.48,1.182c-0.1,0.261-0.2,0.507-0.274,0.7
	c-0.034,0.09-0.068,0.166-0.09,0.219c-0.011,0.028-0.015,0.053-0.019,0.064s0,0.008-0.007,0.008
	c-0.007,0.008-0.011,0.018-0.012,0.028c-2.481,5.9-5.169,8.5-7.695,8.485c-0.565,0.083-1.092-0.307-1.175-0.873
	c-0.008-0.053-0.012-0.107-0.011-0.16v-0.032l-0.019-0.03c-0.002-0.019-0.002-0.037,0-0.056c-0.011-0.057-0.015-0.116-0.012-0.174
	c-0.001-0.369,0.047-0.737,0.143-1.094c0.454-2.14,2.068-4.939,4.9-8.4c3.356-4.125,6.13-6.152,8.217-6.152h0.015
	c0.822,0.027,1.137,0.366,1.156,1.29c-0.005,0.545-0.129,1.082-0.364,1.574c0.007-0.086,0.022-0.169,0.022-0.248
	c0-0.4-0.187-0.741-0.555-0.741c-1.053,0.15-1.957,0.825-2.4,1.792c-0.482,0.834-0.919,1.694-1.307,2.576 M148.172,104.396
	c0.423-1.299,1.047-2.524,1.85-3.63c1.04-1.541,2.046-2.273,2.954-2.273h0.008c0.53-0.002,1.003,0.332,1.179,0.831
	c0.328,0.874,0.473,1.806,0.428,2.739c-0.005,0.62-0.045,1.239-0.121,1.854l-3.663,2.117c-1.159,0.644-2.238,1.423-3.213,2.322
	c-0.008-0.111-0.015-0.22-0.015-0.336C147.59,106.789,147.79,105.567,148.172,104.396 M144.302,119.833
	c-0.683-0.006-1.01-0.453-1.04-1.665c0-1.419,1.07-3.643,3.262-6.592c0.164,1.116,0.425,2.216,0.78,3.287
	c0.17,0.463,0.6,1.586,1.284,3.376C147.382,119.242,145.87,119.804,144.302,119.833 M147.594,110.18
	c2.034-1.639,4.279-2.998,6.674-4.041c-0.174,1.985-0.67,3.929-1.468,5.755c-0.639,1.895-1.641,3.647-2.95,5.159
	C148.784,114.877,148.025,112.564,147.594,110.18 M145.225,144.654c-5.086,3.671-9.904,5.505-14.455,5.5
	c-2.1,0.026-4.169-0.515-5.987-1.567c-1.906-0.877-3.137-2.774-3.161-4.872c0.022-0.72,0.168-1.43,0.432-2.1
	c1.925-5.169,6.035-9.114,12.375-11.86c5.477-2.236,11.309-3.479,17.222-3.67c0.896,1.957,1.476,4.044,1.716,6.183
	c0,4.33-2.688,8.457-8.157,12.387"/>
</svg>
