<?xml version="1.0" encoding="utf-8"?>
<!-- Generator: Adobe Illustrator 26.2.1, SVG Export Plug-In . SVG Version: 6.00 Build 0)  -->
<svg version="1.1" id="a" xmlns="http://www.w3.org/2000/svg" xmlns:xlink="http://www.w3.org/1999/xlink" x="0px" y="0px"
	 width="230px" height="230px" viewBox="0 0 230 230" enable-background="new 0 0 230 230" xml:space="preserve">
<rect id="b" x="29.233" y="114.262" fill="#20445B" width="171.533" height="0.443"/>
<path id="c" fill="#20445B" d="M109.683,96.488c0.098,0.034,0.191,0.082,0.275,0.143C109.875,96.569,109.782,96.52,109.683,96.488"
	/>
<path id="d" fill="#20445B" d="M109.805,97.766c0,0.011,0,0.021,0,0.032C109.805,97.787,109.805,97.777,109.805,97.766"/>
<path id="e" fill="#20445B" d="M109.183,96.395c0.08,0,0.161,0.014,0.232,0.022C109.342,96.409,109.263,96.399,109.183,96.395"/>
<path id="f" fill="#20445B" d="M110.291,97.134c0.017,0.066,0.029,0.133,0.036,0.2C110.319,97.267,110.307,97.2,110.291,97.134"/>
<path id="g" fill="#20445B" d="M100.229,108.996c-0.925-0.002-1.848-0.074-2.762-0.218c-0.166-0.028-0.32-0.05-0.445-0.068
	c0.008,0,0.016-0.004,0.02-0.011h-0.024c1.097-0.463,2.078-1.163,2.873-2.049c0.85-0.93,1.607-1.941,2.262-3.017
	c0.161-0.253,0.317-0.503,0.466-0.75h0.014c0,0,0-0.014,0.011-0.014c1.08-0.09,2.136-0.369,3.119-0.825
	c2.687-1.192,4.563-3.06,4.563-4.541c0-0.746-0.436-1.1-1.334-1.1c-1.792,0-3.574,1.618-4.254,2.314
	c-1.05,1.168-1.983,2.437-2.785,3.788c-0.991,0.04-1.967-0.246-2.78-0.814c-0.491-0.35-0.776-0.921-0.76-1.524
	c0.035-0.981,0.634-1.853,1.537-2.239l0.269-0.129l0.033-0.021c0.076-0.043,0.157-0.093,0.157-0.15
	c-0.017-0.097-0.102-0.167-0.2-0.165c-1.253,0.288-2.177,1.351-2.287,2.632c0.008,0.803,0.416,1.549,1.087,1.989
	c0.74,0.464,1.585,0.733,2.457,0.782c0.08,0,0.159,0.017,0.237,0.021h0.013c-0.864,1.453-2.467,4.149-4.376,5.277l-0.419,0.207
	c-0.081,0.036-0.164,0.079-0.249,0.114l-0.419,0.208l-3.458-0.2h-0.448c-0.368-0.019-0.736,0.017-1.093,0.107
	c-0.066,0.033-0.111,0.097-0.119,0.171c0,0.128,0.285,0.364,0.639,0.45c0.455,0.131,0.928,0.185,1.4,0.161l1.669-0.143l0.618-0.107
	l0.112,0.014l2.784,0.289l1.314,0.057c1.173,0.056,2.342-0.165,3.413-0.646c0.513-0.261,0.513-0.386,0.513-0.457
	c0-0.043-0.011-0.111-0.056-0.111c0,0-0.264,0.15-0.3,0.179c-0.451,0.213-0.931,0.357-1.425,0.428l-0.334,0.025
	c-0.308,0.039-0.617,0.062-0.927,0.068C100.555,108.978,100.229,108.996,100.229,108.996z M102.878,102.444
	c0.728-1.293,1.579-2.513,2.542-3.642c0.566-0.618,2.053-2.057,3.628-2.057c0.382-0.059,0.74,0.203,0.799,0.585
	c0.01,0.068,0.011,0.136,0.001,0.204c0,1.347-1.987,2.818-2.6,3.232c-1.287,0.928-2.789,1.513-4.365,1.7h-0.024L102.878,102.444z"/>
<path id="h" fill="#20445B" d="M110.065,96.723c0.067,0.065,0.121,0.141,0.161,0.225C110.185,96.865,110.131,96.789,110.065,96.723"
	/>
<path id="i" fill="#20445B" d="M109.799,97.798c-0.227,1.25-1.994,2.553-2.562,2.949c-1.275,0.913-2.76,1.492-4.317,1.682
	c0.721-1.281,1.565-2.488,2.519-3.606c0.563-0.614,2.043-2.05,3.608-2.05c0.361,0,0.775,0.086,0.775,0.761
	c-0.002,0.078-0.008,0.155-0.018,0.232c0.016-0.077,0.027-0.154,0.034-0.232c0-0.643-0.378-0.775-0.791-0.775
	c-1.658,0-3.224,1.621-3.621,2.053c-0.957,1.13-1.806,2.348-2.535,3.638c1.571-0.188,3.07-0.77,4.356-1.692
	C108.311,100.029,109.609,98.858,109.799,97.798"/>
<path id="j" fill="#20445B" d="M109.958,96.631c0.039,0.027,0.075,0.058,0.107,0.093C110.033,96.689,109.997,96.658,109.958,96.631"
	/>
<path id="k" fill="#20445B" d="M109.416,96.417c0.09,0.019,0.18,0.043,0.268,0.071C109.596,96.459,109.507,96.436,109.416,96.417"/>
<path id="l" fill="#20445B" d="M110.227,96.949c0.026,0.06,0.048,0.122,0.066,0.185C110.275,97.071,110.253,97.009,110.227,96.949"
	/>
<path id="m" fill="#20445B" d="M96.67,108.485c0.082-0.039,0.166-0.078,0.248-0.114c0.141-0.071,0.279-0.139,0.411-0.214
	c1.851-1.1,3.417-3.667,4.372-5.27c-0.077-0.008-0.155-0.015-0.235-0.025c-0.876-0.033-1.726-0.3-2.463-0.775
	c-0.681-0.438-1.094-1.19-1.1-2c0.107-1.288,1.039-2.358,2.3-2.642c0.105-0.003,0.197,0.071,0.216,0.174
	c0,0.072-0.109,0.129-0.2,0.186l-0.271,0.125c-0.894,0.389-1.488,1.254-1.53,2.228c-0.012,0.599,0.271,1.167,0.757,1.518
	c0.811,0.562,1.784,0.843,2.77,0.8c0.794-1.348,1.722-2.613,2.77-3.774c0.849-0.864,2.576-2.324,4.27-2.324
	c0.063,0,0.126,0.003,0.189,0.01c-0.063-0.011-0.126-0.018-0.189-0.021c-1.805,0-3.594,1.625-4.278,2.324
	c-1.051,1.163-1.98,2.43-2.774,3.782c-0.981,0.027-1.945-0.259-2.751-0.818c-0.484-0.344-0.766-0.906-0.75-1.5
	c0.038-0.97,0.63-1.832,1.521-2.217l0.271-0.129l0.033-0.017c0.084-0.051,0.175-0.1,0.175-0.176
	c-0.021-0.111-0.119-0.191-0.232-0.189c-1.272,0.283-2.21,1.365-2.309,2.664c0.011,0.812,0.425,1.566,1.105,2.01
	c0.805,0.504,1.732,0.778,2.682,0.793c-0.85,1.428-2.453,4.12-4.356,5.252l-1.077,0.518c0,0-0.519-0.029-1.153-0.068
	c0.384,0.025,0.771,0.05,1.157,0.082C96.392,108.614,96.531,108.549,96.67,108.485"/>
<path id="n" fill="#20445B" d="M105.771,102.051c-0.988,0.459-2.049,0.739-3.135,0.828c-0.15,0.236-0.311,0.493-0.48,0.754
	c-0.644,1.084-1.398,2.099-2.251,3.027c-0.792,0.882-1.769,1.579-2.862,2.039c0.121,0.029,0.269,0.05,0.425,0.079
	c0.915,0.131,1.838,0.198,2.762,0.2h0.324l0.927-0.068c0.111-0.011,0.223-0.018,0.332-0.032c0.492-0.079,0.971-0.224,1.423-0.432
	c0.092-0.075,0.195-0.136,0.305-0.182c0.052,0,0.072,0.071,0.072,0.125c0,0.093-0.02,0.217-0.523,0.467
	c-1.071,0.487-2.244,0.71-3.419,0.65c-0.452,0-0.884-0.021-1.314-0.057c-0.268-0.018-0.534-0.043-0.8-0.071l0.792,0.085l1.322,0.054
	c1.177,0.056,2.351-0.167,3.426-0.649c0.489-0.243,0.528-0.375,0.528-0.482c0-0.061-0.021-0.14-0.084-0.14l-0.28,0.158
	c-0.458,0.224-0.948,0.377-1.452,0.453l-1.579,0.111c-1.06-0.01-2.119-0.099-3.166-0.265c1.089-0.46,2.063-1.155,2.853-2.035
	c1.039-1.161,1.951-2.43,2.719-3.785c1.088-0.079,2.153-0.357,3.14-0.821c2.7-1.2,4.58-3.078,4.58-4.566
	c-0.006-0.056-0.015-0.111-0.027-0.165c0.008,0.055,0.013,0.11,0.014,0.165c0,1.442-1.819,3.331-4.572,4.552"/>
<path id="o" fill="#20445B" d="M110.145,102.787c-2.371,0-5.656,3.824-5.656,5.513c0,0.535,0.236,1.171,1.371,1.171
	c1.203-0.069,2.339-0.571,3.2-1.414c0.087-0.075,0.246-0.207,0.246-0.329c0-0.092-0.068-0.192-0.107-0.192l-0.536,0.4
	c-0.75,0.69-1.708,1.112-2.724,1.2c-0.2,0-0.827,0-0.827-0.632c0.173-0.858,0.547-1.662,1.093-2.346l0.029-0.043h0.008
	c3.335-0.346,4.721-1.967,4.721-2.756c-0.003-0.037-0.008-0.074-0.015-0.111c-0.004-0.031-0.012-0.06-0.024-0.089
	c-0.028-0.071-0.071-0.134-0.126-0.186l-0.021-0.014c-0.187-0.12-0.407-0.177-0.628-0.164 M109.672,104.505
	c-0.899,0.674-1.963,1.092-3.08,1.212l-0.106,0.025l0.025-0.032c0.54-0.636,2.184-2.578,3.307-2.578c0.4,0,0.48,0.193,0.48,0.357
	c0,0.371-0.382,0.753-0.634,1"/>
<path id="p" fill="#20445B" d="M106.538,105.732l0.023-0.011h-0.012L106.538,105.732"/>
<path id="q" fill="#20445B" d="M109.691,104.432c-0.899,0.696-1.971,1.135-3.1,1.268l-0.029,0.021
	c1.125-0.127,2.196-0.554,3.1-1.235c0.18-0.186,0.63-0.6,0.63-0.993c-0.004-0.05-0.019-0.099-0.043-0.143
	c0.018,0.045,0.027,0.094,0.027,0.143c0,0.357-0.377,0.736-0.58,0.939"/>
<path id="r" fill="#20445B" d="M109.821,103.161c0.223,0,0.368,0.068,0.425,0.189c-0.096-0.137-0.258-0.213-0.425-0.2
	c-1.1,0-2.7,1.878-3.294,2.571h0.022C107.097,105.071,108.719,103.161,109.821,103.161"/>
<path id="s" fill="#20445B" d="M104.46,108.3c0,0.549,0.243,1.2,1.4,1.2c1.207-0.071,2.349-0.576,3.214-1.421
	c0.091-0.078,0.257-0.218,0.257-0.35c0-0.107-0.077-0.218-0.139-0.218c-0.193,0.119-0.376,0.252-0.548,0.4
	c-0.747,0.685-1.699,1.103-2.709,1.189c-0.342,0-0.8-0.064-0.8-0.6c0.173-0.85,0.546-1.647,1.087-2.325l0.016-0.035
	c3.354-0.35,4.748-1.989,4.748-2.785c0-0.518-0.53-0.593-0.844-0.593c-2.38,0-5.684,3.849-5.684,5.542 M110.917,103.155
	c0.012,0.029,0.02,0.058,0.025,0.089c0.013,0.036,0.023,0.073,0.029,0.111c0,0.846-1.439,2.431-4.733,2.771
	c-0.555,0.692-0.937,1.505-1.116,2.374c0,0.582,0.519,0.611,0.81,0.611c1.013-0.086,1.968-0.506,2.716-1.194
	c0,0,0.525-0.4,0.543-0.4c0.053,0,0.127,0.114,0.127,0.207c0,0.118-0.145,0.25-0.254,0.336c-0.867,0.837-2.003,1.34-3.205,1.421
	c-1.1,0-1.385-0.593-1.385-1.185c0-1.729,3.347-5.528,5.67-5.528c0.223-0.01,0.444,0.053,0.629,0.179l0.021,0.014
	c0.055,0.052,0.098,0.116,0.125,0.186"/>
<path id="t" fill="#20445B" d="M128.914,97.481c0.175,0.171,0.489,0.492,0.55,0.564C129.304,97.836,129.119,97.646,128.914,97.481"
	/>
<path id="u" fill="#20445B" d="M128.304,97.048c0.075,0.046,0.148,0.1,0.223,0.139C128.452,97.145,128.379,97.094,128.304,97.048"/>
<path id="v" fill="#20445B" d="M129.391,98.737c0.019,0.043,0.037,0.075,0.053,0.114c-0.015-0.04-0.031-0.08-0.05-0.118
	L129.391,98.737L129.391,98.737z"/>
<path id="w" fill="#20445B" d="M127.459,96.638c0.125,0.046,0.248,0.098,0.368,0.157C127.705,96.738,127.584,96.684,127.459,96.638"
	/>
<path id="x" fill="#20445B" d="M131.858,96.609c0,0,0.012,0,0.016,0.007L131.858,96.609"/>
<path id="y" fill="#20445B" d="M119.398,99.444c-0.116,0.136-0.228,0.271-0.332,0.414C119.166,99.715,119.282,99.58,119.398,99.444"
	/>
<path id="a_x60_" fill="#20445B" d="M120.045,98.094c0.05-0.035,0.1-0.077,0.15-0.113C120.142,98.017,120.095,98.059,120.045,98.094
	"/>
<path id="aa" fill="#20445B" d="M119.808,99.002c-0.121,0.121-0.238,0.235-0.345,0.361C119.57,99.237,119.687,99.123,119.808,99.002
	"/>
<path id="ab" fill="#20445B" d="M125.876,96.331c0.039-0.002,0.077-0.002,0.116,0C125.953,96.329,125.915,96.329,125.876,96.331"/>
<path id="ac" fill="#20445B" d="M126.734,96.438c0.084,0.022,0.17,0.036,0.253,0.054C126.905,96.474,126.82,96.46,126.734,96.438"/>
<path id="ad" fill="#20445B" d="M122.172,96.917l0.022-0.007L122.172,96.917"/>
<path id="ae" fill="#20445B" d="M120.548,97.748c0.095-0.061,0.188-0.125,0.286-0.182C120.734,97.623,120.643,97.687,120.548,97.748
	"/>
<path id="af" fill="#20445B" d="M121.191,97.373c0.1-0.057,0.2-0.114,0.305-0.161C121.396,97.259,121.296,97.312,121.191,97.373"/>
<path id="ag" fill="#20445B" d="M119.13,108.692l-0.2,0.054l-0.791-0.075l-1.639-0.051c-0.425,0-1.889,0.036-1.994,0.086
	c-0.064,0.022-0.132,0.086-0.132,0.132c0,0.147,0.332,0.525,1.857,0.525c0,0,0.755-0.032,0.775-0.035l1.153-0.143l1.314,0.143
	l0.176,0.018l2.018,0.125c2.224,0.059,4.366-0.844,5.875-2.479c1.466-1.405,2.44-3.245,2.776-5.248
	c0.015-0.1,0.02-0.193,0.027-0.293c0.011-0.136,0.018-0.268,0.018-0.407c0.017-0.928-0.211-1.845-0.661-2.657
	c0.633-0.554,1.329-1.032,2.073-1.424c0.09-0.048,0.148-0.139,0.155-0.24c0-0.071-0.048-0.11-0.148-0.11
	c-0.829,0.385-1.603,0.879-2.3,1.471l-0.7-0.7c-0.972-0.736-2.172-1.109-3.39-1.053c-4.395,0-8.158,3.463-8.158,6.3
	c-0.095,1.267,0.856,2.37,2.122,2.465c0.104,0.008,0.209,0.008,0.313,0.002c1.437-0.113,2.744-0.873,3.551-2.067
	c0.507-0.664,0.812-1.46,0.88-2.292c0-0.433-0.1-0.49-0.206-0.49s-0.11,0.079-0.11,0.164c-0.068,0.837-0.368,1.638-0.866,2.314
	c-0.72,1.151-1.937,1.899-3.289,2.021c-0.939,0.024-1.719-0.717-1.743-1.656c-0.001-0.053,0-0.106,0.003-0.158
	c0-2.553,2.913-6.262,7.484-6.262c1.022-0.019,2.027,0.266,2.888,0.817c0.365,0.221,0.668,0.531,0.881,0.9
	c-1.707,1.628-3.2,3.468-4.441,5.474c-1.051,1.717-2.48,3.172-4.179,4.253c0,0-0.084,0.035-0.2,0.093
	c-0.204,0.11-0.415,0.205-0.633,0.285c-0.117,0.05-0.195,0.089-0.195,0.089L119.13,108.692L119.13,108.692z M119.793,108.785h0.007
	c-0.006,0-0.009-0.007-0.009-0.007h0.012v-0.008c1.547-0.539,2.945-1.435,4.08-2.617c0.98-1.059,1.842-2.221,2.57-3.467
	c0.315-0.518,1.239-1.9,1.278-1.914c0.431-0.646,0.916-1.255,1.45-1.82c0.063-0.072,0.131-0.143,0.2-0.222v0.007
	c0.006-0.007,0.009-0.007,0.013-0.014c0.276,0.587,0.4,1.234,0.359,1.882c0,2.724-2.093,6.659-5.1,7.951
	c-0.721,0.291-1.493,0.437-2.271,0.429l-0.507-0.029c-0.184,0-0.375-0.014-0.58-0.028l-0.603-0.043l-0.9-0.086v-0.014H119.793
	L119.793,108.785z"/>
<path id="ah" fill="#20445B" d="M119.925,98.873c0.066-0.064,0.141-0.121,0.207-0.178C120.066,98.752,119.991,98.809,119.925,98.873
	"/>
<path id="ai" fill="#20445B" d="M121.299,108.917l0.58,0.028c0.187,0.007,0.363,0.015,0.507,0.015
	c0.776,0.008,1.546-0.138,2.264-0.432c3.062-1.311,5.093-5.253,5.093-7.934c0.036-0.597-0.067-1.195-0.3-1.746
	c0.219,0.555,0.317,1.15,0.288,1.746c0,2.714-2.091,6.637-5.087,7.923c-0.717,0.291-1.484,0.436-2.258,0.428l-1.694-0.085
	l-0.841-0.082c1.537-0.541,2.926-1.436,4.053-2.613c0.982-1.061,1.845-2.224,2.576-3.471c0.341-0.557,1.226-1.864,1.274-1.91
	c0.491-0.724,1.039-1.408,1.638-2.046l-0.006-0.007c-0.069,0.071-0.135,0.142-0.2,0.214c-0.526,0.573-1.006,1.187-1.437,1.835
	c-0.035,0.014-0.937,1.343-1.278,1.9c-0.729,1.251-1.594,2.417-2.579,3.477c-1.138,1.187-2.541,2.086-4.094,2.625l0,0l0.9,0.093
	l0.607,0.043"/>
<path id="aj" fill="#20445B" d="M119.627,104.732c1.347-0.12,2.56-0.864,3.278-2.01c0.497-0.674,0.796-1.473,0.864-2.307
	c0-0.071,0-0.182,0.123-0.182s0.218,0.057,0.218,0.507c-0.066,0.835-0.371,1.634-0.88,2.3c-0.812,1.196-2.123,1.957-3.564,2.07
	c-1.271,0.082-2.369-0.882-2.451-2.154c-0.007-0.108-0.006-0.216,0.002-0.323c0.21-1.862,1.249-3.53,2.828-4.539
	c-1.59,1.001-2.636,2.672-2.844,4.539c-0.093,1.284,0.873,2.4,2.157,2.493c0.103,0.007,0.206,0.008,0.308,0.002
	c1.446-0.11,2.763-0.876,3.574-2.078c0.509-0.669,0.816-1.471,0.882-2.31c0-0.461-0.11-0.518-0.23-0.518
	c-0.137,0-0.137,0.122-0.137,0.193c-0.07,0.832-0.368,1.628-0.863,2.3c-0.715,1.143-1.922,1.887-3.265,2.01
	c-0.923,0.023-1.69-0.706-1.713-1.63c-0.001-0.052,0-0.104,0.003-0.155c0.056-1.12,0.458-2.195,1.149-3.078
	c-0.696,0.882-1.103,1.957-1.165,3.078c-0.066,0.926,0.631,1.73,1.557,1.796c0.056,0.004,0.113,0.005,0.169,0.004"/>
<path id="ak" fill="#20445B" d="M120.832,97.566c0.118-0.068,0.243-0.128,0.362-0.193C121.075,97.438,120.95,97.498,120.832,97.566"
	/>
<path id="al" fill="#20445B" d="M125.876,96.331c-0.161-0.014-0.314-0.032-0.486-0.032c-1.095,0.006-2.18,0.213-3.2,0.61
	c1.021-0.394,2.106-0.598,3.2-0.6c0.17,0,0.329,0,0.486,0.018"/>
<path id="am" fill="#20445B" d="M121.5,97.217c0.218-0.11,0.445-0.2,0.671-0.3C121.945,97.01,121.718,97.103,121.5,97.217"/>
<path id="an" fill="#20445B" d="M119.808,99.002c0.039-0.043,0.077-0.086,0.118-0.129C119.885,98.916,119.847,98.959,119.808,99.002
	"/>
<path id="ao" fill="#20445B" d="M120.191,97.98c0.113-0.082,0.232-0.157,0.352-0.232C120.423,97.823,120.304,97.898,120.191,97.98"
	/>
<path id="ap" fill="#20445B" d="M116.227,109.392l0.755-0.036c0.02,0,1.173-0.146,1.173-0.146l1.312,0.146l0.179,0.014l0.46,0.029
	c-0.192-0.014-0.4-0.036-0.639-0.057l-1.314-0.143c-0.378,0.057-0.773,0.107-1.151,0.143c-0.268,0.018-0.525,0.036-0.775,0.036
	c-1.637,0-1.871-0.432-1.871-0.54c0.017-0.071,0.073-0.127,0.145-0.142c0.665-0.064,1.332-0.094,2-0.09
	c0.561,0,1.1,0.015,1.639,0.05l0.791,0.072c0.19-0.043,0.377-0.095,0.561-0.157c0.068-0.023,0.135-0.049,0.2-0.079
	c0.183-0.085,0.45-0.2,0.634-0.285c0.062-0.036,0.126-0.068,0.19-0.107c1.7-1.076,3.128-2.53,4.174-4.249
	c1.242-2.007,2.736-3.845,4.447-5.471c-0.221-0.358-0.522-0.66-0.88-0.881c-0.861-0.545-1.862-0.826-2.881-0.807
	c-1.934-0.01-3.803,0.703-5.238,2c1.438-1.292,3.305-2.002,5.238-1.993c1.016-0.019,2.015,0.261,2.873,0.807
	c0.352,0.225,0.651,0.525,0.876,0.878c-1.715,1.617-3.209,3.453-4.445,5.46c-1.048,1.714-2.474,3.166-4.169,4.245l-1.025,0.465
	l-0.36,0.107l-0.2,0.057c0.007-0.008-0.786-0.079-0.786-0.079l0,0l-1.639-0.05c-0.668-0.003-1.335,0.028-2,0.093
	c-0.075,0.018-0.134,0.077-0.15,0.153c0,0.008,0.02,0.554,1.884,0.554"/>
<path id="aq" fill="#20445B" d="M119.464,99.362c-0.023,0.026-0.044,0.054-0.064,0.082C119.42,99.416,119.441,99.388,119.464,99.362
	"/>
<path id="ar" fill="#20445B" d="M128.914,97.481l-0.116-0.118c-0.089-0.068-0.182-0.114-0.272-0.175
	c0.088,0.061,0.176,0.122,0.263,0.186C128.835,97.413,128.873,97.449,128.914,97.481"/>
<path id="as" fill="#20445B" d="M127.827,96.795c0.162,0.079,0.321,0.157,0.477,0.253C128.15,96.954,127.991,96.869,127.827,96.795"
	/>
<path id="at" fill="#20445B" d="M125.992,96.334c0.25,0.017,0.498,0.051,0.743,0.1C126.49,96.384,126.242,96.35,125.992,96.334"/>
<path id="au" fill="#20445B" d="M131.938,96.723c-0.005,0.108-0.066,0.205-0.161,0.257c-0.745,0.387-1.44,0.863-2.069,1.418
	c0.456,0.806,0.686,1.72,0.664,2.646c0,0.139-0.021,0.271-0.032,0.407c-0.007,0.1-0.012,0.2-0.026,0.292
	c-0.321,2.01-1.293,3.859-2.766,5.263c-1.516,1.632-3.659,2.535-5.886,2.478h-0.318l0.318,0.018c2.234,0.06,4.384-0.847,5.9-2.489
	c0.289-0.268,2.828-2.76,2.828-5.966c0.022-0.929-0.208-1.846-0.668-2.653c0.634-0.542,1.326-1.012,2.064-1.4
	c0.101-0.049,0.167-0.151,0.169-0.264c-0.003-0.048-0.034-0.089-0.078-0.107c0.041,0.019,0.067,0.062,0.064,0.107"/>
<path id="av" fill="#20445B" d="M126.992,96.492c0.166,0.043,0.321,0.093,0.471,0.146C127.31,96.585,127.151,96.538,126.992,96.492"
	/>
<path id="aw" fill="#20445B" d="M131.778,96.599c0.027,0,0.054,0.005,0.08,0.011c-0.025-0.013-0.052-0.02-0.08-0.022
	c-0.833,0.378-1.606,0.876-2.294,1.478c0,0-0.011-0.014-0.02-0.021c0.01,0.011,0.02,0.023,0.027,0.036
	C130.181,97.483,130.951,96.984,131.778,96.599"/>
<path id="ax" fill="#20445B" d="M135.007,103.217v0.007h0.009L135.007,103.217z"/>
<path id="ay" fill="#20445B" d="M136.801,102.072c-0.01,0.007-0.017,0.017-0.02,0.029c0.182-0.011,0.209-0.165,0.213-0.258
	c-0.007,0-0.02,0-0.023,0.022C136.971,101.966,136.9,102.053,136.801,102.072"/>
<path id="b_x60_" fill="#20445B" d="M136.591,101.917l0.011,0.029c0.03,0.082,0.055,0.142,0.157,0.142
	c0.017,0,0.021-0.014,0.037-0.021c0.096-0.025,0.164-0.108,0.17-0.207c0.005-0.016,0.008-0.033,0.01-0.05l0.073-1.942
	c0-0.029-0.017-0.129-0.092-0.129s-2.526,1.478-3.246,1.964c-0.075,0.064-0.144,0.114-0.144,0.221
	c-0.01,0.081,0.047,0.154,0.127,0.164c0.013,0.002,0.027,0.002,0.04,0l0.174-0.053c0,0,2-1.146,2.367-1.342l0.052-0.033v0.007
	l0.012-0.01L136.591,101.917L136.591,101.917z"/>
<path id="ba" fill="#20445B" d="M136.338,100.68L136.338,100.68l0.009,0.04c0-0.014-0.006-0.036-0.006-0.04l0,0"/>
<path id="bb" fill="#20445B" d="M130.359,109.456c1.724,0,3.858-3.145,4.286-3.777l0.227,0.082l0.168-0.029
	c-0.011-0.121-0.022-0.225-0.022-0.318c0.004-0.231,0.062-0.459,0.168-0.664c0.362-0.9,0.375-0.957,0.375-1.221
	c0.019-0.395-0.286-0.73-0.681-0.749c-0.044-0.002-0.089,0-0.133,0.006c-0.973,0-2.73,1.3-3.98,2.76l-0.166,0.2
	c-0.047,0.054-0.091,0.111-0.132,0.171c-0.074,0.093-0.151,0.193-0.223,0.286c-0.507,0.613-0.827,1.359-0.921,2.149
	c0,0.732,0.346,1.107,1.034,1.107 M134.729,103.118l0.1,0.032c0.031,0.002,0.061,0.008,0.09,0.018l0.107,0.032l-0.016,0.039
	l-0.016,0.015c-0.216,0.204-0.37,0.463-0.447,0.75l-0.082,0.556l-0.034,0.222c-0.008,0.065-0.019,0.129-0.034,0.193l-0.028,0.2
	c-0.159,0.457-2.466,3.934-3.921,3.934c-0.275,0.03-0.521-0.169-0.551-0.444c-0.003-0.026-0.004-0.052-0.002-0.077
	c0-1.185,3.285-5.47,4.836-5.47"/>
<path id="bc" fill="#20445B" d="M134.791,105.76c-0.025-0.011-0.05-0.018-0.075-0.028
	C134.739,105.745,134.765,105.755,134.791,105.76"/>
<path id="bd" fill="#20445B" d="M129.905,108.585c-0.01,0.272,0.203,0.5,0.474,0.509c0.022,0,0.045,0,0.067-0.002
	c1.439,0,3.742-3.456,3.906-3.928c0.019-0.063,0.034-0.127,0.043-0.192l0.034-0.193c0.012-0.263,0.045-0.525,0.1-0.782
	c0.078-0.299,0.242-0.568,0.472-0.775l-0.033,0.014c-0.221,0.204-0.378,0.467-0.455,0.757l-0.08,0.557l-0.1,0.611
	c-0.156,0.46-2.449,3.916-3.892,3.916c-0.265,0.026-0.501-0.168-0.527-0.433c-0.002-0.02-0.003-0.04-0.002-0.059
	c0-1.178,3.271-5.438,4.812-5.438l0.278,0.068l0.007-0.007c-0.029-0.022-0.064-0.037-0.1-0.043l-0.089-0.018
	c-0.033-0.009-0.066-0.013-0.1-0.014c-1.493,0-4.824,4.227-4.824,5.452"/>
<path id="be" fill="#20445B" d="M133.741,102.117l0.188-0.061c0,0,2.363-1.36,2.4-1.378v-0.011c-0.01,0.008-0.025,0.011-0.052,0.026
	l-2.36,1.353c-0.053,0.037-0.116,0.057-0.18,0.057c-0.088,0.011-0.169-0.051-0.18-0.14c-0.002-0.013-0.002-0.026,0-0.039
	c0-0.128,0.091-0.178,0.18-0.25c0.666-0.45,3.149-1.949,3.222-1.949c0.09,0,0.107,0.11,0.107,0.143l-0.073,1.942v0.028
	c0.01-0.007,0.018-0.01,0.018-0.028l0.072-1.942c0-0.04-0.023-0.158-0.122-0.158c-0.08,0-2.583,1.514-3.231,1.946
	c-0.111,0.09-0.184,0.147-0.184,0.268c-0.011,0.095,0.057,0.182,0.153,0.193c0.013,0.002,0.027,0.002,0.04,0"/>
<path id="bf" fill="#20445B" d="M136.582,101.929l-0.239-1.207c0.021,0.186,0.227,1.207,0.227,1.207l0.011,0.032
	c0.031,0.078,0.06,0.161,0.183,0.161c0.011,0,0.013-0.011,0.018-0.022s-0.012,0.007-0.018,0.007
	C136.638,102.107,136.62,102.015,136.582,101.929"/>
<path id="bg" fill="#20445B" d="M135.591,103.529c0.018-0.411-0.301-0.759-0.712-0.777c-0.044-0.002-0.089,0-0.132,0.006
	c-1.628,0-5.449,3.613-5.449,5.591c0.004,0.079,0.015,0.158,0.032,0.236c-0.011-0.078-0.018-0.157-0.019-0.236
	c0.099-0.791,0.424-1.537,0.935-2.149c0.072-0.093,0.148-0.193,0.223-0.286c0.045-0.064,0.088-0.118,0.132-0.172l0.166-0.2
	c1.246-1.46,2.991-2.774,3.98-2.774c0.402-0.053,0.772,0.231,0.824,0.633c0.005,0.041,0.007,0.082,0.006,0.124
	c0,0.271-0.021,0.343-0.381,1.228c-0.153,0.306-0.204,0.652-0.144,0.989c-0.058,0.019-0.119,0.031-0.18,0.036
	c-0.028-0.002-0.056-0.01-0.081-0.022l0.081,0.033l0.2-0.036v-0.015c-0.058-0.335-0.008-0.68,0.141-0.985
	c0.37-0.9,0.384-0.964,0.384-1.228"/>
<path id="bh" fill="#20445B" d="M130.359,109.471c-0.05-0.001-0.1-0.006-0.15-0.014c0.049,0.012,0.099,0.021,0.15,0.025
	c1.7,0,3.713-2.9,4.292-3.782l0.066,0.032c-0.028-0.012-0.055-0.028-0.079-0.047C134.138,106.464,132.068,109.471,130.359,109.471"
	/>
<path id="bi" fill="#20445B" d="M137.992,105.343L137.992,105.343c0.056-0.075,0.111-0.146,0.163-0.225
	c-0.081,0.108-0.152,0.2-0.183,0.236c0.006-0.001,0.011-0.003,0.015-0.007"/>
<path id="bj" fill="#20445B" d="M141.636,104.617c0.034-0.043,0.069-0.1,0.11-0.157c-0.057,0.075-0.112,0.15-0.149,0.193
	L141.636,104.617z"/>
<path id="bk" fill="#20445B" d="M145.348,103.597c-0.004,0.018-0.007,0.036-0.009,0.054
	C145.339,103.633,145.339,103.615,145.348,103.597"/>
<path id="bl" fill="#20445B" d="M138.806,103.308c-0.025,0.035-0.053,0.075-0.08,0.106c0.051-0.064,0.087-0.106,0.087-0.106H138.806
	z"/>
<path id="bm" fill="#20445B" d="M138.276,104.05c-0.686,0.95-1.578,2.178-2.228,3.01c-0.177,0.239-0.282,0.386-0.282,0.386
	l-0.684,0.842c-0.182,0.233-0.61,0.761-0.61,1c0,0.089,0.041,0.089,0.094,0.089c0.392-0.066,0.743-0.281,0.98-0.6l0.772-0.943
	l0.542-0.657c0.977-1.214,3.842-4.078,4.708-4.078c0.137-0.011,0.257,0.092,0.268,0.229c0,0.012,0.001,0.024,0,0.035
	c-0.251,0.65-0.625,1.247-1.1,1.757l-0.527,0.661l-0.394,0.5c-0.216,0.25-1.651,2.128-1.962,2.678l-0.121,0.314
	c0,0.114,0.064,0.129,0.109,0.129c0.399-0.051,0.753-0.279,0.964-0.621l1.4-1.914c2.121-2.8,3.936-3.749,4.44-3.749
	c0.084,0,0.284,0.028,0.284,0.235c-0.102,0.421-0.331,0.801-0.654,1.089l-1.04,1.118c-0.627,0.671-1.8,1.921-1.8,2.974
	c0,0.575,0.3,0.9,0.812,0.9c0.908-0.188,1.742-0.636,2.4-1.289l0.23-0.35c-0.002-0.098-0.072-0.182-0.168-0.2
	c0,0-0.16,0.118-0.187,0.143c-0.585,0.656-1.353,1.121-2.205,1.335c-0.216,0.02-0.408-0.138-0.428-0.355
	c-0.002-0.024-0.002-0.049,0-0.073c0-0.307,0.244-0.732,0.939-1.61l0.5-0.6c0.621-0.75,1.564-1.875,1.751-2.2
	c0.162-0.247,0.254-0.534,0.266-0.829c0.031-0.32-0.204-0.604-0.524-0.635c-0.037-0.004-0.074-0.004-0.11,0
	c-0.973,0-2.185,1.085-2.985,1.8c-0.035,0.032-0.073,0.061-0.114,0.086l-0.014,0.011v-0.011c0,0-0.012,0.007-0.016,0
	c0.327-0.395,0.55-0.867,0.646-1.371c0.01-0.283-0.212-0.521-0.495-0.53c-0.023,0-0.046,0-0.069,0.002
	c-0.714,0.14-1.374,0.482-1.9,0.985l-1.363,1.243c0,0-0.208,0.2-0.337,0.3l-0.128,0.121c0.016-0.019,0.031-0.04,0.044-0.061l0,0
	c-0.008,0.007-0.05,0.05-0.05,0.05l0.034-0.043l0,0l1.391-1.885l0.212-0.421c0-0.082-0.03-0.093-0.093-0.107h-1.669
	c-0.268,0.046-0.3,0.218-0.3,0.289s0.021,0.057,0.074,0.057l0.786,0.018h0.452l-0.552,0.75"/>
<path id="bn" fill="#20445B" d="M138.992,104.411c0.209-0.182,0.425-0.382,0.588-0.529
	C139.428,104.011,139.274,104.15,138.992,104.411"/>
<path id="bo" fill="#20445B" d="M139.581,103.086c-0.038,0.075-0.118,0.235-0.163,0.328
	C139.497,103.319,139.553,103.207,139.581,103.086"/>
<path id="bp" fill="#20445B" d="M141.675,102.737c0.29-0.026,0.547,0.188,0.573,0.479c0.002,0.021,0.003,0.043,0.002,0.064
	c-0.065,0.429-0.237,0.834-0.5,1.178c0.276-0.339,0.456-0.746,0.52-1.178c0.012-0.294-0.217-0.541-0.51-0.553
	c-0.027-0.001-0.054,0-0.081,0.003c-0.694,0.126-1.337,0.451-1.851,0.935c-0.016,0.015-0.109,0.1-0.243,0.218
	c0.061-0.05,0.12-0.1,0.187-0.153c0.526-0.509,1.189-0.853,1.907-0.993"/>
<path id="bq" fill="#20445B" d="M142.846,107.042c-0.718,0.914-0.933,1.307-0.933,1.6c-0.021,0.207,0.129,0.392,0.336,0.414
	c0.026,0.003,0.051,0.003,0.077,0c0.85-0.213,1.616-0.675,2.2-1.328c0.065-0.065,0.1-0.093,0.129-0.118l-0.111,0.078
	c-0.587,0.661-1.358,1.133-2.214,1.354c-0.199,0.022-0.378-0.122-0.4-0.322c-0.003-0.026-0.003-0.052,0-0.078
	c0-0.3,0.244-0.714,0.932-1.6l0.5-0.6c0.623-0.75,1.567-1.878,1.755-2.214c0.111-0.18,0.188-0.378,0.228-0.585
	c-0.047,0.205-0.129,0.401-0.242,0.578c-0.252,0.454-1.888,2.364-2.252,2.814"/>
<path id="br" fill="#20445B" d="M142.251,109.449c-0.446,0-0.824-0.25-0.824-0.918c0-1.01,1.024-2.153,1.8-2.985
	c0.145-0.164,0.882-0.939,1.046-1.114c0.322-0.285,0.549-0.663,0.648-1.082c0-0.217-0.237-0.217-0.271-0.217
	c-0.521,0-2.321,0.953-4.427,3.745c-0.2,0.272-1.17,1.6-1.4,1.907c-0.212,0.346-0.571,0.577-0.974,0.628
	c-0.052,0-0.122-0.017-0.122-0.142c0.003-0.034,0.01-0.068,0.021-0.1c-0.011,0.034-0.024,0.067-0.039,0.1
	c0,0.107,0.049,0.157,0.14,0.157c0.408-0.051,0.772-0.285,0.987-0.636l1.4-1.907c2.112-2.8,3.917-3.738,4.415-3.738
	c0.079,0,0.257,0.018,0.257,0.2c-0.103,0.414-0.328,0.787-0.646,1.072l-1.043,1.11c-0.63,0.675-1.8,1.932-1.8,3
	c0,0.6,0.307,0.932,0.839,0.932c0.912-0.184,1.749-0.63,2.41-1.285c0.006-0.007,0.029-0.039,0.056-0.082
	c-0.018,0.018-0.032,0.039-0.052,0.061c-0.668,0.648-1.504,1.095-2.414,1.292"/>
<path id="bs" fill="#20445B" d="M139.806,106.264c0.305-0.393,0.629-0.757,0.918-1.153c0.477-0.505,0.85-1.098,1.1-1.746
	c0.011-0.129-0.084-0.242-0.212-0.254c-0.013-0.001-0.026-0.001-0.04,0c-0.88,0-3.78,2.939-4.7,4.071
	c-0.377,0.453-0.937,1.167-1.314,1.6c-0.238,0.324-0.593,0.543-0.989,0.611c-0.054,0-0.107,0-0.107-0.1
	c0.129-0.377,0.337-0.721,0.611-1.01l0.687-0.847c0.086-0.107,0.187-0.243,0.291-0.375c0.5-0.682,1.573-2.128,2.228-3.01
	c0.164-0.235,0.316-0.442,0.45-0.635c-0.484,0.632-2.982,4.013-2.982,4.013l-0.683,0.85c-0.281,0.286-0.492,0.633-0.616,1.014
	c0,0.118,0.067,0.118,0.121,0.118c0.402-0.067,0.761-0.289,1-0.618l0.775-0.935l0.541-0.665c0.976-1.21,3.831-4.063,4.686-4.063
	c0.119-0.012,0.226,0.075,0.238,0.194c0.001,0.014,0.001,0.028,0,0.042c-0.255,0.643-0.625,1.233-1.093,1.742l-0.523,0.664
	l-0.4,0.486c-0.218,0.25-1.653,2.135-1.964,2.682c0,0-0.014,0.032-0.025,0.067c0.01-0.021,0.021-0.041,0.034-0.061
	c0.308-0.538,1.75-2.424,1.966-2.681"/>
<path id="bt" fill="#20445B" d="M141.618,104.65c0.83-0.739,2.08-1.9,3.1-1.9c0.33-0.028,0.62,0.218,0.648,0.548
	c0.003,0.034,0.003,0.068,0,0.101c0,0.067-0.005,0.134-0.018,0.2c0.017-0.066,0.028-0.132,0.033-0.2
	c0.029-0.335-0.22-0.629-0.554-0.657c-0.036-0.003-0.073-0.003-0.109,0c-0.98,0-2.2,1.086-3,1.8l-0.077,0.067
	c-0.005,0.014-0.013,0.027-0.025,0.036L141.618,104.65L141.618,104.65z"/>
<path id="bu" fill="#20445B" d="M138.159,105.117c0.393-0.507,1.226-1.632,1.226-1.632s0.013-0.025,0.034-0.068
	c-0.017,0.02-0.032,0.043-0.044,0.066C138.957,104.014,138.561,104.568,138.159,105.117"/>
<path id="bv" fill="#20445B" d="M137.591,103.308h1.217v-0.007l-0.432-0.005h-0.785c-0.053,0-0.088,0-0.088-0.074
	c0-0.039,0-0.25,0.305-0.308h1.674c0.053,0.023,0.109,0.023,0.109,0.125c0,0.019-0.009,0.034-0.009,0.047l0.021-0.047
	c0-0.1-0.045-0.116-0.1-0.132l-1.7-0.007c-0.29,0.051-0.319,0.248-0.319,0.322s0.049,0.086,0.1,0.086"/>
<path id="bw" fill="#20445B" d="M138.078,105.279c0.411-0.386,0.707-0.664,0.916-0.868c-0.312,0.29-0.6,0.547-0.6,0.547
	s-0.314,0.3-0.4,0.382l0,0C138.025,105.324,138.053,105.303,138.078,105.279"/>
<path id="bx" fill="#20445B" d="M145.163,108.299c0,0.535,0.238,1.171,1.373,1.171c1.202-0.071,2.338-0.573,3.2-1.414
	c0.084-0.075,0.246-0.207,0.246-0.328c0-0.093-0.067-0.193-0.11-0.193l-0.532,0.4c-0.752,0.689-1.71,1.111-2.726,1.2
	c-0.206,0-0.825,0-0.825-0.632c0.173-0.857,0.547-1.661,1.091-2.345l0.028-0.044h0.007c3.337-0.346,4.721-1.967,4.721-2.756
	c0-0.043-0.008-0.071-0.011-0.11c-0.007-0.031-0.016-0.061-0.027-0.09c-0.027-0.071-0.071-0.134-0.127-0.185l-0.017-0.015
	c-0.188-0.119-0.409-0.177-0.631-0.164c-2.37,0-5.656,3.824-5.656,5.513 M150.982,103.501c0,0.371-0.385,0.754-0.637,1
	c-0.895,0.677-1.957,1.101-3.073,1.225l-0.1,0.025l0.029-0.032c0.541-0.636,2.183-2.578,3.3-2.578c0.4,0,0.482,0.193,0.482,0.357"/>
<path id="by" fill="#20445B" d="M150.925,103.372c0,0.007,0.005,0.018,0.012,0.025S150.929,103.379,150.925,103.372"/>
<path id="c_x60_" fill="#20445B" d="M147.214,105.732l0.023-0.011h-0.014L147.214,105.732"/>
<path id="ca" fill="#20445B" d="M147.201,105.717h0.022c0.549-0.65,2.174-2.56,3.274-2.56c0.273,0,0.387,0.1,0.428,0.21
	c-0.084-0.21-0.353-0.221-0.428-0.221c-1.1,0-2.7,1.878-3.3,2.571"/>
<path id="cb" fill="#20445B" d="M150.368,104.432c-0.899,0.696-1.971,1.134-3.1,1.268l-0.027,0.021
	c1.125-0.127,2.195-0.554,3.1-1.235c0.178-0.186,0.632-0.6,0.632-0.993c0-0.043-0.021-0.064-0.029-0.1
	c0.008,0.033,0.012,0.066,0.013,0.1c0,0.364-0.381,0.736-0.582,0.939"/>
<path id="cc" fill="#20445B" d="M146.537,109.499c1.207-0.072,2.347-0.576,3.212-1.421c0.089-0.079,0.257-0.218,0.257-0.35
	c0-0.107-0.077-0.218-0.14-0.218c-0.193,0.119-0.377,0.252-0.549,0.4c-0.746,0.686-1.698,1.104-2.707,1.189
	c-0.342,0-0.8-0.064-0.8-0.6c0.173-0.85,0.545-1.647,1.087-2.325l0.018-0.035c3.351-0.35,4.746-1.989,4.746-2.786
	c0-0.517-0.529-0.592-0.843-0.592c-2.382,0-5.684,3.849-5.684,5.542c0,0.549,0.244,1.2,1.4,1.2 M150.817,102.776
	c0.224-0.009,0.445,0.053,0.63,0.179l0.018,0.014c0.056,0.051,0.1,0.115,0.127,0.186c0.011,0.029,0.02,0.059,0.026,0.089
	c0.012,0.036,0.021,0.073,0.026,0.11c0,0.847-1.438,2.432-4.733,2.771c-0.553,0.693-0.935,1.507-1.116,2.375
	c0,0.582,0.523,0.61,0.812,0.61c1.011-0.085,1.966-0.501,2.716-1.185c0,0,0.523-0.4,0.54-0.4c0.054,0,0.125,0.114,0.125,0.207
	c0,0.118-0.142,0.25-0.249,0.336c-0.868,0.836-2.003,1.339-3.205,1.421c-1.1,0-1.387-0.593-1.387-1.185
	C145.147,106.575,148.498,102.776,150.817,102.776"/>
<path id="cd" fill="#20445B" d="M65.1,122.053c0.138-0.126,0.249-0.279,0.325-0.45h-3.012c0.082,0.168,0.193,0.32,0.327,0.45
	c0.242,0.3,0.385,0.668,0.409,1.053v9.466c-0.025,0.388-0.168,0.759-0.409,1.064c-0.133,0.131-0.244,0.283-0.327,0.45h3.012
	c-0.077-0.17-0.188-0.323-0.325-0.45c-0.247-0.302-0.393-0.674-0.416-1.064v-9.466C64.706,122.719,64.852,122.35,65.1,122.053"/>
<path id="ce" fill="#20445B" d="M87.817,122.053c0.136-0.128,0.247-0.28,0.325-0.45h-3.015c0.083,0.17,0.197,0.323,0.337,0.45
	c0.234,0.304,0.373,0.67,0.4,1.053v9.466c-0.028,0.386-0.167,0.755-0.4,1.064c-0.139,0.128-0.253,0.28-0.337,0.45h3.015
	c-0.079-0.169-0.189-0.322-0.325-0.45c-0.245-0.304-0.391-0.675-0.418-1.064v-9.466C87.425,122.72,87.571,122.352,87.817,122.053"/>
<path id="cf" fill="#20445B" d="M56.811,124.927c-0.063-0.186-0.138-0.354-0.193-0.525c-0.1-0.211-0.2-0.407-0.311-0.6
	c-0.017-0.029-0.029-0.06-0.037-0.093v0.018c-0.74-1.235-1.998-2.07-3.424-2.271c-0.617-0.089-1.242-0.106-1.863-0.05
	c-0.255,0.011-0.7,0.072-1.2,0.1c-0.783,0.096-1.573,0.122-2.36,0.078c0.305,0.373,0.509,0.818,0.591,1.293v9.64
	c-0.082,0.474-0.286,0.918-0.591,1.289c0.787-0.051,1.577-0.026,2.36,0.072c0.5,0.05,0.944,0.1,1.2,0.1
	c0.621,0.063,1.247,0.045,1.863-0.053c1.426-0.192,2.687-1.024,3.424-2.26v0.01c0.011-0.028,0.023-0.055,0.037-0.082
	c0.116-0.2,0.22-0.406,0.311-0.618c0.055-0.153,0.13-0.325,0.193-0.517c0.037-0.103,0.067-0.208,0.091-0.314
	c0.233-0.796,0.349-1.621,0.342-2.45c0.006-0.836-0.109-1.668-0.342-2.471c-0.024-0.092-0.057-0.2-0.091-0.3 M55.67,127.69v0.436
	c-0.02,0.244-0.053,0.487-0.1,0.728c-0.08,0.863-0.379,1.692-0.869,2.407c-0.219,0.291-0.481,0.547-0.777,0.76
	c-1.442,1.039-3.788,0.454-4.294,0.207c-0.03-0.003-0.057-0.019-0.075-0.043c-0.2-0.156-0.167-0.31-0.167-0.31v-8.358
	c0,0-0.038-0.157,0.167-0.315c0.018-0.024,0.045-0.041,0.075-0.046c0.506-0.232,2.852-0.832,4.294,0.2
	c0.3,0.213,0.562,0.473,0.777,0.771c0.489,0.713,0.788,1.539,0.869,2.4c0.047,0.244,0.081,0.491,0.1,0.739
	C55.67,127.266,55.67,127.69,55.67,127.69z"/>
<path id="cg" fill="#20445B" d="M39.131,120.232c0.916-0.4,0.794-1.075,0.43-1.278c-0.6-0.364-1.5,0.171-1.905,0.4
	c-1.178,0.621-1.67,1.064-1.453,1.507C36.446,121.382,38.203,120.632,39.131,120.232"/>
<path id="ch" fill="#20445B" d="M36.048,122.824h3.567c1.1,0,1.523,1.492,2,1.832c0.053,0.046,0.119,0.073,0.188,0.078l0.025-3.342
	c0,0-0.171,0.1-0.272,0.154c-0.083,0.052-0.177,0.083-0.275,0.089h-8.256c-0.075,0.471,0.243,0.471,0.391,0.893v10.608
	c-0.148,0.428-0.466,0.428-0.391,0.9h8.255c0.09-0.005,0.178,0.024,0.247,0.082c0.094,0.062,0.195,0.115,0.3,0.157l-0.025-3.342
	c-0.068,0.007-0.133,0.032-0.188,0.072c-0.476,0.35-0.9,1.842-2,1.842h-3.566c-0.182,0-0.943,0.007-0.943-0.45v-4.139h3.5
	c0.387,0,0.827,0.943,1.28,0.943v-3.06c-0.453,0-0.893,0.939-1.28,0.939h-3.5v-3.813C35.105,122.817,35.866,122.824,36.048,122.824"
	/>
<path id="ci" fill="#20445B" d="M110.048,122.824h3.558c1.127,0,1.532,1.492,2.012,1.832c0.053,0.049,0.123,0.076,0.195,0.078
	l0.021-3.342l-0.275,0.154c-0.084,0.053-0.181,0.084-0.28,0.089h-8.239c0,0.511,0.377,0.489,0.377,0.893v10.608
	c0,0.428-0.377,0.428-0.377,0.9h8.212c0.096,0.001,0.191,0.02,0.28,0.054c0.095,0.069,0.195,0.131,0.3,0.185l-0.018-3.342
	c-0.072,0.003-0.142,0.029-0.2,0.072c-0.48,0.35-0.885,1.842-2.012,1.842h-3.554c-0.175,0-0.937,0.007-0.937-0.45v-4.139h3.5
	c0.386,0,0.821,0.943,1.276,0.943v-3.06c-0.455,0-0.89,0.939-1.276,0.939h-3.5v-3.813
	C109.111,122.817,109.873,122.824,110.048,122.824"/>
<path id="cj" fill="#20445B" d="M79.824,121.585h-8.378c0,0.125,0.2,0.232,0.268,0.332c0.161,0.157,0.257,0.369,0.269,0.593v10.48
	c-0.021,0.258-0.155,0.494-0.365,0.646c-0.151,0.106-0.254,0.268-0.286,0.45h3.021c-0.041-0.182-0.148-0.342-0.3-0.45
	c-0.215-0.168-0.349-0.42-0.368-0.693v-4.9h3.477c0.381,0,0.806,0.939,1.274,0.939v-3.058c-0.468,0-0.893,0.942-1.274,0.942h-3.475
	v-3.642c0-0.368,0.44-0.457,0.933-0.457h3.527c1.116,0,1.523,1.485,2,1.825c0.055,0.05,0.126,0.079,0.2,0.082l0.008-3.328
	c0,0-0.166,0.1-0.266,0.15C80.013,121.555,79.92,121.586,79.824,121.585"/>
<path id="ck" fill="#20445B" d="M101.352,130.804c-0.417,0.802-1.137,1.405-2,1.675c-0.983,0.269-2.032,0.142-2.922-0.354
	c-0.302-0.214-0.565-0.478-0.777-0.782c-0.498-0.705-0.808-1.526-0.9-2.385c-0.044-0.268-0.055-0.614-0.073-0.828
	c0,0,0-0.315-0.011-0.457c0.006-0.122,0.006-0.271,0.011-0.418v-0.011c0.019-0.254,0.057-0.505,0.114-0.753
	c0.071-0.884,0.366-1.736,0.857-2.474c0.151-0.215,0.326-0.413,0.52-0.59c0.091-0.067,0.168-0.132,0.257-0.2
	c1.062-0.737,2.433-0.862,3.611-0.329c0.041,0.029,0.051,0.047,0.079,0.058c0.599,0.503,1.066,1.145,1.359,1.87
	c0.044,0.129,0.144,0.1,0.178,0.036s-0.028-3.042,0.016-3.506c-0.209,0-0.591,0.686-1.009,0.539
	c-1.316-0.652-2.837-0.756-4.229-0.289c-0.071,0.014-0.135,0.032-0.2,0.05c-0.388,0.156-0.747,0.379-1.06,0.657
	c-0.353,0.295-0.661,0.639-0.916,1.021c-0.062,0.086-0.116,0.175-0.179,0.271c-0.013,0.026-0.028,0.051-0.046,0.075
	c-0.1,0.208-0.2,0.414-0.3,0.625c-0.057,0.172-0.137,0.339-0.2,0.543c-0.027,0.107-0.057,0.2-0.091,0.3
	c-0.222,0.826-0.334,1.677-0.332,2.532c-0.004,0.858,0.107,1.713,0.332,2.542c0.034,0.111,0.064,0.2,0.091,0.307
	c0.066,0.193,0.146,0.371,0.2,0.528c0.1,0.233,0.2,0.45,0.3,0.64c0.02,0.024,0.036,0.052,0.046,0.082v-0.018
	c0.725,1.261,1.988,2.12,3.428,2.331c0.571,0.067,1.15,0.031,1.709-0.107c1.069-0.332,1.946-1.103,2.412-2.121
	c0.374-0.714,0.692-1.917,0.449-1.985c-0.174-0.035-0.282,0.1-0.728,0.932"/>
<rect id="cl" x="142.393" y="121.382" fill="#20445B" width="1.921" height="12.668"/>
<path id="cm" fill="#20445B" d="M154.091,120.439l3.949-2.846h-3.949V120.439z"/>
<path id="cn" fill="#20445B" d="M152.553,134.05h6.843v-1.821h-4.869v-3.771h4.523v-1.681h-4.523v-3.567h4.869v-1.828h-6.843V134.05
	z"/>
<path id="co" fill="#20445B" d="M176.581,130.565l-7.459-9.209h-2.072v12.719h1.929v-9.484l7.754,9.445h1.638v-12.68h-1.79V130.565z
	"/>
<path id="cp" fill="#20445B" d="M188.624,121.161l-4.989,12.911h2.142l1.623-4.378l-0.022,0.072h4.674l1.825,4.242h1.956
	l-5.618-12.847L188.624,121.161L188.624,121.161z M188.024,128.052l1.53-4.1l1.76,4.1H188.024z"/>
<path id="cq" fill="#20445B" d="M127.133,133.176c-0.72-0.018-1.358-0.469-1.614-1.143c-0.232-0.521-0.327-1.092-0.275-1.66h3.067
	c0.407,0,0.444-0.2,0.444-0.479c-0.035-1.022-0.893-1.822-1.915-1.787c-0.062,0.002-0.124,0.007-0.185,0.016
	c-1.584-0.048-2.907,1.197-2.955,2.78c-0.003,0.114,0,0.227,0.01,0.341c-0.137,1.462,0.937,2.758,2.399,2.896
	c0.091,0.008,0.182,0.012,0.273,0.011c0.963,0.014,1.879-0.417,2.482-1.168l-0.338-0.361c-0.386,0.345-0.882,0.541-1.4,0.554
	 M126.497,128.716c0.449-0.039,0.844,0.294,0.883,0.743c0.001,0.015,0.002,0.031,0.003,0.046c0,0.318-0.211,0.318-0.311,0.318h-1.76
	C125.378,129.211,125.882,128.741,126.497,128.716"/>
<path id="cr" fill="#20445B" d="M133.257,129.158l0.216-0.7h-1.641l0.058-1.9h-0.457c-0.138,0.444-0.353,0.861-0.634,1.232
	c-0.293,0.384-0.666,0.699-1.093,0.924l-0.082,0.457h0.691v1.207c0,0.4-0.025,1.771-0.025,2.1c-0.038,0.373,0.036,0.748,0.211,1.079
	c0.311,0.4,0.803,0.615,1.308,0.571c0.583-0.013,1.154-0.167,1.664-0.45l-0.171-0.461c-0.232,0.111-0.483,0.177-0.74,0.193
	c-0.753,0-0.765-0.9-0.765-1.478v-2.774H133.257L133.257,129.158z"/>
<path id="cs" fill="#20445B" d="M84.732,110.209c4,0,7.242-3.241,7.243-7.241c0-4-3.241-7.242-7.241-7.243
	c-3.999,0-7.242,3.241-7.243,7.24c0,4,3.242,7.243,7.242,7.244l0,0 M80.477,103.261c0-1.2,0.972-2.172,2.172-2.172
	s2.172,0.972,2.172,2.172v1.932c-0.015,0.4,0.297,0.737,0.698,0.751c0.4,0.015,0.737-0.297,0.751-0.698c0-0.018,0-0.036,0-0.054
	V99.1h-0.133c-0.467,0-0.845-0.378-0.845-0.845v-1.193l0.484,0.268v0.921c0,0.201,0.16,0.366,0.361,0.371h0.133v-1.025l0.481,0.265
	v0.76h0.483v-0.493l0.482,0.265V99.1h1.42l-1.42,1.421v4.671c0,1.104-0.829,2.032-1.926,2.156v1.007h-0.483v-1.007
	c-1.099-0.122-1.932-1.05-1.933-2.156v-1.935l0,0c0-0.399-0.323-0.722-0.722-0.722s-0.722,0.323-0.722,0.722v3.085l-0.486,0.489
	v-3.571c0-0.667,0.54-1.208,1.207-1.21c0.666,0.004,1.205,0.544,1.208,1.21v1.932c-0.001,0.934,0.755,1.692,1.688,1.694
	s1.692-0.755,1.694-1.688v-4.197l-0.484,0.486v3.706c0,0.667-0.541,1.208-1.207,1.208s-1.208-0.541-1.208-1.208l0,0v-1.932
	c-0.023-0.934-0.798-1.673-1.733-1.65c-0.902,0.022-1.629,0.748-1.65,1.65v4.056l-0.479,0.485L80.477,103.261L80.477,103.261z"/>
</svg>
