<?xml version="1.0" encoding="utf-8"?>
<!-- Generator: Adobe Illustrator 26.2.1, SVG Export Plug-In . SVG Version: 6.00 Build 0)  -->
<svg version="1.1" id="a" xmlns="http://www.w3.org/2000/svg" xmlns:xlink="http://www.w3.org/1999/xlink" x="0px" y="0px"
	 width="230px" height="230px" viewBox="0 0 230 230" enable-background="new 0 0 230 230" xml:space="preserve">
<path id="b" fill="#231815" d="M77.618,121.356h3.071c1.016,0.034,2.029-0.132,2.981-0.487c0.715-0.281,1.343-0.747,1.819-1.349
	c0.453-0.594,0.762-1.286,0.9-2.02c0.32-1.656,0.32-3.357,0-5.013c-0.139-0.734-0.447-1.424-0.9-2.018
	c-0.476-0.604-1.104-1.07-1.821-1.349c-0.952-0.356-1.965-0.521-2.981-0.487h-3.069C77.618,108.633,77.618,121.356,77.618,121.356z
	 M75.238,106.092h6.651c1.218-0.029,2.427,0.21,3.542,0.7c0.955,0.433,1.792,1.088,2.444,1.909c0.649,0.843,1.128,1.805,1.409,2.831
	c0.612,2.27,0.612,4.663,0,6.933c-0.282,1.026-0.761,1.987-1.409,2.83c-0.651,0.821-1.489,1.476-2.444,1.909
	c-1.115,0.49-2.324,0.729-3.542,0.7h-6.651c-0.406,0-0.735-0.33-0.734-0.736V106.83c-0.002-0.406,0.326-0.736,0.732-0.738
	L75.238,106.092 M62.189,108.785h-8.968v4.663h8.24c0.408,0.001,0.737,0.331,0.738,0.739v1.068
	c-0.001,0.407-0.331,0.737-0.738,0.738h-8.24v5.213h9.137c0.407,0,0.737,0.329,0.738,0.736v1.236c0,0.408-0.33,0.738-0.738,0.739
	H50.841c-0.407,0-0.737-0.329-0.738-0.736v-16.335c0-0.407,0.33-0.737,0.737-0.737h0.001v-0.017h11.348
	c0.406,0,0.736,0.331,0.735,0.737l0,0v1.218c0.001,0.406-0.328,0.737-0.734,0.738H62.189 M181.595,108.785h-8.963v4.663h8.243
	c0.406,0.001,0.735,0.332,0.734,0.738l0,0v1.069c0,0.406-0.328,0.736-0.734,0.738h-8.243v5.213h9.14
	c0.407,0,0.737,0.329,0.738,0.736v1.236c0,0.408-0.33,0.738-0.738,0.739h-11.525c-0.408-0.001-0.737-0.331-0.738-0.739v-16.332
	c0.001-0.407,0.331-0.736,0.738-0.737v-0.017h11.342c0.409-0.001,0.741,0.329,0.742,0.738l0,0v1.217
	c-0.001,0.409-0.333,0.739-0.742,0.738l0,0 M196.679,121.206h8.31c0.406-0.001,0.737,0.328,0.738,0.734v1.238
	c0.003,0.407-0.325,0.739-0.732,0.742h-10.697c-0.408,0-0.738-0.33-0.738-0.738l0,0v-16.336c0-0.407,0.33-0.737,0.737-0.737h0.001
	v-0.017h1.643c0.407,0,0.737,0.331,0.738,0.738L196.679,121.206L196.679,121.206z M105.236,114.072l4.422-7.611
	c0.133-0.229,0.378-0.37,0.643-0.369h1.744c0.409,0,0.741,0.331,0.742,0.74c-0.006,0.161-0.059,0.318-0.152,0.45l-5.929,9.638v6.246
	c0.001,0.406-0.328,0.737-0.734,0.738h-1.643c-0.408,0-0.738-0.33-0.739-0.738v-6.246l-5.926-9.633
	c-0.093-0.132-0.147-0.288-0.155-0.45c0-0.409,0.331-0.74,0.74-0.74h1.746c0.265-0.001,0.51,0.14,0.643,0.369l4.422,7.611
	C105.06,114.077,105.236,114.072,105.236,114.072z M135.581,122.933l-6.329-16.435c-0.124-0.249-0.379-0.406-0.657-0.406h-2.306
	c-0.28,0-0.536,0.157-0.664,0.406l-6.3,16.435c-0.025,0.073-0.036,0.149-0.035,0.226c0,0.408,0.33,0.739,0.738,0.74h1.624
	c0.291,0,0.555-0.171,0.675-0.436l1.515-4.279h7.109l1.516,4.279c0.116,0.266,0.38,0.437,0.67,0.436h1.745
	c0.409,0,0.741-0.331,0.742-0.74c0-0.077-0.012-0.153-0.035-0.226 M124.689,116.816l2.694-7.657h0.074l2.671,7.657H124.689z
	 M154.549,108.785h-8.85c-0.407,0-0.737-0.331-0.738-0.738v-1.217c0-0.407,0.331-0.737,0.738-0.738h12.064
	c0.407-0.001,0.738,0.328,0.739,0.735v0.003l0,0v1.369c0.002,0.175-0.061,0.345-0.177,0.476l-10.2,12.531h9.889
	c0.406,0,0.735,0.33,0.735,0.736v1.236c0,0.409-0.332,0.74-0.741,0.739h-13.1c-0.408,0-0.738-0.331-0.738-0.739l0,0v-1.388
	c0-0.174,0.062-0.341,0.173-0.475L154.549,108.785L154.549,108.785z"/>
<path id="c" fill="#231815" d="M39.089,122.949c-0.412-0.595-0.639-1.3-0.65-2.024c-0.049-0.526-0.078-1.12-0.078-1.706
	c0.016-0.593-0.072-1.184-0.261-1.746c-0.145-0.417-0.369-0.803-0.66-1.136c-0.239-0.27-0.533-0.487-0.862-0.635
	c-0.274-0.124-0.564-0.208-0.862-0.25v-0.049c0.152-0.051,0.389-0.15,0.714-0.3c0.37-0.184,0.704-0.433,0.985-0.735
	c0.369-0.394,0.665-0.851,0.874-1.348c0.27-0.669,0.398-1.387,0.375-2.108c0.072-1.343-0.471-2.645-1.475-3.54
	c-1.271-0.941-2.838-1.393-4.415-1.273H25.01c-0.408,0-0.738,0.33-0.738,0.738v16.332c0,0.407,0.329,0.737,0.736,0.738h1.644
	c0.407,0,0.737-0.331,0.738-0.738v-6.595h4.588c0.598-0.019,1.195,0.074,1.759,0.275c0.44,0.17,0.818,0.47,1.084,0.86
	c0.289,0.444,0.477,0.946,0.551,1.471c0.107,0.698,0.157,1.403,0.149,2.109c0.017,0.705,0.093,1.407,0.226,2.1
	c0.098,0.307,0.384,0.515,0.706,0.515h2.366c0.308-0.081,0.493-0.396,0.412-0.704c-0.025-0.094-0.073-0.181-0.14-0.252
	 M34.772,113.493c-0.638,0.516-1.449,0.771-2.268,0.712h-5.115v-5.562h5.065c0.388,0,0.776,0.033,1.158,0.1
	c0.359,0.058,0.7,0.195,1,0.4c0.301,0.21,0.539,0.499,0.686,0.836c0.183,0.437,0.268,0.909,0.25,1.382
	c0.06,0.789-0.221,1.566-0.773,2.133"/>
</svg>
