<?xml version="1.0" encoding="utf-8"?>
<!-- Generator: Adobe Illustrator 26.2.1, SVG Export Plug-In . SVG Version: 6.00 Build 0)  -->
<svg version="1.1" id="a" xmlns="http://www.w3.org/2000/svg" xmlns:xlink="http://www.w3.org/1999/xlink" x="0px" y="0px"
	 width="230px" height="230px" viewBox="0 0 230 230" enable-background="new 0 0 230 230" xml:space="preserve">
<g id="b">
	<path id="c" fill="#373841" d="M102.751,131.062h-0.863c-0.049,0-0.089,0.039-0.091,0.088v7.094
		c0.002,0.05,0.041,0.091,0.091,0.095h0.868c0.051-0.003,0.092-0.044,0.094-0.095v-7.094c-0.002-0.05-0.044-0.09-0.094-0.088l0,0"/>
	<path id="d" fill="#373841" d="M107.588,130.648c0.016,0.009,0.034,0.014,0.053,0.014c0.023,0,0.045-0.009,0.06-0.026l1.515-1.4
		c0.022-0.022,0.033-0.052,0.029-0.083c-0.003-0.03-0.022-0.057-0.049-0.07l-0.767-0.414c-0.014-0.006-0.029-0.009-0.044-0.01
		c-0.029,0-0.057,0.015-0.073,0.039l-1.152,1.561c-0.015,0.021-0.021,0.048-0.016,0.073c0.004,0.025,0.019,0.047,0.042,0.059
		L107.588,130.648L107.588,130.648z"/>
	<path id="e" fill="#373841" d="M109.819,131.062h-3.731c-0.05-0.005-0.095,0.032-0.1,0.082v7.1c0.002,0.053,0.046,0.095,0.1,0.095
		h3.729c0.051-0.003,0.092-0.044,0.095-0.095v-0.808c-0.003-0.051-0.044-0.092-0.095-0.094h-2.77v-2.49h2.692
		c0.051-0.005,0.09-0.048,0.09-0.1v-0.808c0-0.051-0.039-0.092-0.09-0.094h-2.69v-1.8h2.77c0.052,0,0.095-0.041,0.095-0.093v-0.815
		c-0.002-0.05-0.045-0.09-0.095-0.088"/>
	<path id="f" fill="#373841" d="M119.188,131.062h-0.867c-0.051-0.004-0.096,0.034-0.1,0.086v5.008l-5.056-5.407
		c-0.017-0.019-0.042-0.029-0.068-0.028c-0.011-0.001-0.023,0-0.033,0.005c-0.037,0.012-0.061,0.047-0.059,0.086v7.432
		c0,0.052,0.04,0.094,0.092,0.095h0.865c0.051-0.003,0.092-0.044,0.094-0.095v-5.049l5.056,5.407
		c0.019,0.018,0.045,0.028,0.071,0.027c0.012,0,0.025-0.002,0.036-0.006c0.032-0.017,0.051-0.05,0.052-0.086v-7.387
		c0-0.049-0.039-0.088-0.088-0.088"/>
	<path id="g" fill="#373841" d="M124.881,130.811c-0.017-0.033-0.051-0.053-0.088-0.053c-0.036,0.001-0.068,0.021-0.085,0.053
		l-3.314,7.4c-0.016,0.027-0.016,0.06,0,0.087c0.016,0.027,0.046,0.044,0.078,0.043h0.93c0.038,0,0.072-0.022,0.086-0.058
		l0.771-1.724h3.067l0.769,1.724c0.013,0.035,0.046,0.058,0.083,0.058h0.934c0.051-0.001,0.092-0.044,0.091-0.095
		c0-0.012-0.003-0.024-0.008-0.035C128.195,138.211,124.881,130.811,124.881,130.811z M123.701,135.566l1.092-2.54l1.1,2.54H123.701
		z"/>
	<path id="h" fill="#373841" d="M96.326,116.952h-8.238V91.975c0-0.066-0.053-0.12-0.119-0.122h-3c-0.067,0-0.121,0.055-0.121,0.122
		v28c0,0.067,0.054,0.121,0.121,0.121h11.357c0.066,0,0.12-0.055,0.12-0.121v-2.9C96.446,117.008,96.393,116.953,96.326,116.952"/>
	<path id="i" fill="#373841" d="M143.523,104.955c1.659-1.291,2.586-3.308,2.485-5.408c0-6.36-4.953-7.695-9.1-7.695h-4.42
		c-0.067,0.001-0.121,0.056-0.121,0.123v27.995c0,0.067,0.054,0.12,0.121,0.121h6.237c6.194,0,9.745-2.887,9.745-7.92
		c0.155-3.241-1.864-6.19-4.942-7.216 M136.621,104.178h-1.023V94.99h1.056c3.467,0,6.119,0.333,6.119,4.557
		c0,4.276-2.915,4.631-6.157,4.631 M135.598,107.094h2.481c3.071,0,7.151,0.505,7.151,4.854c0,3.368-2.209,5-6.759,5h-2.873
		C135.598,116.948,135.598,107.094,135.598,107.094z"/>
	<path id="j" fill="#373841" d="M168.729,94.99c0.067,0,0.121-0.053,0.123-0.12v-2.9c-0.001-0.067-0.056-0.122-0.123-0.123h-13.941
		c-0.067,0.001-0.12,0.056-0.119,0.123l0,0v28c0,0.066,0.053,0.12,0.119,0.121h13.938c0.067,0,0.121-0.054,0.123-0.121v-2.9
		c-0.002-0.067-0.056-0.121-0.123-0.123h-10.819v-10.274h8.156c0.066-0.002,0.118-0.056,0.119-0.122v-2.9
		c0-0.066-0.053-0.119-0.119-0.121h-8.156v-8.54L168.729,94.99L168.729,94.99z"/>
	<path id="k" fill="#373841" d="M71.568,103.824l-1.78-0.822c-1.852-0.868-4.136-1.943-4.136-4.272
		c0.007-2.339,1.908-4.23,4.247-4.223c0.03,0,0.059,0,0.089,0.001c1.816-0.053,3.496,0.962,4.293,2.595
		c0.022,0.034,0.059,0.056,0.1,0.057c0.017,0,0.035-0.002,0.051-0.009l2.608-1.235c0.031-0.012,0.053-0.038,0.061-0.07
		c0.013-0.029,0.013-0.063,0-0.092c-1.31-2.694-4.048-4.398-7.043-4.383c-4.357,0-7.645,3.117-7.645,7.248s2.8,5.8,5.916,7.275
		l1.642,0.743l0.126,0.061c2.447,1.164,4.759,2.263,4.759,5.4c-0.023,2.965-2.441,5.352-5.406,5.338
		c-2.668,0-4.831-2.079-5.256-5.051c-0.005-0.039-0.029-0.072-0.064-0.09c-0.016-0.011-0.036-0.016-0.056-0.015
		c-0.018,0-0.036,0.004-0.052,0.011l-2.807,1.333c-0.052,0.024-0.079,0.082-0.064,0.137c0.781,3.994,4.303,6.86,8.372,6.814
		c4.739-0.007,8.574-3.854,8.567-8.593c0-0.06,0-0.121-0.002-0.181c0-4.613-3.223-6.473-6.524-7.98"/>
	<path id="l" fill="#373841" d="M113.488,91.371c-7.065,0-12.812,6.564-12.812,14.638c0,8.028,5.747,14.564,12.812,14.564
		s12.811-6.536,12.811-14.564C126.299,97.935,120.553,91.371,113.488,91.371 M113.488,117.429c-5.33,0-9.665-5.124-9.665-11.42
		c0-6.337,4.335-11.5,9.665-11.5s9.665,5.159,9.665,11.5C123.153,112.309,118.817,117.429,113.488,117.429"/>
</g>
</svg>
